<?xml version="1.0"?>
<svg xmlns="http://www.w3.org/2000/svg" xmlns:xlink="http://www.w3.org/1999/xlink" viewBox="0 0 375.18 163.19">
  <defs>
    <linearGradient id="a" x1="467.34" y1="-410.84" x2="467.34" y2="-300.53" gradientTransform="matrix(1, 0, 0, -1, -288.72, -170.52)" gradientUnits="userSpaceOnUse">
      <stop offset="0"/>
      <stop offset="1" stop-color="#4b3000"/>
    </linearGradient>
    <linearGradient id="b" x1="288.72" y1="-379.61" x2="659.88" y2="-379.61" gradientTransform="matrix(1, 0, 0, -1, -288.72, -170.52)" gradientUnits="userSpaceOnUse">
      <stop offset="0" stop-color="#593d09"/>
      <stop offset="1" stop-color="#7f5200"/>
    </linearGradient>
    <linearGradient id="c" x1="454.99" y1="-381.78" x2="657.93" y2="-381.78" gradientTransform="matrix(1, 0, 0, -1, -286.35, -172.6)" gradientUnits="userSpaceOnUse">
      <stop offset="0" stop-color="#563b09"/>
      <stop offset="1" stop-color="#291d04"/>
    </linearGradient>
  </defs>
  <title>dirt</title>
  <path d="M128.64,150.59a13,13,0,0,1,6.85,2h.17a13,13,0,0,1,13,12.35c0,.23,0,.45,0,.68a13,13,0,0,1-1.14,5.29,12.91,12.91,0,0,1,2.2,7.23c0,.23,0,.46,0,.68a13,13,0,0,1-13,12.35,13.43,13.43,0,0,1-2-.15,13.09,13.09,0,0,1-14,.13c-.25,0-.51,0-.77,0a13,13,0,0,1-13-13,12.91,12.91,0,0,1,1.15-5.31,12.83,12.83,0,0,1-2.21-7.21,13,13,0,0,1,13-13,13.36,13.36,0,0,1,2.55.25,12.94,12.94,0,0,1,7.26-2.21Z" transform="translate(0 -119.79)" style="fill:#734b02;stroke:#000;stroke-width:1.8472915887832642px"/>
  <path d="M241.06,119.79a14.77,14.77,0,0,0-8.81,2.81,15.15,15.15,0,0,0-6.5-1.44c-7.59,0-13.75,5.47-13.75,12.19a10.87,10.87,0,0,0,.69,3.78,12.41,12.41,0,0,0-1.47,1.78,19.47,19.47,0,0,0-12.44-4.25c-7.3,0-13.54,3.63-16,8.72a13.11,13.11,0,0,0-5.69-1.34,13.67,13.67,0,0,0-8.81,3.31,13.42,13.42,0,0,0-7.87-2.62,14.19,14.19,0,0,0-11,5.59,21.31,21.31,0,0,0-5.12-.59,19.91,19.91,0,0,0-11.38,3.4,19.72,19.72,0,0,0-15.9-7.56c-10.48,0-19,7.42-19,16.59a14.89,14.89,0,0,0,1.37,6.19,19.24,19.24,0,0,1-2.81-.81,18.24,18.24,0,0,1-16.34,10.62c-.29,0-.57,0-.85,0-1.55,9.41-10.39,16.63-21.09,16.63a22.68,22.68,0,0,1-5.06-.6c-1.44,2.77-4.5,5.09-8.5,6.57a18.13,18.13,0,0,1-9.72,5.53A13.06,13.06,0,0,0,40,205.35,13.3,13.3,0,0,0,47.47,203c1.07,4.34,4.48,7.5,8.53,7.5,4.9,0,8.88-4.66,8.88-10.41a12.12,12.12,0,0,0-.5-3.44,14.78,14.78,0,0,0,8.71-6,14.68,14.68,0,0,0,2.63,1c.17.28.36.56.56.84a7.22,7.22,0,0,0-.81,0c-4.9,0-8.84,4.63-8.84,10.37s3.94,10.41,8.84,10.41a8.49,8.49,0,0,0,7-3.94c3.65,6.57,13.34,11.38,25,11.91a8.79,8.79,0,0,0,7.72,5.25,8.51,8.51,0,0,0,7.15-4.31,21.78,21.78,0,0,0,2.88,2.56c.69,4.94,4.34,8.69,8.75,8.69a8.18,8.18,0,0,0,6.15-2.94l.25,0c1.34,3.76,4.5,6.41,8.19,6.41a7.75,7.75,0,0,0,3-.63c5.26,3.6,12.88,5.88,21.35,5.88,11.22,0,20.9-4,25.62-9.79.64,0,1.31-.07,1.94-.12a14.66,14.66,0,0,0,5.81,1.22A13.84,13.84,0,0,0,219,225.79c.34-.27.65-.54,1-.81a15.87,15.87,0,0,0,2.31.21,14.93,14.93,0,0,0,3.44-.4,8.76,8.76,0,0,0,7.72,5.22c3.58,0,6.66-2.49,8.06-6.07a15.1,15.1,0,0,0,9.5-1.59,8.18,8.18,0,0,0,6.06,2.78c3.77,0,7-2.74,8.28-6.62a10,10,0,0,0,1.1.06,11.44,11.44,0,0,0,2.75-.34,8,8,0,0,0,5.28,2c3.66,0,6.8-2.58,8.16-6.28a14.76,14.76,0,0,0,7.15,1.81A13.94,13.94,0,0,0,302,209a15.08,15.08,0,0,0,5.16.9c7.59,0,13.72-5.61,13.72-12.53a11.55,11.55,0,0,0-.25-2.37,11.69,11.69,0,0,0,1.65-6,12.16,12.16,0,0,0-5.37-9.91,11.73,11.73,0,0,0,.5-3.31c0-6.92-6.16-12.53-13.75-12.53a15.87,15.87,0,0,0-2,.15,11,11,0,0,0,.41-2.93c0-6.73-6.16-12.19-13.75-12.19-.22,0-.41,0-.63,0a8.74,8.74,0,0,0-7.72-5.19,7.65,7.65,0,0,0-3.59.91c-3.41-5.83-11.63-10.24-21.69-11.41,0-.22.06-.46.06-.69,0-6.72-6.15-12.15-13.75-12.15Zm34.63,45.37a11.67,11.67,0,0,0,2,3c-.76-.1-1.53-.18-2.31-.25a10.8,10.8,0,0,0,.28-2.56Zm-30.35,2.44c1,.09,2.08.14,3.13.16a10.68,10.68,0,0,0,.56,1.68,35,35,0,0,0-3.78-1.53l.09-.31Z" transform="translate(0 -119.79)" style="fill:url(#a)"/>
  <path d="M131.93,154.75a13,13,0,0,1,6.85,2H139a13,13,0,0,1,13,12.35c0,.23,0,.45,0,.68a13,13,0,0,1-1.13,5.29,13,13,0,0,1,2.19,7.23c0,.23,0,.46,0,.68a13,13,0,0,1-13,12.35,13.43,13.43,0,0,1-2-.15,13.09,13.09,0,0,1-14.05.13c-.25,0-.51,0-.77,0a13,13,0,0,1-13-13,12.91,12.91,0,0,1,1.15-5.31,12.83,12.83,0,0,1-2.21-7.21,13,13,0,0,1,13.05-13,13.47,13.47,0,0,1,2.56.25,12.88,12.88,0,0,1,7.25-2.21Z" transform="translate(0 -119.79)" style="fill:#3b2906"/>
  <path d="M273.22,135.29a17.84,17.84,0,0,0-10.63,3.4,18.25,18.25,0,0,0-7.84-1.75c-9.15,0-16.56,6.59-16.56,14.69a13.11,13.11,0,0,0,.81,4.56,13.69,13.69,0,0,0-4.16,9.69,13.12,13.12,0,0,0,.54,3.66,17,17,0,0,0-4.13,1.78,16.2,16.2,0,0,0-6.16,4.78v0a38.72,38.72,0,0,0-4.37,1.94c-2.62-6.06-7.62-10.46-13.56-11.5a16.14,16.14,0,0,0-21.72-.47,16.19,16.19,0,0,0-9.5-3.16c-9.51,0-17.3,8.54-18.16,19.41a16,16,0,0,0-5.34-.94,17.29,17.29,0,0,0-14,7.63c-.93,0-1.87-.1-2.81-.1a54.42,54.42,0,0,0-8.5.66c-3.16-6.4-9.06-10.72-15.82-10.72-7.67,0-14.23,5.55-16.93,13.41-2.87-7.4-9.21-12.56-16.6-12.56a17.25,17.25,0,0,0-13.9,7.56,15.84,15.84,0,0,0-7.07-1.69c-7.53,0-14,5.36-16.81,13a16.18,16.18,0,0,0-9.19-2.94c-6.77,0-12.69,4.33-15.84,10.75a9.5,9.5,0,0,0-4.31-1.06C4.78,205.35,0,211,0,217.88s4.78,12.53,10.69,12.53a9.57,9.57,0,0,0,5-1.4c.06.11.15.2.22.31A11.2,11.2,0,0,0,24.22,237a15.78,15.78,0,0,0,15.62-1.35c1.29,5.23,5.41,9.06,10.29,9.06a9.13,9.13,0,0,0,2.28-.28,17.25,17.25,0,0,0,14.09.47A9.8,9.8,0,0,0,73.59,248,10.2,10.2,0,0,0,82,243.29c4.4,7.92,16.11,13.74,30.16,14.37,1.84,3.77,5.3,6.32,9.28,6.32a10.28,10.28,0,0,0,8.65-5.19,25,25,0,0,0,3.44,3.06c.83,6,5.24,10.5,10.56,10.5a9.89,9.89,0,0,0,7.44-3.53l.28,0c1.61,4.53,5.42,7.72,9.88,7.72a9.38,9.38,0,0,0,3.65-.75c6.34,4.34,15.52,7.06,25.72,7.06,13.53,0,25.22-4.79,30.91-11.78.77,0,1.55-.09,2.31-.16a17.75,17.75,0,0,0,7,1.47,16.64,16.64,0,0,0,15.31-9.34c.42-.32.81-.63,1.19-1a16.71,16.71,0,0,0,6.94-.25c1.84,3.77,5.31,6.31,9.28,6.31,4.32,0,8-3,9.72-7.31a18.88,18.88,0,0,0,2.84.22,18.16,18.16,0,0,0,8.63-2.16,9.86,9.86,0,0,0,7.31,3.38c4.54,0,8.42-3.33,10-8,.45,0,.89.09,1.34.09a12.78,12.78,0,0,0,3.28-.44,9.65,9.65,0,0,0,6.38,2.47c4.41,0,8.21-3.13,9.84-7.59a17.8,17.8,0,0,0,8.63,2.19,16.78,16.78,0,0,0,14.75-8.22,18.11,18.11,0,0,0,6.22,1.09c9.15,0,16.56-6.75,16.56-15.09a13.73,13.73,0,0,0-.31-2.88,14,14,0,0,0,2-7.18,14.64,14.64,0,0,0-6.47-11.94,14,14,0,0,0,.59-4c0-8.34-7.44-15.1-16.59-15.1a18.63,18.63,0,0,0-2.38.19,12.92,12.92,0,0,0,.5-3.53c0-8.11-7.41-14.69-16.56-14.69l-.78,0c-1.85-3.75-5.32-6.28-9.28-6.28a9.3,9.3,0,0,0-4.35,1.1c-4.1-7-14-12.34-26.12-13.75,0-.27.06-.54.06-.82,0-8.1-7.41-14.65-16.56-14.65ZM314.94,190a14.43,14.43,0,0,0,2.47,3.62c-.92-.12-1.87-.21-2.82-.28a12.68,12.68,0,0,0,.35-3.09Zm-36.56,3c1.22.11,2.48.17,3.75.19a13.08,13.08,0,0,0,.68,2,41.69,41.69,0,0,0-4.56-1.84C278.29,193.19,278.34,193.07,278.38,192.94Z" transform="translate(0 -119.79)" style="fill:url(#b)"/>
  <path d="M273.64,135.39a17.79,17.79,0,0,0-10.62,3.4,18.15,18.15,0,0,0-11.88-1.28,103.57,103.57,0,0,1,8.22,6.94c11.3,1.24,20.06,10.26,20.06,21.22a20.44,20.44,0,0,1-1.18,6.84A49.45,49.45,0,0,1,280.77,188V188A20.71,20.71,0,0,1,288,203.64c0,11.7-10,21.23-22.41,21.4-.38.44-.77.88-1.16,1.31a16.6,16.6,0,0,1,1.5,6.85c0,11.81-12.82,21.37-28.65,21.37a38,38,0,0,1-4.16-.22c-2.43,10.35-16.84,18.29-34.25,18.29A52,52,0,0,1,182.11,270a24.4,24.4,0,0,1-13.47,7.72A48.51,48.51,0,0,0,191.45,283c13.53,0,25.22-4.79,30.91-11.78.78,0,1.55-.09,2.31-.16a17.75,17.75,0,0,0,7,1.47A16.65,16.65,0,0,0,247,263.17c.41-.32.8-.64,1.18-1a16.71,16.71,0,0,0,6.94-.25c1.85,3.77,5.31,6.31,9.28,6.31,4.32,0,8-3,9.72-7.31a19,19,0,0,0,2.85.22,18.09,18.09,0,0,0,8.62-2.16,9.86,9.86,0,0,0,7.31,3.38c4.54,0,8.42-3.33,10-8,.45,0,.89.09,1.35.09a12.84,12.84,0,0,0,3.28-.44,9.6,9.6,0,0,0,6.37,2.47c4.41,0,8.21-3.13,9.85-7.59a17.76,17.76,0,0,0,8.62,2.18,16.78,16.78,0,0,0,14.75-8.21,18.19,18.19,0,0,0,6.22,1.09c9.15,0,16.56-6.76,16.56-15.09a13.73,13.73,0,0,0-.31-2.88,14,14,0,0,0,2-7.19,14.61,14.61,0,0,0-6.47-11.93,14,14,0,0,0,.59-4c0-8.34-7.44-15.1-16.59-15.1a18.33,18.33,0,0,0-2.37.19,13,13,0,0,0,.5-3.53c0-8.11-7.41-14.69-16.57-14.69l-.78,0c-1.85-3.75-5.32-6.28-9.28-6.28a9.37,9.37,0,0,0-4.34,1.09c-4.11-7-14-12.33-26.13-13.75,0-.27.06-.53.06-.81,0-8.1-7.41-14.65-16.56-14.65Zm41.72,54.68a14.57,14.57,0,0,0,2.47,3.63c-.92-.12-1.87-.21-2.81-.28a13.27,13.27,0,0,0,.34-3.1Z" transform="translate(0 -119.79)" style="fill:url(#c)"/>
  <path d="M161.42,249.7a7.5,7.5,0,0,1,4,1.13h.1A7.52,7.52,0,0,1,173,258c0,.13,0,.26,0,.39a7.63,7.63,0,0,1-.65,3.06,7.43,7.43,0,0,1,1.26,4.17c0,.13,0,.26,0,.39a7.52,7.52,0,0,1-7.52,7.13,7.36,7.36,0,0,1-1.16-.09,7.56,7.56,0,0,1-8.11.08h-.45a7.53,7.53,0,0,1-7.53-7.52,7.44,7.44,0,0,1,.67-3.06,7.39,7.39,0,0,1-1.28-4.17,7.53,7.53,0,0,1,7.53-7.52,7.21,7.21,0,0,1,1.48.15,7.43,7.43,0,0,1,4.19-1.28Z" transform="translate(0 -119.79)" style="fill:#734b02;stroke:#000;stroke-width:1.0663117170333862px"/>
  <path d="M163.32,252.1a7.5,7.5,0,0,1,4,1.13h.1a7.52,7.52,0,0,1,7.52,7.13c0,.13,0,.26,0,.39a7.63,7.63,0,0,1-.65,3.06A7.43,7.43,0,0,1,175.5,268c0,.13,0,.26,0,.39A7.52,7.52,0,0,1,168,275.5a7.36,7.36,0,0,1-1.16-.09,7.51,7.51,0,0,1-8.11.08h-.45a7.53,7.53,0,0,1-7.53-7.52,7.44,7.44,0,0,1,.67-3.06,7.39,7.39,0,0,1-1.28-4.17,7.53,7.53,0,0,1,7.53-7.52,7.21,7.21,0,0,1,1.48.15,7.43,7.43,0,0,1,4.19-1.28Z" transform="translate(0 -119.79)" style="fill:#3b2906"/>
  <path d="M244.52,249.16a7.5,7.5,0,0,1,3.95,1.13h.1a7.52,7.52,0,0,1,7.52,7.13c0,.13,0,.26,0,.39a7.54,7.54,0,0,1-.65,3.05A7.49,7.49,0,0,1,256.7,265c0,.13,0,.26,0,.39a7.52,7.52,0,0,1-7.52,7.13,7.36,7.36,0,0,1-1.16-.09,7.56,7.56,0,0,1-8.11.08h-.45A7.49,7.49,0,0,1,232.6,262a7.41,7.41,0,0,1-1.28-4.16,7.53,7.53,0,0,1,7.53-7.52,8,8,0,0,1,1.48.14,7.5,7.5,0,0,1,4.19-1.27Z" transform="translate(0 -119.79)" style="fill:#734b02;stroke:#000;stroke-width:1.0663117170333862px"/>
  <path d="M246.42,251.56a7.5,7.5,0,0,1,4,1.13h.1a7.52,7.52,0,0,1,7.52,7.13c0,.13,0,.26,0,.39a7.54,7.54,0,0,1-.65,3.05,7.49,7.49,0,0,1,1.26,4.18c0,.13,0,.26,0,.39a7.52,7.52,0,0,1-7.52,7.13,7.36,7.36,0,0,1-1.16-.09,7.56,7.56,0,0,1-8.11.08h-.45a7.49,7.49,0,0,1-6.86-10.59,7.34,7.34,0,0,1-1.28-4.16,7.53,7.53,0,0,1,7.53-7.52,8,8,0,0,1,1.48.14,7.5,7.5,0,0,1,4.19-1.27Z" transform="translate(0 -119.79)" style="fill:#3b2906"/>
  <path d="M353.45,202.57a11.53,11.53,0,0,1,6.1,1.75h.16a11.61,11.61,0,0,1,11.6,11c0,.2,0,.4,0,.6a11.56,11.56,0,0,1-1,4.71,11.56,11.56,0,0,1,1.95,6.44c0,.2,0,.41,0,.6a11.61,11.61,0,0,1-11.6,11,11.82,11.82,0,0,1-1.8-.14,11.66,11.66,0,0,1-12.51.12l-.69,0a11.59,11.59,0,0,1-10.59-16.34,11.41,11.41,0,0,1-2-6.42,11.61,11.61,0,0,1,11.62-11.6,11.45,11.45,0,0,1,2.28.22,11.56,11.56,0,0,1,6.46-2Z" transform="translate(0 -119.79)" style="fill:#734b02;stroke:#000;stroke-width:1.6450282335281372px"/>
  <path d="M356.38,206.27a11.53,11.53,0,0,1,6.1,1.75h.16a11.61,11.61,0,0,1,11.6,11c0,.2,0,.4,0,.6a11.65,11.65,0,0,1-1,4.72,11.54,11.54,0,0,1,1.95,6.44c0,.2,0,.4,0,.6a11.61,11.61,0,0,1-11.6,11,11.92,11.92,0,0,1-1.8-.14,11.61,11.61,0,0,1-12.51.12c-.23,0-.45,0-.68,0A11.61,11.61,0,0,1,337,230.78a11.32,11.32,0,0,1,1-4.73,11.45,11.45,0,0,1-2-6.43A11.61,11.61,0,0,1,347.64,208a11.37,11.37,0,0,1,2.28.23,11.49,11.49,0,0,1,6.46-2Z" transform="translate(0 -119.79)" style="fill:#3b2906"/>
  <path d="M303.21,182.1a7.89,7.89,0,0,1,4.19,1.2h.11a8,8,0,0,1,8,7.56c0,.14,0,.27,0,.41a7.94,7.94,0,0,1-.69,3.24,7.93,7.93,0,0,1,1.34,4.43c0,.14,0,.28,0,.41a8,8,0,0,1-8,7.56,8.32,8.32,0,0,1-1.24-.09,8,8,0,0,1-8.6.08h-.47a8,8,0,0,1-8-8,7.84,7.84,0,0,1,.71-3.25,7.9,7.9,0,0,1-1.35-4.42,8,8,0,0,1,8-8,8.12,8.12,0,0,1,1.57.15,7.94,7.94,0,0,1,4.44-1.35Z" transform="translate(0 -119.79)" style="fill:#734b02;stroke:#000;stroke-width:1.1306965351104736px"/>
  <path d="M306.9,186.32a8,8,0,0,1,4.19,1.2h.11a8,8,0,0,1,8,7.56c0,.14,0,.28,0,.41a7.94,7.94,0,0,1-.69,3.24,7.93,7.93,0,0,1,1.34,4.43c0,.14,0,.28,0,.41a8,8,0,0,1-8,7.57,8.52,8.52,0,0,1-1.24-.1,8,8,0,0,1-8.6.08l-.47,0a8,8,0,0,1-7.28-11.23,7.85,7.85,0,0,1-1.35-4.42,8,8,0,0,1,8-8,8.12,8.12,0,0,1,1.57.15,7.94,7.94,0,0,1,4.44-1.35Z" transform="translate(0 -119.79)" style="fill:#3b2906;opacity:0.8024691343307495;isolation:isolate"/>
  <path d="M31.49,215.61a7.5,7.5,0,0,1,3.95,1.13h.1a7.52,7.52,0,0,1,7.52,7.13c0,.13,0,.26,0,.39a7.54,7.54,0,0,1-.65,3.05,7.49,7.49,0,0,1,1.26,4.18c0,.13,0,.26,0,.39A7.52,7.52,0,0,1,36.15,239a7.36,7.36,0,0,1-1.16-.09,7.56,7.56,0,0,1-8.11.08h-.45a7.49,7.49,0,0,1-6.86-10.59,7.34,7.34,0,0,1-1.28-4.16,7.53,7.53,0,0,1,7.53-7.52,8,8,0,0,1,1.48.14,7.5,7.5,0,0,1,4.19-1.27Z" transform="translate(0 -119.79)" style="fill:#734b02;stroke:#000;stroke-width:1.0663117170333862px"/>
  <path d="M33.39,218a7.5,7.5,0,0,1,4,1.13h.1A7.52,7.52,0,0,1,45,226.27c0,.13,0,.26,0,.39a7.47,7.47,0,0,1-.66,3.06,7.36,7.36,0,0,1,1.27,4.17c0,.13,0,.26,0,.39a7.52,7.52,0,0,1-7.52,7.13,7.36,7.36,0,0,1-1.16-.09,7.56,7.56,0,0,1-8.11.08h-.45a7.53,7.53,0,0,1-7.53-7.52,7.44,7.44,0,0,1,.67-3.06,7.39,7.39,0,0,1-1.28-4.17,7.53,7.53,0,0,1,7.53-7.52,7.21,7.21,0,0,1,1.48.15A7.43,7.43,0,0,1,33.39,218Z" transform="translate(0 -119.79)" style="fill:#3b2906"/>
  <path d="M108.65,220.64a7.5,7.5,0,0,1,3.95,1.13h.1a7.52,7.52,0,0,1,7.52,7.13c0,.13,0,.26,0,.39a7.63,7.63,0,0,1-.65,3.06,7.43,7.43,0,0,1,1.26,4.17c0,.13,0,.26,0,.39a7.52,7.52,0,0,1-7.52,7.13,7.36,7.36,0,0,1-1.16-.09A7.51,7.51,0,0,1,104,244h-.45a7.53,7.53,0,0,1-7.53-7.52,7.44,7.44,0,0,1,.67-3.06A7.5,7.5,0,0,1,103,221.77a7.21,7.21,0,0,1,1.48.15,7.43,7.43,0,0,1,4.19-1.28Z" transform="translate(0 -119.79)" style="fill:#734b02;stroke:#000;stroke-width:1.0663117170333862px"/>
  <path d="M110.55,223a7.5,7.5,0,0,1,4,1.13h.1a7.52,7.52,0,0,1,7.52,7.13c0,.13,0,.26,0,.39a7.63,7.63,0,0,1-.65,3.06,7.43,7.43,0,0,1,1.26,4.17c0,.13,0,.26,0,.39a7.52,7.52,0,0,1-7.52,7.13,7.36,7.36,0,0,1-1.16-.09,7.51,7.51,0,0,1-8.11.08h-.45A7.53,7.53,0,0,1,98,238.92a7.44,7.44,0,0,1,.67-3.06,7.45,7.45,0,0,1-1.28-4.17,7.53,7.53,0,0,1,7.53-7.52,7.21,7.21,0,0,1,1.48.15,7.43,7.43,0,0,1,4.19-1.28Z" transform="translate(0 -119.79)" style="fill:#3b2906;fill-opacity:0.5069767236709595"/>
  <path d="M273,211.3a11.25,11.25,0,0,1,4,.71h.1c4.06,0,7.38,2,7.59,4.48v.24a3.37,3.37,0,0,1-.66,1.92,3.59,3.59,0,0,1,1.27,2.62,1.92,1.92,0,0,1,0,.24c-.2,2.49-3.52,4.47-7.58,4.47-.4,0-.79,0-1.17,0a11.75,11.75,0,0,1-8.18,0h-.45c-4.19,0-7.59-2.11-7.59-4.71a3.32,3.32,0,0,1,.67-1.93,3.56,3.56,0,0,1-1.29-2.61c0-2.6,3.41-4.72,7.6-4.72a12.16,12.16,0,0,1,1.49.1,10.87,10.87,0,0,1,4.22-.81Z" transform="translate(0 -119.79)" style="fill:#734b02;stroke:#000;stroke-width:0.8479004502296448px"/>
  <path d="M275,212.81a11.08,11.08,0,0,1,4,.71h.1c4.06,0,7.38,2,7.58,4.47a2.09,2.09,0,0,1,0,.25,3.25,3.25,0,0,1-.66,1.91,3.59,3.59,0,0,1,1.28,2.62V223c-.21,2.49-3.53,4.47-7.58,4.47a11.37,11.37,0,0,1-1.18-.06,11.58,11.58,0,0,1-8.17,0h-.45c-4.19,0-7.59-2.11-7.59-4.72a3.24,3.24,0,0,1,.67-1.92,3.58,3.58,0,0,1-1.29-2.61c0-2.61,3.4-4.72,7.59-4.72a12,12,0,0,1,1.49.09,11.13,11.13,0,0,1,4.22-.8Z" transform="translate(0 -119.79)" style="fill:#3b2906;fill-opacity:0.5069767236709595"/>
  <path d="M81.75,181.15a11.34,11.34,0,0,1,4,.71h.1c4,0,7.37,2,7.58,4.48v.24a3.3,3.3,0,0,1-.66,1.92A3.56,3.56,0,0,1,94,191.11a2.08,2.08,0,0,1,0,.25c-.2,2.49-3.52,4.47-7.58,4.47-.4,0-.79,0-1.17-.05a11.2,11.2,0,0,1-4.15.76,11.09,11.09,0,0,1-4-.72h-.45c-4.18,0-7.59-2.11-7.59-4.72a3.31,3.31,0,0,1,.67-1.92,3.57,3.57,0,0,1-1.28-2.61c0-2.61,3.4-4.72,7.59-4.72a12,12,0,0,1,1.49.09,11.1,11.1,0,0,1,4.22-.8Z" transform="translate(0 -119.79)" style="fill:#734b02;stroke:#000;stroke-width:0.8479004502296448px"/>
  <path d="M83.66,182.66a11.08,11.08,0,0,1,4,.71h.1c4.06,0,7.38,2,7.58,4.47a2.08,2.08,0,0,1,0,.25,3.25,3.25,0,0,1-.66,1.91A3.59,3.59,0,0,1,96,192.62a1.92,1.92,0,0,1,0,.24c-.2,2.5-3.53,4.48-7.58,4.48a11.51,11.51,0,0,1-1.18-.06,11.58,11.58,0,0,1-8.17.05h-.45c-4.19,0-7.59-2.11-7.59-4.72a3.22,3.22,0,0,1,.67-1.92,3.58,3.58,0,0,1-1.29-2.61c0-2.61,3.41-4.72,7.59-4.72a12,12,0,0,1,1.49.09,11,11,0,0,1,4.22-.8Z" transform="translate(0 -119.79)" style="fill:#3b2906;fill-opacity:0.5069767236709595"/>
  <path d="M206.58,197.67a17.13,17.13,0,0,1,6.14,1.1h.16c6.25,0,11.37,3,11.68,6.89,0,.12,0,.25,0,.37a5,5,0,0,1-1,2.95,5.52,5.52,0,0,1,2,4c0,.13,0,.25,0,.38-.32,3.84-5.43,6.89-11.68,6.89a17.83,17.83,0,0,1-1.81-.09,18,18,0,0,1-12.6.08h-.69c-6.45,0-11.7-3.26-11.7-7.27a5,5,0,0,1,1-3,5.53,5.53,0,0,1-2-4c0-4,5.25-7.26,11.7-7.26a17.33,17.33,0,0,1,2.3.14,16.92,16.92,0,0,1,6.5-1.24Z" transform="translate(0 -119.79)" style="fill:#734b02;stroke:#000;stroke-width:1.306395411491394px"/>
  <path d="M209.53,200a17.09,17.09,0,0,1,6.14,1.1h.16c6.25,0,11.37,3,11.68,6.89,0,.12,0,.25,0,.37a5,5,0,0,1-1,3,5.52,5.52,0,0,1,2,4c0,.13,0,.25,0,.38-.31,3.84-5.43,6.89-11.68,6.89a17.83,17.83,0,0,1-1.81-.09,18,18,0,0,1-12.6.08h-.69c-6.45,0-11.7-3.26-11.7-7.27a5,5,0,0,1,1-3,5.53,5.53,0,0,1-2-4c0-4,5.25-7.26,11.7-7.26a17.33,17.33,0,0,1,2.3.14,16.92,16.92,0,0,1,6.5-1.24Z" transform="translate(0 -119.79)" style="fill:#3b2906;fill-opacity:0.5069767236709595"/>
</svg>
