<svg xmlns="http://www.w3.org/2000/svg" xmlns:xlink="http://www.w3.org/1999/xlink" viewBox="0 0 375.18 282.22"><defs><linearGradient id="a" x1="467.34" y1="-410.84" x2="467.34" y2="-300.53" gradientTransform="matrix(1, 0, 0, -1, -288.72, -170.52)" gradientUnits="userSpaceOnUse"><stop offset="0"/><stop offset="1" stop-color="#4b3000"/></linearGradient><linearGradient id="b" x1="350.31" y1="765.28" x2="368.29" y2="765.28" gradientTransform="matrix(1.34, 0, 0, -1.34, -388.56, 1071.02)" gradientUnits="userSpaceOnUse"><stop offset="0" stop-color="#f1aac2"/><stop offset="1" stop-color="#e5638f"/></linearGradient><linearGradient id="c" x1="185.05" y1="765.28" x2="203.02" y2="765.28" gradientTransform="translate(516.74 1071.73) rotate(180) scale(1.34)" xlink:href="#b"/><linearGradient id="d" x1="400.87" y1="702.76" x2="442.84" y2="670.05" gradientTransform="matrix(1.34, 0, 0, -1.34, -386.31, 1053)" gradientUnits="userSpaceOnUse"><stop offset="0" stop-color="#ffceae"/><stop offset="1" stop-color="#ffb280"/></linearGradient><linearGradient id="e" x1="288.72" y1="-379.61" x2="659.88" y2="-379.61" gradientTransform="matrix(1, 0, 0, -1, -288.72, -170.52)" gradientUnits="userSpaceOnUse"><stop offset="0" stop-color="#593d09"/><stop offset="1" stop-color="#7f5200"/></linearGradient><linearGradient id="f" x1="454.99" y1="-381.78" x2="657.93" y2="-381.78" gradientTransform="matrix(1, 0, 0, -1, -286.35, -172.6)" gradientUnits="userSpaceOnUse"><stop offset="0" stop-color="#563b09"/><stop offset="1" stop-color="#291d04"/></linearGradient><radialGradient id="g" cx="122.5" cy="1064.73" r="28.14" gradientTransform="matrix(-0.85, -0.31, -0.37, 1, 591.65, -858.7)" gradientUnits="userSpaceOnUse"><stop offset="0" stop-color="#7e7e8d"/><stop offset="1" stop-color="#18181b"/></radialGradient><linearGradient id="h" x1="698.35" y1="424.98" x2="718.61" y2="424.98" gradientTransform="matrix(0, 1, 1, 0, -348.55, -536.96)" gradientUnits="userSpaceOnUse"><stop offset="0" stop-color="#ffc6a1"/><stop offset="0.5" stop-color="#ffba8d"/><stop offset="1" stop-color="#ff7f2c"/></linearGradient><linearGradient id="i" x1="767.12" y1="485.53" x2="787.38" y2="485.53" gradientTransform="matrix(-0.46, 0.89, 0.89, 0.46, 9.45, -770.79)" xlink:href="#h"/><linearGradient id="j" x1="755.62" y1="470.61" x2="775.88" y2="470.61" gradientTransform="matrix(-0.37, 0.93, 0.93, 0.37, -72.45, -730.53)" xlink:href="#h"/><radialGradient id="k" cx="195.12" cy="875.85" r="28.14" gradientTransform="matrix(0.85, -0.31, 0.37, 1, -243.42, -665)" xlink:href="#g"/><linearGradient id="l" x1="486.64" y1="432.24" x2="506.9" y2="432.24" gradientTransform="translate(696.78 -343.26) rotate(90)" xlink:href="#h"/><linearGradient id="m" x1="576.23" y1="393.69" x2="596.48" y2="393.69" gradientTransform="matrix(0.46, 0.89, -0.89, 0.46, 338.78, -577.09)" xlink:href="#h"/><linearGradient id="n" x1="556.64" y1="397.95" x2="576.9" y2="397.95" gradientTransform="translate(420.67 -536.83) rotate(67.98)" xlink:href="#h"/></defs><title>mole_is_dead</title><path d="M128.64,150.59a13,13,0,0,1,6.85,2h.17a13,13,0,0,1,13,12.35c0,.23,0,.45,0,.68a13,13,0,0,1-1.14,5.29,12.91,12.91,0,0,1,2.2,7.23c0,.23,0,.46,0,.68a13,13,0,0,1-13,12.35,13.43,13.43,0,0,1-2-.15,13.09,13.09,0,0,1-14,.13c-.25,0-.51,0-.77,0a13,13,0,0,1-13-13,12.91,12.91,0,0,1,1.15-5.31,12.83,12.83,0,0,1-2.21-7.21,13,13,0,0,1,13-13,13.36,13.36,0,0,1,2.55.25,12.94,12.94,0,0,1,7.26-2.21Z" transform="translate(0 -0.76)" style="fill:#734b02;stroke:#000;stroke-width:1.84729158878326px"/><path d="M241.06,119.79a14.77,14.77,0,0,0-8.81,2.81,15.15,15.15,0,0,0-6.5-1.44c-7.59,0-13.75,5.47-13.75,12.19a10.87,10.87,0,0,0,.69,3.78,12.41,12.41,0,0,0-1.47,1.78,19.47,19.47,0,0,0-12.44-4.25c-7.3,0-13.54,3.63-16,8.72a13.11,13.11,0,0,0-5.69-1.34,13.67,13.67,0,0,0-8.81,3.31,13.42,13.42,0,0,0-7.87-2.62,14.19,14.19,0,0,0-11,5.59,21.31,21.31,0,0,0-5.12-.59,19.91,19.91,0,0,0-11.38,3.4,19.72,19.72,0,0,0-15.9-7.56c-10.48,0-19,7.42-19,16.59a14.89,14.89,0,0,0,1.37,6.19,19.24,19.24,0,0,1-2.81-.81,18.24,18.24,0,0,1-16.34,10.62c-.29,0-.57,0-.85,0-1.55,9.41-10.39,16.63-21.09,16.63a22.68,22.68,0,0,1-5.06-.6c-1.44,2.77-4.5,5.09-8.5,6.57a18.13,18.13,0,0,1-9.72,5.53A13.06,13.06,0,0,0,40,205.35,13.3,13.3,0,0,0,47.47,203c1.07,4.34,4.48,7.5,8.53,7.5,4.9,0,8.88-4.66,8.88-10.41a12.12,12.12,0,0,0-.5-3.44,14.78,14.78,0,0,0,8.71-6,14.68,14.68,0,0,0,2.63,1c.17.28.36.56.56.84a7.22,7.22,0,0,0-.81,0c-4.9,0-8.84,4.63-8.84,10.37s3.94,10.41,8.84,10.41a8.49,8.49,0,0,0,7-3.94c3.65,6.57,13.34,11.38,25,11.91a8.79,8.79,0,0,0,7.72,5.25,8.51,8.51,0,0,0,7.15-4.31,21.78,21.78,0,0,0,2.88,2.56c.69,4.94,4.34,8.69,8.75,8.69a8.18,8.18,0,0,0,6.15-2.94l.25,0c1.34,3.76,4.5,6.41,8.19,6.41a7.75,7.75,0,0,0,3-.63c5.26,3.6,12.88,5.88,21.35,5.88,11.22,0,20.9-4,25.62-9.79.64,0,1.31-.07,1.94-.12a14.66,14.66,0,0,0,5.81,1.22A13.84,13.84,0,0,0,219,225.79c.34-.27.65-.54,1-.81a15.87,15.87,0,0,0,2.31.21,14.93,14.93,0,0,0,3.44-.4,8.76,8.76,0,0,0,7.72,5.22c3.58,0,6.66-2.49,8.06-6.07a15.1,15.1,0,0,0,9.5-1.59,8.18,8.18,0,0,0,6.06,2.78c3.77,0,7-2.74,8.28-6.62a10,10,0,0,0,1.1.06,11.44,11.44,0,0,0,2.75-.34,8,8,0,0,0,5.28,2c3.66,0,6.8-2.58,8.16-6.28a14.76,14.76,0,0,0,7.15,1.81A13.94,13.94,0,0,0,302,209a15.08,15.08,0,0,0,5.16.9c7.59,0,13.72-5.61,13.72-12.53a11.55,11.55,0,0,0-.25-2.37,11.69,11.69,0,0,0,1.65-6,12.16,12.16,0,0,0-5.37-9.91,11.73,11.73,0,0,0,.5-3.31c0-6.92-6.16-12.53-13.75-12.53a15.87,15.87,0,0,0-2,.15,11,11,0,0,0,.41-2.93c0-6.73-6.16-12.19-13.75-12.19-.22,0-.41,0-.63,0a8.74,8.74,0,0,0-7.72-5.19,7.65,7.65,0,0,0-3.59.91c-3.41-5.83-11.63-10.24-21.69-11.41,0-.22.06-.46.06-.69,0-6.72-6.15-12.15-13.75-12.15Zm34.63,45.37a11.67,11.67,0,0,0,2,3c-.76-.1-1.53-.18-2.31-.25a10.8,10.8,0,0,0,.28-2.56Zm-30.35,2.44c1,.09,2.08.14,3.13.16a10.68,10.68,0,0,0,.56,1.68,35,35,0,0,0-3.78-1.53l.09-.31Z" transform="translate(0 -0.76)" style="fill:url(#a)"/><path d="M131.93,154.75a13,13,0,0,1,6.85,2H139a13,13,0,0,1,13,12.35c0,.23,0,.45,0,.68a13,13,0,0,1-1.13,5.29,13,13,0,0,1,2.19,7.23c0,.23,0,.46,0,.68a13,13,0,0,1-13,12.35,13.43,13.43,0,0,1-2-.15,13.09,13.09,0,0,1-14.05.13c-.25,0-.51,0-.77,0a13,13,0,0,1-13-13,12.91,12.91,0,0,1,1.15-5.31,12.83,12.83,0,0,1-2.21-7.21,13,13,0,0,1,13.05-13,13.47,13.47,0,0,1,2.56.25,12.88,12.88,0,0,1,7.25-2.21Z" transform="translate(0 -0.76)" style="fill:#3b2906"/><path d="M174.09,2.93c-.24,0-.57,0-.84,0V3c-14.62.17-50.18,3.26-63.26,35.13-6.52-8.66,0,0-21-19.93,0,0-26.38,25.84,9.61,44.2,12.51,116-13,160.56,61,159,4.22-.09,8.85,0,13.64.09h.13l2.18,0v-.09c4.81-.11,9.43-.17,13.65-.08,74,1.59,48.53-43,61-159,36-18.36,9.62-44.21,9.62-44.21-21,20-14.52,11.28-21,19.94C225.3,5.16,187.7,2.92,174.09,2.92Z" transform="translate(0 -0.76)" style="fill:#fbaf5c;stroke:#000;stroke-linecap:round;stroke-linejoin:round;stroke-width:4.32515573501587px"/><path d="M245.77,196.17c0,42.53-31.2,77-69.69,77s-69.68-34.47-69.68-77,31.2-77,69.68-77S245.77,153.64,245.77,196.17Z" transform="translate(0 -0.76)" style="fill:#93939f;stroke:#000;stroke-linecap:round;stroke-linejoin:round;stroke-width:1.84467256069183px"/><path d="M175.05,120.06c37.42,1.33,67.41,35.26,67.41,76.95,0,39.34-26.69,71.75-61.16,76.4,24-6.72,42.23-38.12,42.23-75.86,0-41-21.4-74.46-48.48-77Z" transform="translate(0 -0.76)" style="fill:#7f7f8d"/><path d="M174.86,118.92c-37.42,1.33-67.41,35.26-67.41,77,0,39.34,26.69,71.75,61.16,76.4-24.05-6.72-42.23-38.12-42.23-75.86,0-40.95,21.4-74.46,48.48-77Z" transform="translate(0 -0.76)" style="fill:#c1c1c8"/><path d="M148.84,31.46c-17.28,0-31.31,16.22-31.31,36.21s14,36.21,31.31,36.21c10.15,0,19.16-5.61,24.88-14.29,5.71,8.69,14.74,14.29,24.9,14.29,17.27,0,31.3-16.22,31.3-36.21s-14-36.21-31.3-36.21c-10.16,0-19.19,5.61-24.9,14.29C168,37.07,159,31.46,148.84,31.46Z" transform="translate(0 -0.76)" style="fill:#ff061a;stroke:#000;stroke-linecap:round;stroke-width:4.08280229568481px"/><path d="M171.74,70.12a9.07,9.07,0,1,1-9.07-9.06A9.06,9.06,0,0,1,171.74,70.12Z" transform="translate(0 -0.76)" style="stroke:#000;stroke-linecap:round;stroke-width:1.79499995708466px"/><path d="M161.76,67a2.35,2.35,0,1,1-2.36-2.35A2.36,2.36,0,0,1,161.76,67Z" transform="translate(0 -0.76)" style="fill:#fff"/><path d="M194.69,70.12a9.07,9.07,0,1,1-9.06-9.06A9.06,9.06,0,0,1,194.69,70.12Z" transform="translate(0 -0.76)" style="stroke:#000;stroke-linecap:round;stroke-width:1.79499995708466px"/><path d="M184.7,67a2.35,2.35,0,1,1-2.34-2.35A2.35,2.35,0,0,1,184.7,67Z" transform="translate(0 -0.76)" style="fill:#fff"/><path d="M86.59,27.61S72.94,43.42,96.66,58.42a84.9,84.9,0,0,1,8.83-7.89V47.67c-5.42-3-2.92-6.83-11.77-17.83Z" transform="translate(0 -0.76)" style="stroke:#000;fill:url(#b)"/><path d="M263.59,28.31s13.64,15.82-10.07,30.81a85,85,0,0,0-8.84-7.89V48.37c5.43-2.95,2.92-6.83,11.77-17.83Z" transform="translate(0 -0.76)" style="stroke:#000;fill:url(#c)"/><path d="M166,122.31c37.43,1.33,67.42,35.26,67.42,76.95,0,39.34-26.7,71.76-61.16,76.4,24.05-6.71,42.23-38.12,42.23-75.86,0-41-21.41-74.45-48.49-77Z" transform="translate(0 -0.76)" style="fill:#7f7f8d"/><path d="M174.38,93.08c-11.55,0-21.5,5.7-26.07,13.89-10.53,3.26-17.3,8.36-17.3,14.08a8.27,8.27,0,0,0,1.52,4.58,13.15,13.15,0,0,0-1.1,5.25c0,13.05,20,23.61,44.67,23.61s44.66-10.56,44.66-23.61a13.36,13.36,0,0,0-1.47-6,7.93,7.93,0,0,0,1.05-3.82c0-6.26-8.12-11.77-20.4-14.94C195.18,98.37,185.52,93.08,174.38,93.08Z" transform="translate(0 -0.76)" style="stroke:#000;stroke-width:2px;fill:url(#d)"/><path d="M190.73,101A15.78,15.78,0,1,1,175,85.2,15.77,15.77,0,0,1,190.73,101Z" transform="translate(0 -0.76)"/><rect x="155.81" y="134.2" width="28.9" height="27.24" style="fill:#ff061a;stroke:#000;stroke-linecap:round;stroke-width:4.08280229568481px"/><path d="M138.9,125.75c26,14.5,50.27,12.16,73.23-3.38" transform="translate(0 -0.76)" style="fill:none;stroke:#000;stroke-width:4px"/><path d="M273.22,135.29a17.84,17.84,0,0,0-10.63,3.4,18.25,18.25,0,0,0-7.84-1.75c-9.15,0-16.56,6.59-16.56,14.69a13.11,13.11,0,0,0,.81,4.56,13.69,13.69,0,0,0-4.16,9.69,13.12,13.12,0,0,0,.54,3.66,17,17,0,0,0-4.13,1.78,16.2,16.2,0,0,0-6.16,4.78v0a38.72,38.72,0,0,0-4.37,1.94c-2.62-6.06-7.62-10.46-13.56-11.5a16.14,16.14,0,0,0-21.72-.47,16.19,16.19,0,0,0-9.5-3.16c-9.51,0-17.3,8.54-18.16,19.41a16,16,0,0,0-5.34-.94,17.29,17.29,0,0,0-14,7.63c-.93,0-1.87-.1-2.81-.1a54.42,54.42,0,0,0-8.5.66c-3.16-6.4-9.06-10.72-15.82-10.72-7.67,0-14.23,5.55-16.93,13.41-2.87-7.4-9.21-12.56-16.6-12.56a17.25,17.25,0,0,0-13.9,7.56,15.84,15.84,0,0,0-7.07-1.69c-7.53,0-14,5.36-16.81,13a16.18,16.18,0,0,0-9.19-2.94c-6.77,0-12.69,4.33-15.84,10.75a9.5,9.5,0,0,0-4.31-1.06C4.78,205.35,0,211,0,217.88s4.78,12.53,10.69,12.53a9.57,9.57,0,0,0,5-1.4c.06.11.15.2.22.31A11.2,11.2,0,0,0,24.22,237a15.78,15.78,0,0,0,15.62-1.35c1.29,5.23,5.41,9.06,10.29,9.06a9.13,9.13,0,0,0,2.28-.28,17.25,17.25,0,0,0,14.09.47A9.8,9.8,0,0,0,73.59,248,10.2,10.2,0,0,0,82,243.29c4.4,7.92,16.11,13.74,30.16,14.37,1.84,3.77,5.3,6.32,9.28,6.32a10.28,10.28,0,0,0,8.65-5.19,25,25,0,0,0,3.44,3.06c.83,6,5.24,10.5,10.56,10.5a9.89,9.89,0,0,0,7.44-3.53l.28,0c1.61,4.53,5.42,7.72,9.88,7.72a9.38,9.38,0,0,0,3.65-.75c6.34,4.34,15.52,7.06,25.72,7.06,13.53,0,25.22-4.79,30.91-11.78.77,0,1.55-.09,2.31-.16a17.75,17.75,0,0,0,7,1.47,16.64,16.64,0,0,0,15.31-9.34c.42-.32.81-.63,1.19-1a16.71,16.71,0,0,0,6.94-.25c1.84,3.77,5.31,6.31,9.28,6.31,4.32,0,8-3,9.72-7.31a18.88,18.88,0,0,0,2.84.22,18.16,18.16,0,0,0,8.63-2.16,9.86,9.86,0,0,0,7.31,3.38c4.54,0,8.42-3.33,10-8,.45,0,.89.09,1.34.09a12.78,12.78,0,0,0,3.28-.44,9.65,9.65,0,0,0,6.38,2.47c4.41,0,8.21-3.13,9.84-7.59a17.8,17.8,0,0,0,8.63,2.19,16.78,16.78,0,0,0,14.75-8.22,18.11,18.11,0,0,0,6.22,1.09c9.15,0,16.56-6.75,16.56-15.09a13.73,13.73,0,0,0-.31-2.88,14,14,0,0,0,2-7.18,14.64,14.64,0,0,0-6.47-11.94,14,14,0,0,0,.59-4c0-8.34-7.44-15.1-16.59-15.1a18.63,18.63,0,0,0-2.38.19,12.92,12.92,0,0,0,.5-3.53c0-8.11-7.41-14.69-16.56-14.69l-.78,0c-1.85-3.75-5.32-6.28-9.28-6.28a9.3,9.3,0,0,0-4.35,1.1c-4.1-7-14-12.34-26.12-13.75,0-.27.06-.54.06-.82,0-8.1-7.41-14.65-16.56-14.65ZM314.94,190a14.43,14.43,0,0,0,2.47,3.62c-.92-.12-1.87-.21-2.82-.28a12.68,12.68,0,0,0,.35-3.09Zm-36.56,3c1.22.11,2.48.17,3.75.19a13.08,13.08,0,0,0,.68,2,41.69,41.69,0,0,0-4.56-1.84C278.29,193.19,278.34,193.07,278.38,192.94Z" transform="translate(0 -0.76)" style="fill:url(#e)"/><path d="M273.64,135.39a17.79,17.79,0,0,0-10.62,3.4,18.15,18.15,0,0,0-11.88-1.28,103.57,103.57,0,0,1,8.22,6.94c11.3,1.24,20.06,10.26,20.06,21.22a20.44,20.44,0,0,1-1.18,6.84A49.45,49.45,0,0,1,280.77,188V188A20.71,20.71,0,0,1,288,203.64c0,11.7-10,21.23-22.41,21.4-.38.44-.77.88-1.16,1.31a16.6,16.6,0,0,1,1.5,6.85c0,11.81-12.82,21.37-28.65,21.37a38,38,0,0,1-4.16-.22c-2.43,10.35-16.84,18.29-34.25,18.29A52,52,0,0,1,182.11,270a24.4,24.4,0,0,1-13.47,7.72A48.51,48.51,0,0,0,191.45,283c13.53,0,25.22-4.79,30.91-11.78.78,0,1.55-.09,2.31-.16a17.75,17.75,0,0,0,7,1.47A16.65,16.65,0,0,0,247,263.17c.41-.32.8-.64,1.18-1a16.71,16.71,0,0,0,6.94-.25c1.85,3.77,5.31,6.31,9.28,6.31,4.32,0,8-3,9.72-7.31a19,19,0,0,0,2.85.22,18.09,18.09,0,0,0,8.62-2.16,9.86,9.86,0,0,0,7.31,3.38c4.54,0,8.42-3.33,10-8,.45,0,.89.09,1.35.09a12.84,12.84,0,0,0,3.28-.44,9.6,9.6,0,0,0,6.37,2.47c4.41,0,8.21-3.13,9.85-7.59a17.76,17.76,0,0,0,8.62,2.18,16.78,16.78,0,0,0,14.75-8.21,18.19,18.19,0,0,0,6.22,1.09c9.15,0,16.56-6.76,16.56-15.09a13.73,13.73,0,0,0-.31-2.88,14,14,0,0,0,2-7.19,14.61,14.61,0,0,0-6.47-11.93,14,14,0,0,0,.59-4c0-8.34-7.44-15.1-16.59-15.1a18.33,18.33,0,0,0-2.37.19,13,13,0,0,0,.5-3.53c0-8.11-7.41-14.69-16.57-14.69l-.78,0c-1.85-3.75-5.32-6.28-9.28-6.28a9.37,9.37,0,0,0-4.34,1.09c-4.11-7-14-12.33-26.13-13.75,0-.27.06-.53.06-.81,0-8.1-7.41-14.65-16.56-14.65Zm41.72,54.68a14.57,14.57,0,0,0,2.47,3.63c-.92-.12-1.87-.21-2.81-.28a13.27,13.27,0,0,0,.34-3.1Z" transform="translate(0 -0.76)" style="fill:url(#f)"/><path d="M161.42,249.7a7.5,7.5,0,0,1,4,1.13h.1A7.52,7.52,0,0,1,173,258c0,.13,0,.26,0,.39a7.63,7.63,0,0,1-.65,3.06,7.43,7.43,0,0,1,1.26,4.17c0,.13,0,.26,0,.39a7.52,7.52,0,0,1-7.52,7.13,7.36,7.36,0,0,1-1.16-.09,7.56,7.56,0,0,1-8.11.08h-.45a7.53,7.53,0,0,1-7.53-7.52,7.44,7.44,0,0,1,.67-3.06,7.39,7.39,0,0,1-1.28-4.17,7.53,7.53,0,0,1,7.53-7.52,7.21,7.21,0,0,1,1.48.15,7.43,7.43,0,0,1,4.19-1.28Z" transform="translate(0 -0.76)" style="fill:#734b02;stroke:#000;stroke-width:1.06631171703339px"/><path d="M163.32,252.1a7.5,7.5,0,0,1,4,1.13h.1a7.52,7.52,0,0,1,7.52,7.13c0,.13,0,.26,0,.39a7.63,7.63,0,0,1-.65,3.06A7.43,7.43,0,0,1,175.5,268c0,.13,0,.26,0,.39A7.52,7.52,0,0,1,168,275.5a7.36,7.36,0,0,1-1.16-.09,7.51,7.51,0,0,1-8.11.08h-.45a7.53,7.53,0,0,1-7.53-7.52,7.44,7.44,0,0,1,.67-3.06,7.39,7.39,0,0,1-1.28-4.17,7.53,7.53,0,0,1,7.53-7.52,7.21,7.21,0,0,1,1.48.15,7.43,7.43,0,0,1,4.19-1.28Z" transform="translate(0 -0.76)" style="fill:#3b2906"/><path d="M244.52,249.16a7.5,7.5,0,0,1,3.95,1.13h.1a7.52,7.52,0,0,1,7.52,7.13c0,.13,0,.26,0,.39a7.54,7.54,0,0,1-.65,3.05A7.49,7.49,0,0,1,256.7,265c0,.13,0,.26,0,.39a7.52,7.52,0,0,1-7.52,7.13,7.36,7.36,0,0,1-1.16-.09,7.56,7.56,0,0,1-8.11.08h-.45A7.49,7.49,0,0,1,232.6,262a7.41,7.41,0,0,1-1.28-4.16,7.53,7.53,0,0,1,7.53-7.52,8,8,0,0,1,1.48.14,7.5,7.5,0,0,1,4.19-1.27Z" transform="translate(0 -0.76)" style="fill:#734b02;stroke:#000;stroke-width:1.06631171703339px"/><path d="M246.42,251.56a7.5,7.5,0,0,1,4,1.13h.1a7.52,7.52,0,0,1,7.52,7.13c0,.13,0,.26,0,.39a7.54,7.54,0,0,1-.65,3.05,7.49,7.49,0,0,1,1.26,4.18c0,.13,0,.26,0,.39a7.52,7.52,0,0,1-7.52,7.13,7.36,7.36,0,0,1-1.16-.09,7.56,7.56,0,0,1-8.11.08h-.45a7.49,7.49,0,0,1-6.86-10.59,7.34,7.34,0,0,1-1.28-4.16,7.53,7.53,0,0,1,7.53-7.52,8,8,0,0,1,1.48.14,7.5,7.5,0,0,1,4.19-1.27Z" transform="translate(0 -0.76)" style="fill:#3b2906"/><path d="M353.45,202.57a11.53,11.53,0,0,1,6.1,1.75h.16a11.61,11.61,0,0,1,11.6,11c0,.2,0,.4,0,.6a11.56,11.56,0,0,1-1,4.71,11.56,11.56,0,0,1,1.95,6.44c0,.2,0,.41,0,.6a11.61,11.61,0,0,1-11.6,11,11.82,11.82,0,0,1-1.8-.14,11.66,11.66,0,0,1-12.51.12l-.69,0a11.59,11.59,0,0,1-10.59-16.34,11.41,11.41,0,0,1-2-6.42,11.61,11.61,0,0,1,11.62-11.6,11.45,11.45,0,0,1,2.28.22,11.56,11.56,0,0,1,6.46-2Z" transform="translate(0 -0.76)" style="fill:#734b02;stroke:#000;stroke-width:1.64502823352814px"/><path d="M356.38,206.27a11.53,11.53,0,0,1,6.1,1.75h.16a11.61,11.61,0,0,1,11.6,11c0,.2,0,.4,0,.6a11.65,11.65,0,0,1-1,4.72,11.54,11.54,0,0,1,1.95,6.44c0,.2,0,.4,0,.6a11.61,11.61,0,0,1-11.6,11,11.92,11.92,0,0,1-1.8-.14,11.61,11.61,0,0,1-12.51.12c-.23,0-.45,0-.68,0A11.61,11.61,0,0,1,337,230.78a11.32,11.32,0,0,1,1-4.73,11.45,11.45,0,0,1-2-6.43A11.61,11.61,0,0,1,347.64,208a11.37,11.37,0,0,1,2.28.23,11.49,11.49,0,0,1,6.46-2Z" transform="translate(0 -0.76)" style="fill:#3b2906"/><path d="M303.21,182.1a7.89,7.89,0,0,1,4.19,1.2h.11a8,8,0,0,1,8,7.56c0,.14,0,.27,0,.41a7.94,7.94,0,0,1-.69,3.24,7.93,7.93,0,0,1,1.34,4.43c0,.14,0,.28,0,.41a8,8,0,0,1-8,7.56,8.32,8.32,0,0,1-1.24-.09,8,8,0,0,1-8.6.08h-.47a8,8,0,0,1-8-8,7.84,7.84,0,0,1,.71-3.25,7.9,7.9,0,0,1-1.35-4.42,8,8,0,0,1,8-8,8.12,8.12,0,0,1,1.57.15,7.94,7.94,0,0,1,4.44-1.35Z" transform="translate(0 -0.76)" style="fill:#734b02;stroke:#000;stroke-width:1.13069653511047px"/><path d="M306.9,186.32a8,8,0,0,1,4.19,1.2h.11a8,8,0,0,1,8,7.56c0,.14,0,.28,0,.41a7.94,7.94,0,0,1-.69,3.24,7.93,7.93,0,0,1,1.34,4.43c0,.14,0,.28,0,.41a8,8,0,0,1-8,7.57,8.52,8.52,0,0,1-1.24-.1,8,8,0,0,1-8.6.08l-.47,0a8,8,0,0,1-7.28-11.23,7.85,7.85,0,0,1-1.35-4.42,8,8,0,0,1,8-8,8.12,8.12,0,0,1,1.57.15,7.94,7.94,0,0,1,4.44-1.35Z" transform="translate(0 -0.76)" style="fill:#3b2906;opacity:0.80246913433075;isolation:isolate"/><path d="M31.49,215.61a7.5,7.5,0,0,1,3.95,1.13h.1a7.52,7.52,0,0,1,7.52,7.13c0,.13,0,.26,0,.39a7.54,7.54,0,0,1-.65,3.05,7.49,7.49,0,0,1,1.26,4.18c0,.13,0,.26,0,.39A7.52,7.52,0,0,1,36.15,239a7.36,7.36,0,0,1-1.16-.09,7.56,7.56,0,0,1-8.11.08h-.45a7.49,7.49,0,0,1-6.86-10.59,7.34,7.34,0,0,1-1.28-4.16,7.53,7.53,0,0,1,7.53-7.52,8,8,0,0,1,1.48.14,7.5,7.5,0,0,1,4.19-1.27Z" transform="translate(0 -0.76)" style="fill:#734b02;stroke:#000;stroke-width:1.06631171703339px"/><path d="M33.39,218a7.5,7.5,0,0,1,4,1.13h.1A7.52,7.52,0,0,1,45,226.27c0,.13,0,.26,0,.39a7.47,7.47,0,0,1-.66,3.06,7.36,7.36,0,0,1,1.27,4.17c0,.13,0,.26,0,.39a7.52,7.52,0,0,1-7.52,7.13,7.36,7.36,0,0,1-1.16-.09,7.56,7.56,0,0,1-8.11.08h-.45a7.53,7.53,0,0,1-7.53-7.52,7.44,7.44,0,0,1,.67-3.06,7.39,7.39,0,0,1-1.28-4.17,7.53,7.53,0,0,1,7.53-7.52,7.21,7.21,0,0,1,1.48.15A7.43,7.43,0,0,1,33.39,218Z" transform="translate(0 -0.76)" style="fill:#3b2906"/><path d="M108.65,220.64a7.5,7.5,0,0,1,3.95,1.13h.1a7.52,7.52,0,0,1,7.52,7.13c0,.13,0,.26,0,.39a7.63,7.63,0,0,1-.65,3.06,7.43,7.43,0,0,1,1.26,4.17c0,.13,0,.26,0,.39a7.52,7.52,0,0,1-7.52,7.13,7.36,7.36,0,0,1-1.16-.09A7.51,7.51,0,0,1,104,244h-.45a7.53,7.53,0,0,1-7.53-7.52,7.44,7.44,0,0,1,.67-3.06A7.5,7.5,0,0,1,103,221.77a7.21,7.21,0,0,1,1.48.15,7.43,7.43,0,0,1,4.19-1.28Z" transform="translate(0 -0.76)" style="fill:#734b02;stroke:#000;stroke-width:1.06631171703339px"/><path d="M110.55,223a7.5,7.5,0,0,1,4,1.13h.1a7.52,7.52,0,0,1,7.52,7.13c0,.13,0,.26,0,.39a7.63,7.63,0,0,1-.65,3.06,7.43,7.43,0,0,1,1.26,4.17c0,.13,0,.26,0,.39a7.52,7.52,0,0,1-7.52,7.13,7.36,7.36,0,0,1-1.16-.09,7.51,7.51,0,0,1-8.11.08h-.45A7.53,7.53,0,0,1,98,238.92a7.44,7.44,0,0,1,.67-3.06,7.45,7.45,0,0,1-1.28-4.17,7.53,7.53,0,0,1,7.53-7.52,7.21,7.21,0,0,1,1.48.15,7.43,7.43,0,0,1,4.19-1.28Z" transform="translate(0 -0.76)" style="fill:#3b2906;fill-opacity:0.50697672367096"/><path d="M273,211.3a11.25,11.25,0,0,1,4,.71h.1c4.06,0,7.38,2,7.59,4.48v.24a3.37,3.37,0,0,1-.66,1.92,3.59,3.59,0,0,1,1.27,2.62,1.92,1.92,0,0,1,0,.24c-.2,2.49-3.52,4.47-7.58,4.47-.4,0-.79,0-1.17,0a11.75,11.75,0,0,1-8.18,0h-.45c-4.19,0-7.59-2.11-7.59-4.71a3.32,3.32,0,0,1,.67-1.93,3.56,3.56,0,0,1-1.29-2.61c0-2.6,3.41-4.72,7.6-4.72a12.16,12.16,0,0,1,1.49.1,10.87,10.87,0,0,1,4.22-.81Z" transform="translate(0 -0.76)" style="fill:#734b02;stroke:#000;stroke-width:0.847900450229645px"/><path d="M275,212.81a11.08,11.08,0,0,1,4,.71h.1c4.06,0,7.38,2,7.58,4.47a2.09,2.09,0,0,1,0,.25,3.25,3.25,0,0,1-.66,1.91,3.59,3.59,0,0,1,1.28,2.62V223c-.21,2.49-3.53,4.47-7.58,4.47a11.37,11.37,0,0,1-1.18-.06,11.58,11.58,0,0,1-8.17,0h-.45c-4.19,0-7.59-2.11-7.59-4.72a3.24,3.24,0,0,1,.67-1.92,3.58,3.58,0,0,1-1.29-2.61c0-2.61,3.4-4.72,7.59-4.72a12,12,0,0,1,1.49.09,11.13,11.13,0,0,1,4.22-.8Z" transform="translate(0 -0.76)" style="fill:#3b2906;fill-opacity:0.50697672367096"/><path d="M81.75,181.15a11.34,11.34,0,0,1,4,.71h.1c4,0,7.37,2,7.58,4.48v.24a3.3,3.3,0,0,1-.66,1.92A3.56,3.56,0,0,1,94,191.11a2.08,2.08,0,0,1,0,.25c-.2,2.49-3.52,4.47-7.58,4.47-.4,0-.79,0-1.17-.05a11.2,11.2,0,0,1-4.15.76,11.09,11.09,0,0,1-4-.72h-.45c-4.18,0-7.59-2.11-7.59-4.72a3.31,3.31,0,0,1,.67-1.92,3.57,3.57,0,0,1-1.28-2.61c0-2.61,3.4-4.72,7.59-4.72a12,12,0,0,1,1.49.09,11.1,11.1,0,0,1,4.22-.8Z" transform="translate(0 -0.76)" style="fill:#734b02;stroke:#000;stroke-width:0.847900450229645px"/><path d="M83.66,182.66a11.08,11.08,0,0,1,4,.71h.1c4.06,0,7.38,2,7.58,4.47a2.08,2.08,0,0,1,0,.25,3.25,3.25,0,0,1-.66,1.91A3.59,3.59,0,0,1,96,192.62a1.92,1.92,0,0,1,0,.24c-.2,2.5-3.53,4.48-7.58,4.48a11.51,11.51,0,0,1-1.18-.06,11.58,11.58,0,0,1-8.17.05h-.45c-4.19,0-7.59-2.11-7.59-4.72a3.22,3.22,0,0,1,.67-1.92,3.58,3.58,0,0,1-1.29-2.61c0-2.61,3.41-4.72,7.59-4.72a12,12,0,0,1,1.49.09,11,11,0,0,1,4.22-.8Z" transform="translate(0 -0.76)" style="fill:#3b2906;fill-opacity:0.50697672367096"/><path d="M206.58,197.67a17.13,17.13,0,0,1,6.14,1.1h.16c6.25,0,11.37,3,11.68,6.89,0,.12,0,.25,0,.37a5,5,0,0,1-1,2.95,5.52,5.52,0,0,1,2,4c0,.13,0,.25,0,.38-.32,3.84-5.43,6.89-11.68,6.89a17.83,17.83,0,0,1-1.81-.09,18,18,0,0,1-12.6.08h-.69c-6.45,0-11.7-3.26-11.7-7.27a5,5,0,0,1,1-3,5.53,5.53,0,0,1-2-4c0-4,5.25-7.26,11.7-7.26a17.33,17.33,0,0,1,2.3.14,16.92,16.92,0,0,1,6.5-1.24Z" transform="translate(0 -0.76)" style="fill:#734b02;stroke:#000;stroke-width:1.30639541149139px"/><path d="M209.53,200a17.09,17.09,0,0,1,6.14,1.1h.16c6.25,0,11.37,3,11.68,6.89,0,.12,0,.25,0,.37a5,5,0,0,1-1,3,5.52,5.52,0,0,1,2,4c0,.13,0,.25,0,.38-.31,3.84-5.43,6.89-11.68,6.89a17.83,17.83,0,0,1-1.81-.09,18,18,0,0,1-12.6.08h-.69c-6.45,0-11.7-3.26-11.7-7.27a5,5,0,0,1,1-3,5.53,5.53,0,0,1-2-4c0-4,5.25-7.26,11.7-7.26a17.33,17.33,0,0,1,2.3.14,16.92,16.92,0,0,1,6.5-1.24Z" transform="translate(0 -0.76)" style="fill:#3b2906;fill-opacity:0.50697672367096"/><path d="M88.07,191.05c-9.27,0-16.78-12.15-16.78-27.14s7.51-27.14,16.78-27.14,16.77,12.15,16.77,27.14S97.33,191.05,88.07,191.05Z" transform="translate(0 -0.76)" style="stroke:#000;stroke-linecap:round;stroke-linejoin:round;stroke-width:2px;fill:url(#g)"/><path d="M83.83,170.59a40.12,40.12,0,0,0-8.24,10.58s-13.35-3-17-10.27c0,0,28.88-15,35.66-6.49A32.21,32.21,0,0,0,83.83,170.59Z" transform="translate(0 -0.76)" style="stroke:#000;stroke-width:0.838596999645233px;fill:url(#h)"/><path d="M94.58,164.31a1,1,0,0,1-1.32-.09h0c-1.36-1.7-3.78-2.33-6.94-2.2h0a40.88,40.88,0,0,0-10.64,2.29h0A104.55,104.55,0,0,0,64.13,169h0c-1.91.9-3.4,1.67-4.27,2.12h0c2.85,4.66,10.32,7.53,14,8.61h0c1.28.39,2.07.57,2.07.57h0a.73.73,0,0,1,.54,1h0a1.12,1.12,0,0,1-1.24.63h0c-.06-.06-13.53-2.93-17.51-10.66h0a.89.89,0,0,1,.46-1.15h0a118.28,118.28,0,0,1,17.07-7.47h0a42.92,42.92,0,0,1,11.24-2.41h0c3.46-.16,6.57.55,8.37,2.79h0a.85.85,0,0,1,.13.25h0a.91.91,0,0,1-.41,1Z" transform="translate(0 -0.76)" style="stroke:#000;stroke-width:0.838596999645233px"/><path d="M85.76,145.63a40.33,40.33,0,0,0-12.21,5.54s-10.42-8.85-10.28-17c0,0,32.54.12,34.61,10.8A32.24,32.24,0,0,0,85.76,145.63Z" transform="translate(0 -0.76)" style="stroke:#000;stroke-width:0.838596999645233px;fill:url(#i)"/><path d="M98.2,145.06a1,1,0,0,1-1.13-.69h0c-.41-2.14-2.26-3.82-5.12-5.18h0a41.06,41.06,0,0,0-10.49-2.9h0A107.28,107.28,0,0,0,69,135.11h0c-2.1-.08-3.78-.1-4.77-.1h0c.37,5.46,5.65,11.46,8.41,14.13h0c1,.93,1.57,1.46,1.58,1.46h0a.73.73,0,0,1,0,1.16h0a1.13,1.13,0,0,1-1.39,0h0c0-.08-10.63-8.88-10.57-17.58h0a.91.91,0,0,1,.95-.8h0a119.09,119.09,0,0,1,18.59,1.3h0a43.19,43.19,0,0,1,11.07,3.09h0c3.14,1.47,5.57,3.53,6.12,6.36h0a.66.66,0,0,1,0,.28h0a.93.93,0,0,1-.81.66Z" transform="translate(0 -0.76)" style="stroke:#000;stroke-width:0.838596999645233px"/><path d="M83.89,157.73a40,40,0,0,0-11.61,6.72S61,156.66,60.38,148.56c0,0,32.39-3.07,35.5,7.35A32.4,32.4,0,0,0,83.89,157.73Z" transform="translate(0 -0.76)" style="stroke:#000;stroke-width:0.838596999645233px;fill:url(#j)"/><path d="M96.21,155.94a1,1,0,0,1-1.19-.58h0c-.63-2.09-2.63-3.57-5.61-4.64h0a40.88,40.88,0,0,0-10.72-1.86h0a104.71,104.71,0,0,0-12.48,0h0c-2.11.12-3.78.27-4.76.36h0c.9,5.39,6.75,10.85,9.75,13.23h0c1,.84,1.71,1.31,1.71,1.31h0A.71.71,0,0,1,73,165h0a1.12,1.12,0,0,1-1.38.13h0c0-.08-11.45-7.8-12.24-16.46h0a.89.89,0,0,1,.86-.89h0a120.22,120.22,0,0,1,18.62-.53h0a43.54,43.54,0,0,1,11.33,2h0c3.27,1.15,5.89,3,6.71,5.73h0a.54.54,0,0,1,0,.28h0a.89.89,0,0,1-.73.73Z" transform="translate(0 -0.76)" style="stroke:#000;stroke-width:0.838596999645233px"/><path d="M252.91,173c9.26,0,16.77-12.15,16.77-27.14s-7.51-27.14-16.77-27.14-16.78,12.15-16.78,27.14S243.64,173,252.91,173Z" transform="translate(0 -0.76)" style="stroke:#000;stroke-linecap:round;stroke-linejoin:round;stroke-width:2px;fill:url(#k)"/><path d="M257.15,152.58a40.12,40.12,0,0,1,8.24,10.58s13.34-3,17-10.27c0,0-28.88-15-35.67-6.49A32.31,32.31,0,0,1,257.15,152.58Z" transform="translate(0 -0.76)" style="stroke:#000;stroke-width:0.838596999645233px;fill:url(#l)"/><path d="M246.4,146.3a1,1,0,0,0,1.32-.09h0c1.36-1.7,3.77-2.33,6.94-2.2h0a41.32,41.32,0,0,1,10.63,2.29h0A108.83,108.83,0,0,1,276.85,151h0c1.9.9,3.4,1.67,4.27,2.12h0c-2.85,4.67-10.32,7.53-14,8.61h0c-1.28.39-2.08.57-2.08.57h0a.73.73,0,0,0-.54,1h0a1.13,1.13,0,0,0,1.24.63h0c.06-.06,13.54-2.93,17.52-10.66h0a.9.9,0,0,0-.47-1.15h0a117.28,117.28,0,0,0-17.06-7.47h0a42.9,42.9,0,0,0-11.25-2.41h0c-3.46-.15-6.57.55-8.36,2.79h0a.58.58,0,0,0-.13.26h0a.9.9,0,0,0,.41,1Z" transform="translate(0 -0.76)" style="stroke:#000;stroke-width:0.838596999645233px"/><path d="M255.21,127.62a40.06,40.06,0,0,1,12.21,5.55s10.43-8.86,10.29-17c0,0-32.54.12-34.61,10.8A32.43,32.43,0,0,1,255.21,127.62Z" transform="translate(0 -0.76)" style="stroke:#000;stroke-width:0.838596999645233px;fill:url(#m)"/><path d="M242.78,127.05a1,1,0,0,0,1.13-.69h0c.41-2.14,2.26-3.82,5.12-5.17h0a41.34,41.34,0,0,1,10.49-2.91h0a107.12,107.12,0,0,1,12.42-1.18h0c2.11-.08,3.79-.1,4.77-.1h0c-.36,5.46-5.65,11.46-8.4,14.13h0c-1,.93-1.58,1.46-1.58,1.46h0a.73.73,0,0,0,0,1.16h0a1.11,1.11,0,0,0,1.39,0h0c0-.08,10.63-8.88,10.57-17.57h0a.9.9,0,0,0-.95-.81h0a120.42,120.42,0,0,0-18.58,1.3h0a43.67,43.67,0,0,0-11.08,3.09h0c-3.13,1.47-5.56,3.53-6.11,6.36h0a.66.66,0,0,0,0,.28h0a.91.91,0,0,0,.81.66Z" transform="translate(0 -0.76)" style="stroke:#000;stroke-width:0.838596999645233px"/><path d="M257.09,139.72a40.27,40.27,0,0,1,11.61,6.72s11.24-7.79,11.9-15.89c0,0-32.4-3.07-35.5,7.35A32.4,32.4,0,0,1,257.09,139.72Z" transform="translate(0 -0.76)" style="stroke:#000;stroke-width:0.838596999645233px;fill:url(#n)"/><path d="M244.77,137.93a1,1,0,0,0,1.19-.57h0c.62-2.09,2.62-3.58,5.61-4.65h0a41.14,41.14,0,0,1,10.72-1.86h0a106.87,106.87,0,0,1,12.48.05h0c2.11.12,3.78.27,4.76.36h0c-.9,5.4-6.75,10.85-9.75,13.24h0c-1,.83-1.72,1.3-1.72,1.3h0A.74.74,0,0,0,268,147h0a1.13,1.13,0,0,0,1.39.12h0c0-.08,11.45-7.8,12.24-16.45h0a.92.92,0,0,0-.87-.9h0a119.32,119.32,0,0,0-18.62-.52h0a43.05,43.05,0,0,0-11.32,2h0c-3.27,1.16-5.89,3-6.71,5.73h0a.67.67,0,0,0,0,.28h0a.9.9,0,0,0,.74.73Z" transform="translate(0 -0.76)" style="stroke:#000;stroke-width:0.838596999645233px"/></svg>