<?xml version="1.0"?>
<svg xmlns="http://www.w3.org/2000/svg" viewBox="0 0 904.33 900.74">
<title>scoreboard</title>
<rect y="158.07" width="904.33" height="900.67"/>
<path d="M61.45,133.41a1062.11,1062.11,0,0,1,812.95,0" transform="translate(-15.67 -16.93)" style="fill:none;stroke:#000;stroke-miterlimit:10;stroke-width:10px"/>
<line x1="46.78" y1="112.48" x2="46.78" y2="219.89" style="fill:none;stroke:#000;stroke-miterlimit:10;stroke-width:10px"/>
<line x1="856.74" y1="112.48" x2="856.74" y2="213.41" style="fill:none;stroke:#000;stroke-miterlimit:10;stroke-width:10px"/>
<line x1="45.78" y1="116.48" x2="214.3" y2="285" style="fill:none;stroke:#000;stroke-miterlimit:10;stroke-width:10px"/>
<line x1="857.74" y1="116.48" x2="626.26" y2="347.96" style="fill:none;stroke:#000;stroke-miterlimit:10;stroke-width:10px"/>
<line x1="621.7" y1="243.33" x2="621.7" y2="42.41" style="fill:none;stroke:#000;stroke-miterlimit:10;stroke-width:10px"/>
<line x1="279.11" y1="243.33" x2="279.11" y2="59.07" style="fill:none;stroke:#000;stroke-miterlimit:10;stroke-width:10px"/>
<line x1="180.96" y1="243.33" x2="180.96" y2="68.07" style="fill:none;stroke:#000;stroke-miterlimit:10;stroke-width:10px"/>
<line x1="729.11" y1="232.22" x2="729.11" y2="68.45" style="fill:none;stroke:#000;stroke-miterlimit:10;stroke-width:10px"/>
<line x1="583.22" y1="218.89" x2="731.78" y2="70.33" style="fill:none;stroke:#000;stroke-miterlimit:10;stroke-width:10px"/>
<line x1="279.11" y1="59.07" x2="496.25" y2="276.21" style="fill:none;stroke:#000;stroke-miterlimit:10;stroke-width:10px"/>
<line x1="180.96" y1="68.07" x2="439.97" y2="327.08" style="fill:none;stroke:#000;stroke-miterlimit:10;stroke-width:10px"/>
<line x1="621.7" y1="42.41" x2="375.34" y2="288.77" style="fill:none;stroke:#000;stroke-miterlimit:10;stroke-width:10px"/>
<line x1="279.11" y1="59.07" x2="96.24" y2="241.94" style="fill:none;stroke:#000;stroke-miterlimit:10;stroke-width:10px"/>
<line x1="180.96" y1="68.07" x2="48.43" y2="200.61" style="fill:none;stroke:#000;stroke-miterlimit:10;stroke-width:10px"/>
<line x1="621.7" y1="42.41" x2="803.19" y2="223.89" style="fill:none;stroke:#000;stroke-miterlimit:10;stroke-width:10px"/>
<line x1="731.78" y1="70.33" x2="870.19" y2="208.73" style="fill:none;stroke:#000;stroke-miterlimit:10;stroke-width:10px"/>
<line x1="441.54" y1="259.07" x2="441.54" y2="42.41" style="fill:none;stroke:#000;stroke-miterlimit:10;stroke-width:10px"/>
<line x1="441.54" y1="42.41" x2="233.73" y2="250.21" style="fill:none;stroke:#000;stroke-miterlimit:10;stroke-width:10px"/>
<line x1="441.54" y1="42.41" x2="643.66" y2="244.52" style="fill:none;stroke:#000;stroke-miterlimit:10;stroke-width:10px"/>
<path d="M812.11,149.89a894.29,894.29,0,0,0-684.44,0L102.83,89.94a959.15,959.15,0,0,1,734.11,0Q824.53,119.91,812.11,149.89Z" transform="translate(-15.67 -16.93)" style="fill:#003442"/>
<path d="M362.21,79.37l-3.19.39c-.15-4.69-.22-7-.34-11.73l3.26-.39C362,72.33,362.09,74.68,362.21,79.37Z" transform="translate(-15.67 -16.93)"/>
<path d="M370.27,78.44c0-2.12-.06-3.18-.09-5.3a2.26,2.26,0,0,0-.06-.57.76.76,0,0,0-.16-.35.51.51,0,0,0-.28-.17,1.17,1.17,0,0,0-.38,0,1.71,1.71,0,0,0-.68.25,2.58,2.58,0,0,0-.61.54,3.15,3.15,0,0,0-.48.8,3.61,3.61,0,0,0-.28,1c.05,1.66.08,2.49.13,4.14l-3,.35c-.09-3.33-.13-5-.2-8.34l1.58-.18a1.34,1.34,0,0,1,.77.09.67.67,0,0,1,.36.55l.11.66a4.57,4.57,0,0,1,1.43-1.35,4.37,4.37,0,0,1,1.75-.58,3.4,3.4,0,0,1,1.2.08,2.38,2.38,0,0,1,1,.51,2.42,2.42,0,0,1,.66.92,3.4,3.4,0,0,1,.24,1.33c0,2.12,0,3.19.07,5.31Z" transform="translate(-15.67 -16.93)"/>
<path d="M375.59,76.06s0-.08,0-.14a1.18,1.18,0,0,1,0-.22c0-.1,0-.23,0-.4s0-.38,0-.65V71.24l-.82.08a.49.49,0,0,1-.36-.08.36.36,0,0,1-.15-.35c0-.39,0-.59,0-1l1.51-.41c.22-.84.33-1.26.56-2.1a.63.63,0,0,1,.61-.45l1.67-.17c0,1,0,1.47,0,2.44l2.3-.23c0,.69,0,1,0,1.71l-2.29.23c0,1.31,0,2,0,3.28V75a.42.42,0,0,0,0,.13v0a.64.64,0,0,0,.2.37.55.55,0,0,0,.44.11l.25-.05.17-.09.14-.07a.4.4,0,0,1,.36,0,.71.71,0,0,1,.16.15l.84,1.1a5,5,0,0,1-1.22.67,6.05,6.05,0,0,1-1.37.32,4.27,4.27,0,0,1-1.08,0,2.73,2.73,0,0,1-.86-.3,2,2,0,0,1-.63-.54A1.84,1.84,0,0,1,375.59,76.06Z" transform="translate(-15.67 -16.93)"/>
<path d="M390.23,70.14a2,2,0,0,1-.13,1.06,2.32,2.32,0,0,1-.85.91,7,7,0,0,1-1.76.79,23.46,23.46,0,0,1-2.85.67,1.68,1.68,0,0,0,.63,1.18,1.94,1.94,0,0,0,1.34.27,3.07,3.07,0,0,0,.69-.12,2.61,2.61,0,0,0,.5-.19,4,4,0,0,0,.37-.22l.31-.21a2,2,0,0,1,.32-.18,1.24,1.24,0,0,1,.4-.09.72.72,0,0,1,.29,0,.87.87,0,0,1,.27.14l.88.66a10.05,10.05,0,0,1-.95.84,5.75,5.75,0,0,1-1,.61,5.41,5.41,0,0,1-1.11.41,9.55,9.55,0,0,1-1.32.22,5.22,5.22,0,0,1-1.69-.09,4.18,4.18,0,0,1-1.4-.58,3.35,3.35,0,0,1-1-1,3.56,3.56,0,0,1-.51-1.4,4.36,4.36,0,0,1,0-1.3A4.69,4.69,0,0,1,382,71.3a4.93,4.93,0,0,1,.69-1.1,4.8,4.8,0,0,1,1-.9,5.7,5.7,0,0,1,1.28-.65,6.19,6.19,0,0,1,1.54-.33,4.84,4.84,0,0,1,1.49.05,3.92,3.92,0,0,1,1.14.4,2.53,2.53,0,0,1,.76.63A1.51,1.51,0,0,1,390.23,70.14ZM386.57,70a1.94,1.94,0,0,0-1.26.61,2.81,2.81,0,0,0-.67,1.42c.63-.14,1.13-.27,1.51-.39a4.94,4.94,0,0,0,.88-.37,1,1,0,0,0,.39-.38.66.66,0,0,0,.06-.39.57.57,0,0,0-.25-.38A1,1,0,0,0,386.57,70Z" transform="translate(-15.67 -16.93)"/>
<path d="M391.77,76.29c.06-3.34.1-5,.17-8.35l1.58-.14a1.31,1.31,0,0,1,.77.12.7.7,0,0,1,.34.56l.12.93a5.15,5.15,0,0,1,.68-1,3.27,3.27,0,0,1,.81-.66,2.3,2.3,0,0,1,1.85-.25c-.11.93-.16,1.4-.27,2.33a2.94,2.94,0,0,0-1.08-.09,1.68,1.68,0,0,0-.86.35,2.19,2.19,0,0,0-.65.82,4.83,4.83,0,0,0-.4,1.34c0,1.5-.05,2.25-.08,3.75Z" transform="translate(-15.67 -16.93)"/>
<path d="M404.84,75.21c.07-2.12.1-3.18.18-5.3a2.44,2.44,0,0,0,0-.57.85.85,0,0,0-.14-.36.55.55,0,0,0-.27-.17.93.93,0,0,0-.38,0,1.71,1.71,0,0,0-.69.23,2.57,2.57,0,0,0-.64.52,3.42,3.42,0,0,0-.52.78,3.5,3.5,0,0,0-.33,1c0,1.66,0,2.49-.08,4.14l-3,.25c.09-3.34.13-5,.23-8.35l1.59-.12a1.26,1.26,0,0,1,.76.12.68.68,0,0,1,.34.56l.07.66a4.66,4.66,0,0,1,1.49-1.3,4.5,4.5,0,0,1,1.79-.51,2.93,2.93,0,0,1,1.19.12,2.32,2.32,0,0,1,.94.54,2.36,2.36,0,0,1,.61.94,3.33,3.33,0,0,1,.17,1.34c-.08,2.12-.13,3.18-.21,5.3Z" transform="translate(-15.67 -16.93)"/>
<path d="M418.19,74.29l-1.63.1a1.76,1.76,0,0,1-.48,0,.86.86,0,0,1-.32-.14.61.61,0,0,1-.18-.24,1.27,1.27,0,0,1-.08-.31l-.05-.59a4.66,4.66,0,0,1-1.29,1.19,3.61,3.61,0,0,1-1.65.52,3.23,3.23,0,0,1-1.07-.11,2.69,2.69,0,0,1-1.69-1.36,3.54,3.54,0,0,1-.37-1.31,4.53,4.53,0,0,1,.29-2.16A5,5,0,0,1,410.91,68a6.65,6.65,0,0,1,2-1.35,7.81,7.81,0,0,1,2.73-.63,14.93,14.93,0,0,1,1.5,0,9.77,9.77,0,0,1,1.51.2C418.49,69.43,418.39,71.05,418.19,74.29Zm-4.65-1.54a1.12,1.12,0,0,0,.63-.24,2.66,2.66,0,0,0,.54-.6,4.22,4.22,0,0,0,.43-.85,5.6,5.6,0,0,0,.31-1c.06-.92.09-1.38.14-2.31h-.18a3.54,3.54,0,0,0-1.34.36,3,3,0,0,0-1,.81A3.11,3.11,0,0,0,412.5,70a3.47,3.47,0,0,0-.11,1.33,2.47,2.47,0,0,0,.14.68,1.58,1.58,0,0,0,.26.43.76.76,0,0,0,.34.23A.93.93,0,0,0,413.54,72.75Z" transform="translate(-15.67 -16.93)"/>
<path d="M420.85,72.33s0-.08,0-.13V72c0-.1,0-.23,0-.39s0-.38,0-.65c.09-1.38.14-2.07.23-3.44l-.76,0a.56.56,0,0,1-.39-.1.36.36,0,0,1-.13-.35c0-.37,0-.56.06-.93l1.49-.34c.29-.83.43-1.25.71-2.09a.63.63,0,0,1,.65-.42l1.67-.09c-.07,1-.1,1.47-.18,2.46l6.81-.35c-.27,3.31-.4,5-.66,8.29l-2.93.15c.19-2.66.29-4,.5-6.65l-3.83.21c-.09,1.32-.14,2-.23,3.3,0,.22,0,.39,0,.52s0,.22,0,.29a.52.52,0,0,0,0,.13v0A.58.58,0,0,0,424,72a.52.52,0,0,0,.43.13,1.31,1.31,0,0,0,.25,0,.75.75,0,0,0,.18-.08l.14-.07a.41.41,0,0,1,.16,0,.28.28,0,0,1,.21,0,.41.41,0,0,1,.14.15c.31.46.46.68.76,1.14a4.9,4.9,0,0,1-1.26.61,5.49,5.49,0,0,1-1.39.25,3.69,3.69,0,0,1-1.07-.07,2.63,2.63,0,0,1-.84-.33,2.1,2.1,0,0,1-.58-.57A1.78,1.78,0,0,1,420.85,72.33ZM431.7,63a.92.92,0,0,1-.12.56,1.58,1.58,0,0,1-.38.48,2.33,2.33,0,0,1-.57.34,2.67,2.67,0,0,1-.68.15,2.16,2.16,0,0,1-1.26-.37,2,2,0,0,1-.43-.43,1.21,1.21,0,0,1-.19-.55,1.12,1.12,0,0,1,.11-.57,1.55,1.55,0,0,1,.37-.48,2,2,0,0,1,.55-.34,1.87,1.87,0,0,1,.66-.15,2.07,2.07,0,0,1,.7.08,1.88,1.88,0,0,1,.61.28,1.84,1.84,0,0,1,.44.44A1.14,1.14,0,0,1,431.7,63Z" transform="translate(-15.67 -16.93)"/>
<path d="M436.52,73.45a5.61,5.61,0,0,1-1.61-.16,3.93,3.93,0,0,1-1.34-.62,3.25,3.25,0,0,1-.93-1,3.6,3.6,0,0,1-.41-1.48,4.45,4.45,0,0,1,.31-2,4.73,4.73,0,0,1,1.1-1.65,5.55,5.55,0,0,1,1.7-1.13,5.94,5.94,0,0,1,2.1-.46,5.31,5.31,0,0,1,1.62.16,3.86,3.86,0,0,1,1.34.63,3.12,3.12,0,0,1,.93,1,3.39,3.39,0,0,1,.4,1.49,4.53,4.53,0,0,1-.33,2,5.08,5.08,0,0,1-1.12,1.65A5.48,5.48,0,0,1,438.59,73,5.79,5.79,0,0,1,436.52,73.45Zm.15-1.85a1.58,1.58,0,0,0,.9-.29,2.22,2.22,0,0,0,.65-.71,3.48,3.48,0,0,0,.37-1,5,5,0,0,0,.08-1.24,2.26,2.26,0,0,0-.38-1.28,1.24,1.24,0,0,0-1-.35,1.73,1.73,0,0,0-.91.3,2,2,0,0,0-.64.71,3.14,3.14,0,0,0-.37,1,5,5,0,0,0-.08,1.24,2.17,2.17,0,0,0,.39,1.27A1.18,1.18,0,0,0,436.67,71.6Z" transform="translate(-15.67 -16.93)"/>
<path d="M448.72,72.87c.21-2.12.31-3.18.53-5.29a3.72,3.72,0,0,0,0-.57.73.73,0,0,0-.13-.36.48.48,0,0,0-.25-.19,1.13,1.13,0,0,0-.38,0,1.71,1.71,0,0,0-.7.19,2.6,2.6,0,0,0-.67.5,3.4,3.4,0,0,0-.58.75,4,4,0,0,0-.39,1L445.81,73l-3.05.11c.31-3.33.46-5,.78-8.32l1.59-.06a1.32,1.32,0,0,1,.76.16.65.65,0,0,1,.29.57l0,.67a4.65,4.65,0,0,1,1.57-1.23,4.42,4.42,0,0,1,1.81-.44,3.44,3.44,0,0,1,1.18.17,2.35,2.35,0,0,1,.91.59,2.25,2.25,0,0,1,.54,1,3.41,3.41,0,0,1,.09,1.34c-.23,2.12-.34,3.17-.56,5.29Z" transform="translate(-15.67 -16.93)"/>
<path d="M462.1,72.54l-1.63,0a1.68,1.68,0,0,1-.48,0,.82.82,0,0,1-.31-.16.54.54,0,0,1-.16-.24.81.81,0,0,1-.06-.31l0-.6a4.86,4.86,0,0,1-1.36,1.14,3.61,3.61,0,0,1-1.68.43,3.16,3.16,0,0,1-1.06-.15,2.66,2.66,0,0,1-.93-.52,2.71,2.71,0,0,1-.66-.91,3.29,3.29,0,0,1-.29-1.32,4.56,4.56,0,0,1,.43-2.15,5.18,5.18,0,0,1,1.36-1.81,6.71,6.71,0,0,1,2.14-1.25,8.07,8.07,0,0,1,2.76-.51c.49,0,1,0,1.49,0a9.41,9.41,0,0,1,1.5.26C462.72,67.7,462.51,69.31,462.1,72.54Zm-4.54-1.74a1.2,1.2,0,0,0,.64-.22,2.4,2.4,0,0,0,.58-.57,3.87,3.87,0,0,0,.49-.83,6.39,6.39,0,0,0,.38-1c.11-.92.17-1.38.29-2.3h-.18a3.4,3.4,0,0,0-1.37.3A3.18,3.18,0,0,0,456.7,68a3.67,3.67,0,0,0-.2,1.33,3.06,3.06,0,0,0,.1.68,1.4,1.4,0,0,0,.23.44.73.73,0,0,0,.33.25A1,1,0,0,0,457.56,70.8Z" transform="translate(-15.67 -16.93)"/>
<path d="M464,72.51c.61-4.8.92-7.19,1.55-12l3.06,0c-.65,4.8-1,7.19-1.6,12Z" transform="translate(-15.67 -16.93)"/>
<path d="M479.56,70.37a5.15,5.15,0,0,0,.94-.07,3.48,3.48,0,0,0,.69-.17,2.72,2.72,0,0,0,.48-.22l.36-.23a1.87,1.87,0,0,1,.3-.17.59.59,0,0,1,.29-.07.6.6,0,0,1,.26,0,.49.49,0,0,1,.16.1l1.12,1.1a6.4,6.4,0,0,1-2.23,1.36,8.56,8.56,0,0,1-2.92.46,6.87,6.87,0,0,1-2.4-.38,5.19,5.19,0,0,1-1.77-1.06,4.48,4.48,0,0,1-1.11-1.6,5.33,5.33,0,0,1-.38-2,6.23,6.23,0,0,1,.26-1.9,6.07,6.07,0,0,1,.77-1.65,6.59,6.59,0,0,1,1.21-1.38,7.6,7.6,0,0,1,1.57-1,8.81,8.81,0,0,1,1.87-.66,9.56,9.56,0,0,1,2.09-.22,8.6,8.6,0,0,1,1.5.12,6.4,6.4,0,0,1,1.21.35,5.05,5.05,0,0,1,1,.53,4,4,0,0,1,.74.68l-1.15,1a1.18,1.18,0,0,1-.28.2.8.8,0,0,1-.41.09.62.62,0,0,1-.31-.07,2,2,0,0,1-.29-.15l-.32-.21a2.48,2.48,0,0,0-.43-.2,3.3,3.3,0,0,0-.59-.16,4.7,4.7,0,0,0-.81-.07,4.81,4.81,0,0,0-1.71.31,3.89,3.89,0,0,0-1.37.9,4,4,0,0,0-.91,1.41,4.92,4.92,0,0,0-.32,1.85,3.65,3.65,0,0,0,.23,1.32,2.91,2.91,0,0,0,.61,1,2.51,2.51,0,0,0,.92.61A3.09,3.09,0,0,0,479.56,70.37Z" transform="translate(-15.67 -16.93)"/>
<path d="M485.11,72.4c.75-4.78,1.13-7.17,1.91-12l3.11,0c-.33,1.9-.48,2.85-.8,4.75a4.62,4.62,0,0,1,3.13-1.18,3.13,3.13,0,0,1,1.17.23,2.17,2.17,0,0,1,.88.62,2.2,2.2,0,0,1,.49,1,3.39,3.39,0,0,1,0,1.35c-.36,2.1-.54,3.15-.89,5.25l-3.05,0c.35-2.1.52-3.15.87-5.25a3.14,3.14,0,0,0,0-.57,1,1,0,0,0-.11-.38.52.52,0,0,0-.24-.2.94.94,0,0,0-.39-.07,1.81,1.81,0,0,0-.65.14,2.71,2.71,0,0,0-.65.41,4.2,4.2,0,0,0-.6.65,4.08,4.08,0,0,0-.46.85c-.29,1.76-.43,2.64-.72,4.39Z" transform="translate(-15.67 -16.93)"/>
<path d="M504.46,72.7l-1.63,0a2,2,0,0,1-.48-.07,1,1,0,0,1-.3-.17.68.68,0,0,1-.15-.26,1,1,0,0,1,0-.31l0-.59a5,5,0,0,1-1.43,1.07,3.63,3.63,0,0,1-1.71.37,3.37,3.37,0,0,1-1.05-.2,2.49,2.49,0,0,1-.89-.56,2.6,2.6,0,0,1-.61-.94,3.24,3.24,0,0,1-.2-1.33,4.57,4.57,0,0,1,.56-2.13A5.55,5.55,0,0,1,498,65.8a7.11,7.11,0,0,1,2.22-1.17,8.09,8.09,0,0,1,2.79-.38c.49,0,1,0,1.49.11a9.56,9.56,0,0,1,1.48.33C505.38,67.89,505.07,69.49,504.46,72.7ZM500,70.76a1.12,1.12,0,0,0,.66-.19,2.52,2.52,0,0,0,.61-.54,4.59,4.59,0,0,0,.55-.81,7,7,0,0,0,.44-1l.43-2.28h-.18a3.29,3.29,0,0,0-1.38.24,3.37,3.37,0,0,0-1.09.71,3.3,3.3,0,0,0-.72,1.08,3.57,3.57,0,0,0-.28,1.31,2.29,2.29,0,0,0,.06.68,1.15,1.15,0,0,0,.2.46.82.82,0,0,0,.3.26A1.06,1.06,0,0,0,500,70.76Z" transform="translate(-15.67 -16.93)"/>
<path d="M506.37,72.75c.63-3.3.95-5,1.59-8.25l1.59,0a1.3,1.3,0,0,1,.74.2.64.64,0,0,1,.24.59l0,.49a4.62,4.62,0,0,1,1.42-1,3.73,3.73,0,0,1,1.54-.29,2.22,2.22,0,0,1,1.43.51,2.08,2.08,0,0,1,.67,1.35,4.44,4.44,0,0,1,1.57-1.29,3.83,3.83,0,0,1,1.86-.36,3,3,0,0,1,1.15.25,2,2,0,0,1,.82.64,2.18,2.18,0,0,1,.41,1,3.47,3.47,0,0,1-.07,1.34c-.44,2.09-.65,3.14-1.09,5.23l-3-.12c.42-2.09.64-3.14,1.06-5.23a2.59,2.59,0,0,0,.07-.57.79.79,0,0,0-.07-.37.39.39,0,0,0-.2-.2.79.79,0,0,0-.32-.07,1.24,1.24,0,0,0-.6.11,2,2,0,0,0-.56.36,3.27,3.27,0,0,0-.49.59,4.76,4.76,0,0,0-.41.78L514.8,73l-3-.1c.41-2.1.62-3.14,1-5.24a2.49,2.49,0,0,0,.06-.56.76.76,0,0,0-.07-.37.41.41,0,0,0-.2-.21,1,1,0,0,0-.33-.07,1.43,1.43,0,0,0-.6.12,2.09,2.09,0,0,0-.56.37,3.44,3.44,0,0,0-.49.61,4.59,4.59,0,0,0-.4.8l-.87,4.47Z" transform="translate(-15.67 -16.93)"/>
<path d="M521.5,75.9c.92-4.33,1.39-6.5,2.34-10.83l1.59.08a1.27,1.27,0,0,1,.73.21.67.67,0,0,1,.23.6l-.06.75A5.63,5.63,0,0,1,528,65.58a4,4,0,0,1,1.88-.35,3.51,3.51,0,0,1,1.15.24,2.22,2.22,0,0,1,.86.61,2.42,2.42,0,0,1,.52,1,4,4,0,0,1,.1,1.42,5.1,5.1,0,0,1-.57,2,5.83,5.83,0,0,1-1.23,1.66,5.57,5.57,0,0,1-1.67,1.1,4.37,4.37,0,0,1-1.91.34,3.44,3.44,0,0,1-1.13-.22,3.27,3.27,0,0,1-.86-.49c-.27,1.24-.41,1.86-.68,3.09Zm7-8.86a1.39,1.39,0,0,0-.68.17,2.88,2.88,0,0,0-.71.5,4.89,4.89,0,0,0-.65.76,5.64,5.64,0,0,0-.54,1c-.18.79-.27,1.18-.44,2a2,2,0,0,0,.61.29,3.25,3.25,0,0,0,.66.11,1.75,1.75,0,0,0,1-.24,3,3,0,0,0,.83-.72,4,4,0,0,0,.59-1,4.17,4.17,0,0,0,.27-1.21,1.84,1.84,0,0,0-.2-1.16A.93.93,0,0,0,528.5,67Z" transform="translate(-15.67 -16.93)"/>
<path d="M537.85,65.79c-.78,3.28-1.17,4.92-1.93,8.2l-3-.17c.75-3.28,1.13-4.92,1.9-8.2Zm.77-2.23a1.13,1.13,0,0,1-.21.55,1.73,1.73,0,0,1-.46.43,2,2,0,0,1-.62.27,2,2,0,0,1-1.34-.07,1.86,1.86,0,0,1-.54-.35,1.64,1.64,0,0,1-.36-.47,1.1,1.1,0,0,1-.1-.56,1.17,1.17,0,0,1,.19-.55,1.71,1.71,0,0,1,.45-.44,2.09,2.09,0,0,1,.6-.29,2.19,2.19,0,0,1,.68-.08,2.25,2.25,0,0,1,.68.16,1.7,1.7,0,0,1,.55.34,1.59,1.59,0,0,1,.37.49A1,1,0,0,1,538.62,63.56Z" transform="translate(-15.67 -16.93)"/>
<path d="M542,74.48a5.61,5.61,0,0,1-1.58-.33,3.92,3.92,0,0,1-1.22-.75,3,3,0,0,1-.76-1.15,3.35,3.35,0,0,1-.18-1.51,4.48,4.48,0,0,1,.63-2,5.17,5.17,0,0,1,1.35-1.52,5.75,5.75,0,0,1,1.87-.93,6,6,0,0,1,2.15-.24,5.28,5.28,0,0,1,1.59.33,3.66,3.66,0,0,1,1.22.76,3.08,3.08,0,0,1,.76,1.15,3.4,3.4,0,0,1,.17,1.52,4.61,4.61,0,0,1-.66,2A5.45,5.45,0,0,1,546,73.3a5.8,5.8,0,0,1-1.86.93A6,6,0,0,1,542,74.48Zm.44-1.82a1.66,1.66,0,0,0,.94-.19,2.37,2.37,0,0,0,.75-.64,3.81,3.81,0,0,0,.53-1,4.82,4.82,0,0,0,.27-1.22,2.14,2.14,0,0,0-.17-1.31,1.16,1.16,0,0,0-.95-.45,1.81,1.81,0,0,0-1,.19,2.51,2.51,0,0,0-.75.64,3.71,3.71,0,0,0-.53,1,5.29,5.29,0,0,0-.26,1.22,2.05,2.05,0,0,0,.18,1.3A1.11,1.11,0,0,0,542.45,72.66Z" transform="translate(-15.67 -16.93)"/>
<path d="M554.2,75.2c.54-2.08.81-3.12,1.36-5.19a2.9,2.9,0,0,0,.1-.56.76.76,0,0,0-.07-.37.43.43,0,0,0-.22-.22,1,1,0,0,0-.37-.09,1.76,1.76,0,0,0-.72.12,2.55,2.55,0,0,0-.75.42,3.75,3.75,0,0,0-.69.69,4.37,4.37,0,0,0-.54.92l-1,4.06-3-.21c.83-3.27,1.24-4.91,2.08-8.17l1.59.11a1.25,1.25,0,0,1,.72.23.63.63,0,0,1,.21.61l-.07.66a5,5,0,0,1,1.75-1.06,4.79,4.79,0,0,1,1.87-.23,3.19,3.19,0,0,1,1.14.29,2.08,2.08,0,0,1,.81.68,2.2,2.2,0,0,1,.39,1,3.4,3.4,0,0,1-.13,1.34c-.56,2.07-.83,3.11-1.38,5.18Z" transform="translate(-15.67 -16.93)"/>
<path d="M566.88,69.65a1.29,1.29,0,0,1-.29.19.64.64,0,0,1-.32,0,1,1,0,0,1-.38-.1l-.4-.2-.48-.21a2.81,2.81,0,0,0-.64-.12,1.69,1.69,0,0,0-1,.13.67.67,0,0,0-.36.52.42.42,0,0,0,.12.37,1.4,1.4,0,0,0,.39.31,3.9,3.9,0,0,0,.58.27l.67.28c.23.11.45.22.66.34a2.76,2.76,0,0,1,.56.45,1.8,1.8,0,0,1,.35.58,1.74,1.74,0,0,1,.07.77,2.61,2.61,0,0,1-.46,1.15,3.07,3.07,0,0,1-1,.88,4.86,4.86,0,0,1-1.45.54,6.94,6.94,0,0,1-1.85.09,6,6,0,0,1-.94-.16,6.67,6.67,0,0,1-.86-.29,4.06,4.06,0,0,1-.72-.38,2.33,2.33,0,0,1-.51-.45l.85-.85a1.15,1.15,0,0,1,.35-.22,1.09,1.09,0,0,1,.46-.06,1,1,0,0,1,.41.13l.36.24a2.79,2.79,0,0,0,.46.25,2.48,2.48,0,0,0,.74.16,1.69,1.69,0,0,0,1-.16.69.69,0,0,0,.38-.52.54.54,0,0,0-.11-.42,1.37,1.37,0,0,0-.39-.31,4.55,4.55,0,0,0-.58-.26l-.66-.26a6.67,6.67,0,0,1-.66-.31,2.35,2.35,0,0,1-.55-.42,1.64,1.64,0,0,1-.37-.59,1.84,1.84,0,0,1-.07-.8,2.68,2.68,0,0,1,.4-1.09,2.94,2.94,0,0,1,.9-.89,4.38,4.38,0,0,1,1.37-.57,6,6,0,0,1,1.84-.1,5.53,5.53,0,0,1,1.8.44,4.38,4.38,0,0,1,1.24.82Z" transform="translate(-15.67 -16.93)"/>
<path d="M567.1,76.26c1.34-4.7,2-7,3.37-11.73l3.09.28c-.55,1.87-.83,2.8-1.38,4.66a5.39,5.39,0,0,1,1.61-.77,4.66,4.66,0,0,1,1.66-.14,3.09,3.09,0,0,1,1.14.32,2.08,2.08,0,0,1,1.16,1.72,3.29,3.29,0,0,1-.17,1.34l-1.52,5.15-3-.29,1.5-5.16a2.88,2.88,0,0,0,.11-.56.74.74,0,0,0-.06-.38.45.45,0,0,0-.22-.23.91.91,0,0,0-.37-.09,1.71,1.71,0,0,0-.66.08,2.8,2.8,0,0,0-.71.36,4,4,0,0,0-.67.59,3.93,3.93,0,0,0-.57.81l-1.25,4.31Z" transform="translate(-15.67 -16.93)"/>
<path d="M583.44,69.49c-1,3.24-1.49,4.86-2.48,8.09l-3-.3c1-3.24,1.46-4.86,2.45-8.1Zm.93-2.19a1,1,0,0,1-.25.53,1.74,1.74,0,0,1-.48.41,2.25,2.25,0,0,1-.64.25,2.05,2.05,0,0,1-.7,0,1.75,1.75,0,0,1-.64-.18,2.18,2.18,0,0,1-.52-.36,1.47,1.47,0,0,1-.32-.5,1.07,1.07,0,0,1-.06-.56,1,1,0,0,1,.23-.54,1.47,1.47,0,0,1,.47-.42,2.14,2.14,0,0,1,.62-.26,1.94,1.94,0,0,1,.68,0,2,2,0,0,1,1.21.55,1.81,1.81,0,0,1,.33.5A1.05,1.05,0,0,1,584.37,67.3Z" transform="translate(-15.67 -16.93)"/>
<path d="M582.15,80.36c1.32-4.27,2-6.4,3.32-10.66l1.58.17a1.33,1.33,0,0,1,.72.26.65.65,0,0,1,.17.61l-.12.75a5.92,5.92,0,0,1,1.75-1,4.29,4.29,0,0,1,1.91-.23,3.54,3.54,0,0,1,1.13.31,2.19,2.19,0,0,1,.81.66,2.38,2.38,0,0,1,.42,1,4.07,4.07,0,0,1,0,1.43,5.72,5.72,0,0,1-.76,2,6.36,6.36,0,0,1-1.38,1.58,5.74,5.74,0,0,1-1.77,1,4.46,4.46,0,0,1-1.94.22,3.46,3.46,0,0,1-1.11-.29,3.37,3.37,0,0,1-.81-.54c-.38,1.22-.58,1.82-1,3ZM590,72a1.27,1.27,0,0,0-.69.12,3,3,0,0,0-.75.45,5.59,5.59,0,0,0-.73.73,5.21,5.21,0,0,0-.62.91l-.63,2a2,2,0,0,0,.59.33,2.75,2.75,0,0,0,.65.15,1.82,1.82,0,0,0,1-.18,2.83,2.83,0,0,0,.89-.66,3.75,3.75,0,0,0,.68-1,4.26,4.26,0,0,0,.39-1.19,1.84,1.84,0,0,0-.1-1.17A.85.85,0,0,0,590,72Z" transform="translate(-15.67 -16.93)"/>
<path d="M601.78,73.34a1.33,1.33,0,0,1-.29.17.7.7,0,0,1-.33,0,1,1,0,0,1-.37-.11l-.39-.22a3,3,0,0,0-.47-.22,2.65,2.65,0,0,0-.63-.15,1.88,1.88,0,0,0-1,.09.71.71,0,0,0-.39.51.47.47,0,0,0,.1.38,1.37,1.37,0,0,0,.38.32,3.77,3.77,0,0,0,.57.29l.65.31c.22.11.43.23.64.36a2.41,2.41,0,0,1,.53.46,1.77,1.77,0,0,1,.33.6,1.64,1.64,0,0,1,0,.77,2.59,2.59,0,0,1-.52,1.13,3.24,3.24,0,0,1-1,.85,4.66,4.66,0,0,1-1.49.48,6.3,6.3,0,0,1-1.85,0,7,7,0,0,1-.93-.19,6,6,0,0,1-.85-.32,4.29,4.29,0,0,1-.7-.41,2.44,2.44,0,0,1-.49-.46l.9-.82a1,1,0,0,1,.36-.21,1,1,0,0,1,.46,0,1,1,0,0,1,.41.14l.34.25a4.45,4.45,0,0,0,.45.27,2.67,2.67,0,0,0,.73.18,1.69,1.69,0,0,0,1-.12.73.73,0,0,0,.41-.51.51.51,0,0,0-.09-.42,1.26,1.26,0,0,0-.38-.33,4.19,4.19,0,0,0-.56-.27l-.65-.29a5.62,5.62,0,0,1-.64-.34,2.22,2.22,0,0,1-.53-.43,1.62,1.62,0,0,1-.34-.6,1.63,1.63,0,0,1,0-.8,2.55,2.55,0,0,1,.45-1.08,3.12,3.12,0,0,1,.94-.86,4.44,4.44,0,0,1,1.41-.52,5.89,5.89,0,0,1,1.84,0,5.16,5.16,0,0,1,1.78.51,4.39,4.39,0,0,1,1.2.85Z" transform="translate(-15.67 -16.93)"/>
<path d="M303.11,48.68,302,47.38A4.05,4.05,0,0,0,299.75,46c-1.42-.29-2.23-.83-2.44-1.62-.45-1.74,2.77-3.24,9.69-4.39a36.49,36.49,0,0,1,8.05-.64,3.64,3.64,0,0,1,1.64.48,1.59,1.59,0,0,1,.81,1,1,1,0,0,1-.08.82A10.79,10.79,0,0,1,316.25,43a1.08,1.08,0,0,0-.46,1,6.34,6.34,0,0,0,1.57,2.22c.85.9,1.27,1.36,2.11,2.26a17.05,17.05,0,0,0,2,1.93,1.42,1.42,0,0,0,1.1.31,1.21,1.21,0,0,0,.93-.69,10,10,0,0,0,.66-2.27l.65-3.06a5.33,5.33,0,0,0,.13-1.93c-.12-.55-.58-.85-1.38-.92q-2.39-.21-2.7-1.62c-.19-.83.26-1.5,1.36-2a21.34,21.34,0,0,1,5.68-1.39,15,15,0,0,1,4.2-.13c1.43.22,2.25.78,2.44,1.69a1.46,1.46,0,0,1-.16,1.07,6.23,6.23,0,0,1-1.23,1.36,3.83,3.83,0,0,0-.9,1.17,14.54,14.54,0,0,0-.74,2.37c-1.06,4.09-1.58,6.14-2.6,10.23-1.33,4.79-2.11,7.65-2.39,8.57a18.45,18.45,0,0,1-.94,2.5,3,3,0,0,1-1,1.23,4.68,4.68,0,0,1-1.8.59,5.33,5.33,0,0,1-2.63-.14,4.7,4.7,0,0,1-2-1.5c-3-3.52-4.49-5.27-7.53-8.77a5.08,5.08,0,0,0-.88-.89A.83.83,0,0,0,309,56a1.08,1.08,0,0,0-.82.67,20,20,0,0,0-.84,2.89c-.74,3-1.1,4.51-1.8,7.52a6.33,6.33,0,0,1-1.24,2.8A4.67,4.67,0,0,1,301.78,71a5.06,5.06,0,0,1-2.73-.15A6.22,6.22,0,0,1,296.74,69c-5.9-7-8.91-10.42-15-17.31a8.15,8.15,0,0,0-1.24-1.22,6.17,6.17,0,0,0-1.63-.43A2.14,2.14,0,0,1,277,48.5c-.56-1.91,2.3-3.5,8.58-4.68a32.78,32.78,0,0,1,7.11-.77c1.47.08,2.35.64,2.61,1.64a1.64,1.64,0,0,1,.08.71,6.58,6.58,0,0,1-.53,1.08,1.41,1.41,0,0,0-.07,1c.18.68,1.16,2,2.91,3.92l1.61,1.76a12.05,12.05,0,0,0,1.3,1.32.86.86,0,0,0,.71.14c.69-.12,1.2-1,1.54-2.63l.5-2.52a.9.9,0,0,0,0-.41A1.1,1.1,0,0,0,303.11,48.68Z" transform="translate(-15.67 -16.93)"/>
<path d="M350.08,35.26c.49,3.47.74,5.21,1.23,8.68.16,1,.66,1.5,1.52,1.4A1.62,1.62,0,0,0,354,44.5a8.33,8.33,0,0,1,6.45-3.73A11,11,0,0,1,367.56,42,5.33,5.33,0,0,1,369.49,44a11.26,11.26,0,0,1,1.07,3.45c.57,3,.85,4.46,1.41,7.44a2.88,2.88,0,0,0,.55,1.39,5.33,5.33,0,0,0,1.59,1,1.47,1.47,0,0,1,.94,1.06c.22,1.49-2.51,2.52-8.19,3.16-5.05.56-7.7.18-7.95-1.21a.91.91,0,0,1,0-.56,11.64,11.64,0,0,1,.74-1.1q.9-1.26.12-5.81a9.59,9.59,0,0,0-1.36-3.92A3.46,3.46,0,0,0,355,47.5a2.81,2.81,0,0,0-2.24,1.2,3.91,3.91,0,0,0-.1,2.55l.73,4a21.15,21.15,0,0,0,.86,3,5.67,5.67,0,0,0,1.45,1.15,1.42,1.42,0,0,1,.68,1c.28,1.55-2.14,2.63-7.25,3.3-6,.78-9.13.4-9.46-1.2a1.15,1.15,0,0,1,.11-.9A6.79,6.79,0,0,1,341,60.37c.58-.45.84-1.52.77-3.18a61,61,0,0,0-1.24-8.13A40.72,40.72,0,0,0,339,43a2,2,0,0,0-.58-.89,3.61,3.61,0,0,0-1.19-.46q-1.8-.42-2-1.29a1.78,1.78,0,0,1,.93-1.84,21.81,21.81,0,0,1,4.6-2,38.6,38.6,0,0,1,7.6-2C349.42,34.28,350,34.56,350.08,35.26Z" transform="translate(-15.67 -16.93)"/>
<path d="M389.18,37.85A16.25,16.25,0,0,1,397.37,39a6.3,6.3,0,0,1,2.67,2,7.5,7.5,0,0,1,1.07,3.41l.3,3.1a9.68,9.68,0,0,0,1,4.13,1.67,1.67,0,0,0,.62.54,4.67,4.67,0,0,0,1.14.15.85.85,0,0,1,.94.81,3,3,0,0,1-.79,2.15,7.83,7.83,0,0,1-2.42,2,9.45,9.45,0,0,1-4,1.24,6.4,6.4,0,0,1-4.54-1.13,1.6,1.6,0,0,0-1.1-.45,2.79,2.79,0,0,0-1.32.64,11.56,11.56,0,0,1-5.75,2.05,12,12,0,0,1-5.72-.63A6.63,6.63,0,0,1,377,57.29a4.91,4.91,0,0,1-1.2-2.49,4.51,4.51,0,0,1,1.65-4c2.06-2,5.43-3.19,10.06-3.61a4.71,4.71,0,0,0,1.92-.42c.25-.18.33-.56.26-1.14a6.77,6.77,0,0,0-1-3.13,2.2,2.2,0,0,0-2.07-.82,2.69,2.69,0,0,0-1.39.51,7.64,7.64,0,0,0-1.38,1.51,6.48,6.48,0,0,1-4.61,3.1,3.62,3.62,0,0,1-2.22-.39A2,2,0,0,1,376,44.88a2.71,2.71,0,0,1,.74-2.09,8.47,8.47,0,0,1,2.55-2A25.53,25.53,0,0,1,389.18,37.85ZM388.94,50A2.86,2.86,0,0,0,387,51a2.2,2.2,0,0,0-.62,1.86,2.31,2.31,0,0,0,.83,1.55,2.25,2.25,0,0,0,1.69.47c1.4-.13,2-1.12,1.75-3a2.8,2.8,0,0,0-.51-1.51A1.51,1.51,0,0,0,388.94,50Z" transform="translate(-15.67 -16.93)"/>
<path d="M420.57,35.63a18.43,18.43,0,0,1,8.64,1.4c2.41,1.07,3.67,2.49,3.78,4.24a3.37,3.37,0,0,1-1.41,3,6,6,0,0,1-3.53,1.23,4.38,4.38,0,0,1-3.44-1.07,9.4,9.4,0,0,1-1.17-2,2.81,2.81,0,0,0-2.91-1.59,3.28,3.28,0,0,0-2.4,1.14,3.22,3.22,0,0,0-.79,2.52A5.94,5.94,0,0,0,420,48.83a7.23,7.23,0,0,0,4.8,1.3,11.22,11.22,0,0,0,2.22-.29,16.34,16.34,0,0,0,2.31-.84,2.09,2.09,0,0,1,.81-.18,2.27,2.27,0,0,1,1.64.59,2.15,2.15,0,0,1,.8,1.53,2.93,2.93,0,0,1-.84,2,8.81,8.81,0,0,1-2.43,1.93A18.32,18.32,0,0,1,421.38,57a17.22,17.22,0,0,1-9.46-1.92c-3.46-1.89-5.41-4.45-5.76-7.71s.95-5.83,3.85-8.09A18.45,18.45,0,0,1,420.57,35.63Z" transform="translate(-15.67 -16.93)"/>
<path d="M449.41,27.72c0,2.61,0,3.92,0,6.53q0,1,.09,2.88a20.69,20.69,0,0,0,.19,2.48,1,1,0,0,0,1.17.82,6.38,6.38,0,0,0,2.44-.87c1.09-.56,1.64-1,1.63-1.24s-.21-.42-.62-.82a1.26,1.26,0,0,1-.47-.82c-.05-1.5,2.33-2.32,7.14-2.41a23.43,23.43,0,0,1,5.92.5,3.09,3.09,0,0,1,1.45.78,1.68,1.68,0,0,1,.59,1.2c0,.63-.37,1.07-1.14,1.33-.16.05-.68.15-1.56.29a10,10,0,0,0-3,1.18c-1.24.66-1.86,1.14-1.85,1.44a15,15,0,0,0,2.33,2.7c1.55,1.61,3,3,4.29,4.21a18.26,18.26,0,0,0,2,1.65,12.39,12.39,0,0,0,2,1c1.28.53,1.92,1.15,1.93,1.84a1.91,1.91,0,0,1-1.19,1.74,7.14,7.14,0,0,1-3.27.65c-3.42,0-5.12.06-8.54.12a3.43,3.43,0,0,1-2.53-.89c-1.8-1.74-2.71-2.6-4.54-4.34-1.21-1.13-2-1.81-2.22-2a1.12,1.12,0,0,0-.67-.31c-.21,0-.35.13-.41.39a6.21,6.21,0,0,0,0,1.42,2.66,2.66,0,0,0,.32,1.36,4,4,0,0,0,1.26,1,1.46,1.46,0,0,1,.74,1.28c0,1-.59,1.69-1.87,2.16a23.09,23.09,0,0,1-6.39.85,41,41,0,0,1-6.86-.1,3.11,3.11,0,0,1-1.58-.78,1.92,1.92,0,0,1-.72-1.32c0-.52.31-1,1-1.42a5.74,5.74,0,0,0,1.17-.78,1.61,1.61,0,0,0,.38-.81,47,47,0,0,0,.05-9c-.11-1.83-.16-2.74-.27-4.57a8.94,8.94,0,0,0-.49-3,1.78,1.78,0,0,0-1.58-.71c-1.5-.09-2.27-.53-2.32-1.32a1.71,1.71,0,0,1,.88-1.47,12.32,12.32,0,0,1,3.15-1.4,41.54,41.54,0,0,1,10.52-2.39C448.9,26.71,449.41,27,449.41,27.72Z" transform="translate(-15.67 -16.93)"/>
<path d="M477.71,39.85a14.19,14.19,0,0,1,1.42.06c2.17.18,3.83.27,5,.28a24.79,24.79,0,0,0,2.53-.09c.6-.07,1-.1,1.21-.1.56,0,.83.33.82,1a6.85,6.85,0,0,1-.53,2.29,13.81,13.81,0,0,1-1.34,2.66,6,6,0,0,1-1.1,1.33,1.6,1.6,0,0,1-1,.35,10.57,10.57,0,0,1-1.31-.11,40.14,40.14,0,0,0-5.46-.32c-.87,0-1.67,0-2.39.09s-1,.07-1.33.07c-.73,0-1.1-.33-1.1-1a7,7,0,0,1,.6-2.25,12.13,12.13,0,0,1,1.2-2.45,5.15,5.15,0,0,1,1.3-1.38A2.85,2.85,0,0,1,477.71,39.85Z" transform="translate(-15.67 -16.93)"/>
<path d="M524.25,41.29c1.81,3.46,2.71,5.19,4.48,8.66a5.83,5.83,0,0,0,1.08,1.59,2.94,2.94,0,0,0,1.42.56c1.25.22,1.85.76,1.79,1.62s-.91,1.7-2.49,2.07a31.93,31.93,0,0,1-7.62.31,76.08,76.08,0,0,1-8.79-.73,4.48,4.48,0,0,1-2.06-.83,1.65,1.65,0,0,1-.71-1.41,1.23,1.23,0,0,1,.45-1,4.53,4.53,0,0,1,1.55-.59c.84-.19,1.28-.55,1.3-1.08.05-.93-.64-1.51-2.07-1.72a61.28,61.28,0,0,0-6.5-.44,14.35,14.35,0,0,0-4.24.24,1.88,1.88,0,0,0-.76.73,2,2,0,0,0-.35,1,.67.67,0,0,0,.2.6,8.2,8.2,0,0,0,1.46.48c1.05.28,1.59.79,1.56,1.54-.06,1.65-2.59,2.41-7.59,2.33a31.1,31.1,0,0,1-6.26-.55c-1.22-.29-1.83-.94-1.82-1.93a1.27,1.27,0,0,1,.43-1,4,4,0,0,1,1.47-.63,6.1,6.1,0,0,0,2.64-1.32,20.74,20.74,0,0,0,2.62-3.66c1.56-2.56,2.35-3.84,3.94-6.38a48.86,48.86,0,0,0,3-5.26,9.37,9.37,0,0,0,.86-3.43,8.61,8.61,0,0,1,.37-2.49,3.29,3.29,0,0,1,1.21-1.34A7.76,7.76,0,0,1,509.68,26a9.41,9.41,0,0,1,5.22,1.81C517.15,29.37,520.34,33.86,524.25,41.29Zm-18.8,2,5.24.14q1.45,0,1.47-.45c0-.46-.59-1.61-1.86-3.44A10.89,10.89,0,0,0,509,37.84a1.52,1.52,0,0,0-1-.45c-.65,0-1.21.44-1.67,1.36-.08.12-.36.61-.84,1.46a10.23,10.23,0,0,0-1.22,2.52C504.22,43.07,504.62,43.26,505.45,43.28Z" transform="translate(-15.67 -16.93)"/>
<path d="M539,41.54a12.49,12.49,0,0,1,1.42.15c2.15.3,3.8.5,4.94.57a24.5,24.5,0,0,0,2.54.06,11.65,11.65,0,0,1,1.22,0c.55,0,.79.38.73,1a7.35,7.35,0,0,1-.74,2.25,13.5,13.5,0,0,1-1.57,2.57,5.89,5.89,0,0,1-1.2,1.26,1.6,1.6,0,0,1-1.06.29,10.81,10.81,0,0,1-1.29-.18,40,40,0,0,0-5.42-.64c-.87,0-1.67-.07-2.4,0s-1,0-1.33,0c-.73,0-1.07-.4-1-1.06a7.73,7.73,0,0,1,.81-2.22A12.59,12.59,0,0,1,536,43.15a5.5,5.5,0,0,1,1.41-1.3A2.85,2.85,0,0,1,539,41.54Z" transform="translate(-15.67 -16.93)"/>
<path d="M576.66,50.69c-1.59,2.11-2.38,3.16-3.95,5.28a10.47,10.47,0,0,1-1.57,1.78,1.66,1.66,0,0,1-1.17.39,1.47,1.47,0,0,1-1-.49,12.68,12.68,0,0,1-1.09-1.94c-.56-1.11-1-2.1-1.37-3-1.09-2.59-1.64-3.88-2.75-6.46-.37-.9-.83-1.37-1.37-1.41s-.92.3-1.06,1c-.32,1.62-.56,3.12-.72,4.51a10,10,0,0,0-.08,3,1.34,1.34,0,0,0,.41.7,11,11,0,0,0,1.56.88,1.21,1.21,0,0,1,.72,1.3c-.19,1.55-2.79,2.11-7.81,1.73-4.24-.32-6.28-1.21-6.12-2.72a1,1,0,0,1,.41-.82,8.27,8.27,0,0,1,1.78-.66,2.17,2.17,0,0,0,1.27-.77,7.24,7.24,0,0,0,.74-2.06q.4-1.65,1-5.42c.41-2.52.72-4.68.91-6.48a10.54,10.54,0,0,0-.18-4.64,2,2,0,0,0-.49-.67,6.9,6.9,0,0,0-1.13-.62c-1.24-.56-1.82-1.22-1.74-2a1.8,1.8,0,0,1,.86-1.28,4.6,4.6,0,0,1,2-.71,29.61,29.61,0,0,1,3.27-.24q2,0,3.42.06a19.07,19.07,0,0,1,4.9.84,2.66,2.66,0,0,1,1.05.65,7.81,7.81,0,0,1,1,1.55c1.87,3.37,2.79,5.06,4.6,8.44a11.19,11.19,0,0,0,1.05,1.71,1.48,1.48,0,0,0,.93.38,1.6,1.6,0,0,0,1-.23,5.35,5.35,0,0,0,1.14-1.06c1.83-2.14,2.76-3.21,4.62-5.34l1.13-1.34a8.32,8.32,0,0,1,3-2.49c1.2-.47,3.27-.57,6.19-.26,5.15.55,7.57,1.75,7.27,3.52a1.58,1.58,0,0,1-.46.93,5.33,5.33,0,0,1-1.37.74,3.43,3.43,0,0,0-1.92,1.91,33.86,33.86,0,0,0-1.76,6.88,60.48,60.48,0,0,0-.88,9.31,2.56,2.56,0,0,0,.27,1.38,7,7,0,0,0,1.52,1.24,1.42,1.42,0,0,1,.72,1.43c-.16,1-1.09,1.56-2.78,1.77a15.09,15.09,0,0,1-2.71.15c-.94,0-2.37-.16-4.28-.36a32.42,32.42,0,0,1-6.53-1.17c-1.55-.53-2.26-1.24-2.14-2.14a1.19,1.19,0,0,1,.44-.79,13.19,13.19,0,0,1,1.8-1,2.6,2.6,0,0,0,1.18-1.58,25.08,25.08,0,0,0,.87-4.2,7.63,7.63,0,0,0,.12-2.2.76.76,0,0,0-.76-.6,2.05,2.05,0,0,0-1.56.66A24.09,24.09,0,0,0,576.66,50.69Z" transform="translate(-15.67 -16.93)"/>
<path d="M617.07,43a17.08,17.08,0,0,1,8.21,3.13,10.9,10.9,0,0,1,3.47,4.25,8.07,8.07,0,0,1,.59,5.13c-.65,3-3,5.24-6.86,6.83a23.21,23.21,0,0,1-12,1.43q-6.22-.81-9.59-4.07a8.06,8.06,0,0,1-2.56-7.55c.56-3.25,2.59-5.73,6.09-7.41A21.87,21.87,0,0,1,617.07,43ZM614,47.49a2.73,2.73,0,0,0-2,.42,2.54,2.54,0,0,0-1,1.69,13.6,13.6,0,0,0,0,3.45,21.51,21.51,0,0,0,.69,4,2.59,2.59,0,0,0,2.33,2,2.24,2.24,0,0,0,2.8-2,15.47,15.47,0,0,0,.19-4,13.09,13.09,0,0,0-.74-3.78A2.63,2.63,0,0,0,614,47.49Z" transform="translate(-15.67 -16.93)"/>
<path d="M647.82,51.9l-1.6,6.57a40.8,40.8,0,0,0-1.06,5.1q0,.75,1,1.32a3.84,3.84,0,0,1,1.14.83,1,1,0,0,1,.12.87,1.85,1.85,0,0,1-.92,1.13,3.85,3.85,0,0,1-1.81.5,31.58,31.58,0,0,1-6.42-.57,28.67,28.67,0,0,1-6.9-1.69A3.25,3.25,0,0,1,630,64.9a1.55,1.55,0,0,1-.34-1.27,1,1,0,0,1,.49-.71,5.36,5.36,0,0,1,1.57-.42c.73-.13,1.29-.71,1.69-1.72a56,56,0,0,0,2.13-7.53,34.11,34.11,0,0,0,1.09-6.49,3,3,0,0,0-1.4-2.42,4.55,4.55,0,0,1-1.34-1.17,1.48,1.48,0,0,1-.18-1.14,2.35,2.35,0,0,1,1.66-1.56,16,16,0,0,1,4.36-.77c1.31-.09,3-.12,5-.06a37.6,37.6,0,0,1,4.42.3c1.42.24,2,1,1.65,2.36-.11.44-.47,1.43-1,3C649,47.63,648.35,49.88,647.82,51.9Z" transform="translate(-15.67 -16.93)"/>
<path d="M675,64.15c-4.92-1-7.38-1.42-12.31-2.32-.54-.1-.86,0-1,.4-.24.89.15,1.83,1.17,2.84a6.88,6.88,0,0,0,3.63,1.9,12.45,12.45,0,0,0,2.88.14,11.48,11.48,0,0,0,2.77-.44,3.48,3.48,0,0,1,1.55-.22,1.74,1.74,0,0,1,1.14.91,1.79,1.79,0,0,1,.26,1.47c-.28,1-1.33,1.76-3.15,2.36a20,20,0,0,1-10.16.63,15.29,15.29,0,0,1-8.47-4.11,10.19,10.19,0,0,1-2.21-3.48,8.41,8.41,0,0,1-.32-5.12,9.56,9.56,0,0,1,4.25-5.71,16,16,0,0,1,6.87-2.49,19.48,19.48,0,0,1,6.12.19,14.76,14.76,0,0,1,8,3.82,8.7,8.7,0,0,1,2.11,3.15,5.47,5.47,0,0,1,.27,3.57,3.61,3.61,0,0,1-1.34,2A2.54,2.54,0,0,1,675,64.15Zm-10.6-6,2.66.49c1.13.21,1.8-.09,2-.89a2.14,2.14,0,0,0-.33-1.94,3,3,0,0,0-2-1.09,3.34,3.34,0,0,0-2.57.47A2.81,2.81,0,0,0,663,56.74a.89.89,0,0,0,.15.92A2.57,2.57,0,0,0,664.39,58.15Z" transform="translate(-15.67 -16.93)"/>
<path d="M359.21,78.37l-3.19.39c-.15-4.69-.22-7-.34-11.73l3.26-.39C359,71.33,359.09,73.68,359.21,78.37Z" transform="translate(-15.67 -16.93)" style="fill:#fff"/>
<path d="M367.27,77.44c0-2.12-.06-3.18-.09-5.3a2.26,2.26,0,0,0-.06-.57.76.76,0,0,0-.16-.35.51.51,0,0,0-.28-.17,1.17,1.17,0,0,0-.38,0,1.71,1.71,0,0,0-.68.25,2.58,2.58,0,0,0-.61.54,3.15,3.15,0,0,0-.48.8,3.61,3.61,0,0,0-.28,1c.05,1.66.08,2.49.13,4.14l-3,.35c-.09-3.33-.13-5-.2-8.34l1.58-.18a1.34,1.34,0,0,1,.77.09.67.67,0,0,1,.36.55l.11.66a4.57,4.57,0,0,1,1.43-1.35,4.37,4.37,0,0,1,1.75-.58,3.4,3.4,0,0,1,1.2.08,2.38,2.38,0,0,1,1,.51,2.42,2.42,0,0,1,.66.92,3.4,3.4,0,0,1,.24,1.33c0,2.12,0,3.19.07,5.31Z" transform="translate(-15.67 -16.93)" style="fill:#fff"/>
<path d="M372.59,75.06s0-.08,0-.14a1.18,1.18,0,0,1,0-.22c0-.1,0-.23,0-.4s0-.38,0-.65V70.24l-.82.08a.49.49,0,0,1-.36-.08.36.36,0,0,1-.15-.35c0-.39,0-.59,0-1l1.51-.41c.22-.84.33-1.26.56-2.1a.63.63,0,0,1,.61-.45l1.67-.17c0,1,0,1.47,0,2.44l2.3-.23c0,.69,0,1,0,1.71l-2.29.23c0,1.31,0,2,0,3.28V74a.42.42,0,0,0,0,.13v0a.64.64,0,0,0,.2.37.55.55,0,0,0,.44.11l.25-.05.17-.09.14-.07a.4.4,0,0,1,.36,0,.71.71,0,0,1,.16.15l.84,1.1a5,5,0,0,1-1.22.67,6.05,6.05,0,0,1-1.37.32,4.27,4.27,0,0,1-1.08,0,2.73,2.73,0,0,1-.86-.3,2,2,0,0,1-.63-.54A1.84,1.84,0,0,1,372.59,75.06Z" transform="translate(-15.67 -16.93)" style="fill:#fff"/>
<path d="M387.23,69.14a2,2,0,0,1-.13,1.06,2.32,2.32,0,0,1-.85.91,7,7,0,0,1-1.76.79,23.46,23.46,0,0,1-2.85.67,1.68,1.68,0,0,0,.63,1.18,1.94,1.94,0,0,0,1.34.27,3.07,3.07,0,0,0,.69-.12,2.61,2.61,0,0,0,.5-.19,4,4,0,0,0,.37-.22l.31-.21a2,2,0,0,1,.32-.18,1.24,1.24,0,0,1,.4-.09.72.72,0,0,1,.29,0,.87.87,0,0,1,.27.14l.88.66a10.05,10.05,0,0,1-.95.84,5.75,5.75,0,0,1-1,.61,5.41,5.41,0,0,1-1.11.41,9.55,9.55,0,0,1-1.32.22,5.22,5.22,0,0,1-1.69-.09,4.18,4.18,0,0,1-1.4-.58,3.35,3.35,0,0,1-1-1,3.56,3.56,0,0,1-.51-1.4,4.36,4.36,0,0,1,0-1.3A4.69,4.69,0,0,1,379,70.3a4.93,4.93,0,0,1,.69-1.1,4.8,4.8,0,0,1,1-.9,5.7,5.7,0,0,1,1.28-.65,6.19,6.19,0,0,1,1.54-.33,4.84,4.84,0,0,1,1.49.05,3.92,3.92,0,0,1,1.14.4,2.53,2.53,0,0,1,.76.63A1.51,1.51,0,0,1,387.23,69.14ZM383.57,69a1.94,1.94,0,0,0-1.26.61,2.81,2.81,0,0,0-.67,1.42c.63-.14,1.13-.27,1.51-.39a4.94,4.94,0,0,0,.88-.37,1,1,0,0,0,.39-.38.66.66,0,0,0,.06-.39.57.57,0,0,0-.25-.38A1,1,0,0,0,383.57,69Z" transform="translate(-15.67 -16.93)" style="fill:#fff"/>
<path d="M388.77,75.29c.06-3.34.1-5,.17-8.35l1.58-.14a1.31,1.31,0,0,1,.77.12.7.7,0,0,1,.34.56l.12.93a5.15,5.15,0,0,1,.68-1,3.27,3.27,0,0,1,.81-.66,2.3,2.3,0,0,1,1.85-.25c-.11.93-.16,1.4-.27,2.33a2.94,2.94,0,0,0-1.08-.09,1.68,1.68,0,0,0-.86.35,2.19,2.19,0,0,0-.65.82,4.83,4.83,0,0,0-.4,1.34c0,1.5-.05,2.25-.08,3.75Z" transform="translate(-15.67 -16.93)" style="fill:#fff"/>
<path d="M401.84,74.21c.07-2.12.1-3.18.18-5.3a2.44,2.44,0,0,0,0-.57.85.85,0,0,0-.14-.36.55.55,0,0,0-.27-.17.93.93,0,0,0-.38,0,1.71,1.71,0,0,0-.69.23,2.57,2.57,0,0,0-.64.52,3.42,3.42,0,0,0-.52.78,3.5,3.5,0,0,0-.33,1c0,1.66,0,2.49-.08,4.14l-3,.25c.09-3.34.13-5,.23-8.35l1.59-.12a1.26,1.26,0,0,1,.76.12.68.68,0,0,1,.34.56l.07.66a4.66,4.66,0,0,1,1.49-1.3,4.5,4.5,0,0,1,1.79-.51,2.93,2.93,0,0,1,1.19.12,2.32,2.32,0,0,1,.94.54,2.36,2.36,0,0,1,.61.94,3.33,3.33,0,0,1,.17,1.34c-.08,2.12-.13,3.18-.21,5.3Z" transform="translate(-15.67 -16.93)" style="fill:#fff"/>
<path d="M415.19,73.29l-1.63.1a1.76,1.76,0,0,1-.48,0,.86.86,0,0,1-.32-.14.61.61,0,0,1-.18-.24,1.27,1.27,0,0,1-.08-.31l-.05-.59a4.66,4.66,0,0,1-1.29,1.19,3.61,3.61,0,0,1-1.65.52,3.23,3.23,0,0,1-1.07-.11,2.69,2.69,0,0,1-1.69-1.36,3.54,3.54,0,0,1-.37-1.31,4.53,4.53,0,0,1,.29-2.16A5,5,0,0,1,407.91,67a6.65,6.65,0,0,1,2-1.35,7.81,7.81,0,0,1,2.73-.63,14.93,14.93,0,0,1,1.5,0,9.77,9.77,0,0,1,1.51.2C415.49,68.43,415.39,70.05,415.19,73.29Zm-4.65-1.54a1.12,1.12,0,0,0,.63-.24,2.66,2.66,0,0,0,.54-.6,4.22,4.22,0,0,0,.43-.85,5.6,5.6,0,0,0,.31-1c.06-.92.09-1.38.14-2.31h-.18a3.54,3.54,0,0,0-1.34.36,3,3,0,0,0-1,.81A3.11,3.11,0,0,0,409.5,69a3.47,3.47,0,0,0-.11,1.33,2.47,2.47,0,0,0,.14.68,1.58,1.58,0,0,0,.26.43.76.76,0,0,0,.34.23A.93.93,0,0,0,410.54,71.75Z" transform="translate(-15.67 -16.93)" style="fill:#fff"/>
<path d="M417.85,71.33s0-.08,0-.13V71c0-.1,0-.23,0-.39s0-.38,0-.65c.09-1.38.14-2.07.23-3.44l-.76,0a.56.56,0,0,1-.39-.1.36.36,0,0,1-.13-.35c0-.37,0-.56.06-.93l1.49-.34c.29-.83.43-1.25.71-2.09a.63.63,0,0,1,.65-.42l1.67-.09c-.07,1-.1,1.47-.18,2.46l6.81-.35c-.27,3.31-.4,5-.66,8.29l-2.93.15c.19-2.66.29-4,.5-6.65l-3.83.21c-.09,1.32-.14,2-.23,3.3,0,.22,0,.39,0,.52s0,.22,0,.29a.52.52,0,0,0,0,.13v0A.58.58,0,0,0,421,71a.52.52,0,0,0,.43.13,1.31,1.31,0,0,0,.25,0,.75.75,0,0,0,.18-.08l.14-.07a.41.41,0,0,1,.16,0,.28.28,0,0,1,.21,0,.41.41,0,0,1,.14.15c.31.46.46.68.76,1.14a4.9,4.9,0,0,1-1.26.61,5.49,5.49,0,0,1-1.39.25,3.69,3.69,0,0,1-1.07-.07,2.63,2.63,0,0,1-.84-.33,2.1,2.1,0,0,1-.58-.57A1.78,1.78,0,0,1,417.85,71.33ZM428.7,62a.92.92,0,0,1-.12.56,1.58,1.58,0,0,1-.38.48,2.33,2.33,0,0,1-.57.34,2.67,2.67,0,0,1-.68.15,2.16,2.16,0,0,1-1.26-.37,2,2,0,0,1-.43-.43,1.21,1.21,0,0,1-.19-.55,1.12,1.12,0,0,1,.11-.57,1.55,1.55,0,0,1,.37-.48,2,2,0,0,1,.55-.34,1.87,1.87,0,0,1,.66-.15,2.07,2.07,0,0,1,.7.08,1.88,1.88,0,0,1,.61.28,1.84,1.84,0,0,1,.44.44A1.14,1.14,0,0,1,428.7,62Z" transform="translate(-15.67 -16.93)" style="fill:#fff"/>
<path d="M433.52,72.45a5.61,5.61,0,0,1-1.61-.16,3.93,3.93,0,0,1-1.34-.62,3.25,3.25,0,0,1-.93-1,3.6,3.6,0,0,1-.41-1.48,4.45,4.45,0,0,1,.31-2,4.73,4.73,0,0,1,1.1-1.65,5.55,5.55,0,0,1,1.7-1.13,5.94,5.94,0,0,1,2.1-.46,5.31,5.31,0,0,1,1.62.16,3.86,3.86,0,0,1,1.34.63,3.12,3.12,0,0,1,.93,1,3.39,3.39,0,0,1,.4,1.49,4.53,4.53,0,0,1-.33,2,5.08,5.08,0,0,1-1.12,1.65A5.48,5.48,0,0,1,435.59,72,5.79,5.79,0,0,1,433.52,72.45Zm.15-1.85a1.58,1.58,0,0,0,.9-.29,2.22,2.22,0,0,0,.65-.71,3.48,3.48,0,0,0,.37-1,5,5,0,0,0,.08-1.24,2.26,2.26,0,0,0-.38-1.28,1.24,1.24,0,0,0-1-.35,1.73,1.73,0,0,0-.91.3,2,2,0,0,0-.64.71,3.14,3.14,0,0,0-.37,1,5,5,0,0,0-.08,1.24,2.17,2.17,0,0,0,.39,1.27A1.18,1.18,0,0,0,433.67,70.6Z" transform="translate(-15.67 -16.93)" style="fill:#fff"/>
<path d="M445.72,71.87c.21-2.12.31-3.18.53-5.29a3.72,3.72,0,0,0,0-.57.73.73,0,0,0-.13-.36.48.48,0,0,0-.25-.19,1.13,1.13,0,0,0-.38,0,1.71,1.71,0,0,0-.7.19,2.6,2.6,0,0,0-.67.5,3.4,3.4,0,0,0-.58.75,4,4,0,0,0-.39,1L442.81,72l-3.05.11c.31-3.33.46-5,.78-8.32l1.59-.06a1.32,1.32,0,0,1,.76.16.65.65,0,0,1,.29.57l0,.67a4.65,4.65,0,0,1,1.57-1.23,4.42,4.42,0,0,1,1.81-.44,3.44,3.44,0,0,1,1.18.17,2.35,2.35,0,0,1,.91.59,2.25,2.25,0,0,1,.54,1,3.41,3.41,0,0,1,.09,1.34c-.23,2.12-.34,3.17-.56,5.29Z" transform="translate(-15.67 -16.93)" style="fill:#fff"/>
<path d="M459.1,71.54l-1.63,0a1.68,1.68,0,0,1-.48,0,.82.82,0,0,1-.31-.16.66.66,0,0,1-.17-.24,1.06,1.06,0,0,1-.05-.31l0-.6a4.86,4.86,0,0,1-1.36,1.14,3.61,3.61,0,0,1-1.68.43,3.16,3.16,0,0,1-1.06-.15,2.66,2.66,0,0,1-.93-.52,2.71,2.71,0,0,1-.66-.91,3.29,3.29,0,0,1-.29-1.32,4.56,4.56,0,0,1,.43-2.15,5.18,5.18,0,0,1,1.36-1.81,6.71,6.71,0,0,1,2.14-1.25,8.07,8.07,0,0,1,2.76-.51c.49,0,1,0,1.49.05a9.41,9.41,0,0,1,1.5.26C459.72,66.7,459.51,68.31,459.1,71.54Zm-4.54-1.74a1.2,1.2,0,0,0,.64-.22,2.4,2.4,0,0,0,.58-.57,3.87,3.87,0,0,0,.49-.83,6.39,6.39,0,0,0,.38-1c.11-.92.17-1.38.29-2.3h-.18a3.4,3.4,0,0,0-1.37.3A3.18,3.18,0,0,0,453.7,67a3.67,3.67,0,0,0-.2,1.33,3.06,3.06,0,0,0,.1.68,1.4,1.4,0,0,0,.23.44.73.73,0,0,0,.33.25A1,1,0,0,0,454.56,69.8Z" transform="translate(-15.67 -16.93)" style="fill:#fff"/>
<path d="M461,71.51c.61-4.8.92-7.19,1.55-12l3.06,0c-.65,4.8-1,7.19-1.6,12Z" transform="translate(-15.67 -16.93)" style="fill:#fff"/>
<path d="M476.56,69.37a5.15,5.15,0,0,0,.94-.07,3.48,3.48,0,0,0,.69-.17,2.72,2.72,0,0,0,.48-.22l.36-.23a1.87,1.87,0,0,1,.3-.17.59.59,0,0,1,.29-.07.6.6,0,0,1,.26,0,.49.49,0,0,1,.16.1l1.12,1.1a6.4,6.4,0,0,1-2.23,1.36,8.56,8.56,0,0,1-2.92.46,6.87,6.87,0,0,1-2.4-.38,5.19,5.19,0,0,1-1.77-1.06,4.48,4.48,0,0,1-1.11-1.6,5.33,5.33,0,0,1-.38-2,6.23,6.23,0,0,1,.26-1.9,6.07,6.07,0,0,1,.77-1.65,6.59,6.59,0,0,1,1.21-1.38,7.6,7.6,0,0,1,1.57-1,8.81,8.81,0,0,1,1.87-.66,9.56,9.56,0,0,1,2.09-.22,8.6,8.6,0,0,1,1.5.12,6.4,6.4,0,0,1,1.21.35,5.05,5.05,0,0,1,1,.53,4,4,0,0,1,.74.68l-1.15,1a1.18,1.18,0,0,1-.28.2.8.8,0,0,1-.41.09.62.62,0,0,1-.31-.07,2,2,0,0,1-.29-.15l-.32-.21a2.48,2.48,0,0,0-.43-.2,3.3,3.3,0,0,0-.59-.16,4.7,4.7,0,0,0-.81-.07,4.81,4.81,0,0,0-1.71.31,3.89,3.89,0,0,0-1.37.9,4,4,0,0,0-.91,1.41,4.92,4.92,0,0,0-.32,1.85,3.65,3.65,0,0,0,.23,1.32,2.91,2.91,0,0,0,.61,1,2.51,2.51,0,0,0,.92.61A3.09,3.09,0,0,0,476.56,69.37Z" transform="translate(-15.67 -16.93)" style="fill:#fff"/>
<path d="M482.11,71.4c.75-4.78,1.13-7.17,1.91-12l3.11,0c-.33,1.9-.48,2.85-.8,4.75a4.62,4.62,0,0,1,3.13-1.18,3.13,3.13,0,0,1,1.17.23,2.17,2.17,0,0,1,.88.62,2.2,2.2,0,0,1,.49,1,3.39,3.39,0,0,1,0,1.35c-.36,2.1-.54,3.15-.89,5.25l-3.05,0c.35-2.1.52-3.15.87-5.25a3.14,3.14,0,0,0,0-.57,1,1,0,0,0-.11-.38.52.52,0,0,0-.24-.2.94.94,0,0,0-.39-.07,1.81,1.81,0,0,0-.65.14,2.71,2.71,0,0,0-.65.41,4.2,4.2,0,0,0-.6.65,4.08,4.08,0,0,0-.46.85c-.29,1.76-.43,2.64-.72,4.39Z" transform="translate(-15.67 -16.93)" style="fill:#fff"/>
<path d="M501.46,71.7l-1.63,0a2,2,0,0,1-.48-.07,1,1,0,0,1-.3-.17.68.68,0,0,1-.15-.26,1,1,0,0,1,0-.31l0-.59a5,5,0,0,1-1.43,1.07,3.63,3.63,0,0,1-1.71.37,3.37,3.37,0,0,1-1.05-.2,2.49,2.49,0,0,1-.89-.56,2.6,2.6,0,0,1-.61-.94,3.24,3.24,0,0,1-.2-1.33,4.57,4.57,0,0,1,.56-2.13A5.55,5.55,0,0,1,495,64.8a7.11,7.11,0,0,1,2.22-1.17,8.09,8.09,0,0,1,2.79-.38c.49,0,1,0,1.49.11a9.56,9.56,0,0,1,1.48.33C502.38,66.89,502.07,68.49,501.46,71.7ZM497,69.76a1.12,1.12,0,0,0,.66-.19,2.52,2.52,0,0,0,.61-.54,4.59,4.59,0,0,0,.55-.81,7,7,0,0,0,.44-1l.43-2.28h-.18a3.29,3.29,0,0,0-1.38.24,3.37,3.37,0,0,0-1.09.71,3.3,3.3,0,0,0-.72,1.08,3.57,3.57,0,0,0-.28,1.31,2.29,2.29,0,0,0,.06.68,1.15,1.15,0,0,0,.2.46.82.82,0,0,0,.3.26A1.06,1.06,0,0,0,497,69.76Z" transform="translate(-15.67 -16.93)" style="fill:#fff"/>
<path d="M503.37,71.75c.63-3.3.95-5,1.59-8.25l1.59,0a1.3,1.3,0,0,1,.74.2.64.64,0,0,1,.24.59l0,.49a4.62,4.62,0,0,1,1.42-1,3.73,3.73,0,0,1,1.54-.29,2.22,2.22,0,0,1,1.43.51,2.08,2.08,0,0,1,.67,1.35,4.44,4.44,0,0,1,1.57-1.29,3.83,3.83,0,0,1,1.86-.36,3,3,0,0,1,1.15.25,2,2,0,0,1,.82.64,2.18,2.18,0,0,1,.41,1,3.47,3.47,0,0,1-.07,1.34c-.44,2.09-.65,3.14-1.09,5.23l-3-.12c.42-2.09.64-3.14,1.06-5.23a2.59,2.59,0,0,0,.07-.57.79.79,0,0,0-.07-.37.39.39,0,0,0-.2-.2.79.79,0,0,0-.32-.07,1.24,1.24,0,0,0-.6.11,2,2,0,0,0-.56.36,3.27,3.27,0,0,0-.49.59,4.76,4.76,0,0,0-.41.78L511.8,72l-3-.1c.41-2.1.62-3.14,1-5.24a2.49,2.49,0,0,0,.06-.56.76.76,0,0,0-.07-.37.41.41,0,0,0-.2-.21,1,1,0,0,0-.33-.07,1.43,1.43,0,0,0-.6.12,2.09,2.09,0,0,0-.56.37,3.44,3.44,0,0,0-.49.61,4.59,4.59,0,0,0-.4.8l-.87,4.47Z" transform="translate(-15.67 -16.93)" style="fill:#fff"/>
<path d="M518.5,74.9c.92-4.33,1.39-6.5,2.34-10.83l1.59.08a1.27,1.27,0,0,1,.73.21.67.67,0,0,1,.23.6l-.06.75A5.63,5.63,0,0,1,525,64.58a4,4,0,0,1,1.88-.35,3.51,3.51,0,0,1,1.15.24,2.22,2.22,0,0,1,.86.61,2.42,2.42,0,0,1,.52,1,4,4,0,0,1,.1,1.42,5.1,5.1,0,0,1-.57,2,5.83,5.83,0,0,1-1.23,1.66,5.57,5.57,0,0,1-1.67,1.1,4.37,4.37,0,0,1-1.91.34,3.44,3.44,0,0,1-1.13-.22,3.27,3.27,0,0,1-.86-.49c-.27,1.24-.41,1.86-.68,3.09Zm7-8.86a1.39,1.39,0,0,0-.68.17,2.88,2.88,0,0,0-.71.5,4.89,4.89,0,0,0-.65.76,5.64,5.64,0,0,0-.54,1c-.18.79-.27,1.18-.44,2a2,2,0,0,0,.61.29,3.25,3.25,0,0,0,.66.11,1.75,1.75,0,0,0,1-.24,3,3,0,0,0,.83-.72,4,4,0,0,0,.59-1,4.17,4.17,0,0,0,.27-1.21,1.84,1.84,0,0,0-.2-1.16A.93.93,0,0,0,525.5,66Z" transform="translate(-15.67 -16.93)" style="fill:#fff"/>
<path d="M534.85,64.79c-.78,3.28-1.17,4.92-1.93,8.2l-3-.17c.75-3.28,1.13-4.92,1.9-8.2Zm.77-2.23a1.13,1.13,0,0,1-.21.55,1.73,1.73,0,0,1-.46.43,2,2,0,0,1-.62.27,2,2,0,0,1-1.34-.07,1.86,1.86,0,0,1-.54-.35,1.64,1.64,0,0,1-.36-.47,1.1,1.1,0,0,1-.1-.56,1.17,1.17,0,0,1,.19-.55,1.71,1.71,0,0,1,.45-.44,2.09,2.09,0,0,1,.6-.29,2.19,2.19,0,0,1,.68-.08,2.25,2.25,0,0,1,.68.16,1.7,1.7,0,0,1,.55.34,1.59,1.59,0,0,1,.37.49A1,1,0,0,1,535.62,62.56Z" transform="translate(-15.67 -16.93)" style="fill:#fff"/>
<path d="M539,73.48a5.61,5.61,0,0,1-1.58-.33,3.92,3.92,0,0,1-1.22-.75,3,3,0,0,1-.76-1.15,3.35,3.35,0,0,1-.18-1.51,4.48,4.48,0,0,1,.63-2,5.17,5.17,0,0,1,1.35-1.52,5.75,5.75,0,0,1,1.87-.93,6,6,0,0,1,2.15-.24,5.28,5.28,0,0,1,1.59.33,3.66,3.66,0,0,1,1.22.76,3.08,3.08,0,0,1,.76,1.15,3.4,3.4,0,0,1,.17,1.52,4.61,4.61,0,0,1-.66,2A5.45,5.45,0,0,1,543,72.3a5.8,5.8,0,0,1-1.86.93A6,6,0,0,1,539,73.48Zm.44-1.82a1.66,1.66,0,0,0,.94-.19,2.37,2.37,0,0,0,.75-.64,3.81,3.81,0,0,0,.53-1,4.82,4.82,0,0,0,.27-1.22,2.14,2.14,0,0,0-.17-1.31,1.16,1.16,0,0,0-.95-.45,1.81,1.81,0,0,0-1,.19,2.51,2.51,0,0,0-.75.64,3.71,3.71,0,0,0-.53,1,5.29,5.29,0,0,0-.26,1.22,2.05,2.05,0,0,0,.18,1.3A1.11,1.11,0,0,0,539.45,71.66Z" transform="translate(-15.67 -16.93)" style="fill:#fff"/>
<path d="M551.2,74.2c.54-2.08.81-3.12,1.36-5.19a2.9,2.9,0,0,0,.1-.56.76.76,0,0,0-.07-.37.43.43,0,0,0-.22-.22,1,1,0,0,0-.37-.09,1.76,1.76,0,0,0-.72.12,2.55,2.55,0,0,0-.75.42,3.75,3.75,0,0,0-.69.69,4.37,4.37,0,0,0-.54.92l-1,4.06-3-.21c.83-3.27,1.24-4.91,2.08-8.17l1.59.11a1.25,1.25,0,0,1,.72.23.63.63,0,0,1,.21.61l-.07.66a5,5,0,0,1,1.75-1.06,4.79,4.79,0,0,1,1.87-.23,3.19,3.19,0,0,1,1.14.29,2.08,2.08,0,0,1,.81.68,2.2,2.2,0,0,1,.39,1,3.4,3.4,0,0,1-.13,1.34c-.56,2.07-.83,3.11-1.38,5.18Z" transform="translate(-15.67 -16.93)" style="fill:#fff"/>
<path d="M563.88,68.65a1.29,1.29,0,0,1-.29.19.64.64,0,0,1-.32,0,1,1,0,0,1-.38-.1l-.4-.2-.48-.21a2.81,2.81,0,0,0-.64-.12,1.69,1.69,0,0,0-1,.13.67.67,0,0,0-.36.52.42.42,0,0,0,.12.37,1.4,1.4,0,0,0,.39.31,3.9,3.9,0,0,0,.58.27l.67.28c.23.11.45.22.66.34a2.76,2.76,0,0,1,.56.45,1.8,1.8,0,0,1,.35.58,1.74,1.74,0,0,1,.07.77,2.61,2.61,0,0,1-.46,1.15,3.07,3.07,0,0,1-1,.88,4.86,4.86,0,0,1-1.45.54,6.94,6.94,0,0,1-1.85.09,6,6,0,0,1-.94-.16,6.67,6.67,0,0,1-.86-.29,4.06,4.06,0,0,1-.72-.38,2.33,2.33,0,0,1-.51-.45l.85-.85a1.15,1.15,0,0,1,.35-.22,1.09,1.09,0,0,1,.46-.06,1,1,0,0,1,.41.13l.36.24a2.79,2.79,0,0,0,.46.25,2.48,2.48,0,0,0,.74.16,1.69,1.69,0,0,0,1-.16.69.69,0,0,0,.38-.52.54.54,0,0,0-.11-.42,1.37,1.37,0,0,0-.39-.31,4.55,4.55,0,0,0-.58-.26l-.66-.26a6.67,6.67,0,0,1-.66-.31,2.35,2.35,0,0,1-.55-.42,1.64,1.64,0,0,1-.37-.59,1.84,1.84,0,0,1-.07-.8,2.68,2.68,0,0,1,.4-1.09,2.94,2.94,0,0,1,.9-.89,4.38,4.38,0,0,1,1.37-.57,6,6,0,0,1,1.84-.1,5.53,5.53,0,0,1,1.8.44,4.38,4.38,0,0,1,1.24.82Z" transform="translate(-15.67 -16.93)" style="fill:#fff"/>
<path d="M564.1,75.26c1.34-4.7,2-7,3.37-11.73l3.09.28c-.55,1.87-.83,2.8-1.38,4.66a5.39,5.39,0,0,1,1.61-.77,4.66,4.66,0,0,1,1.66-.14,3.09,3.09,0,0,1,1.14.32,2.08,2.08,0,0,1,1.16,1.72,3.29,3.29,0,0,1-.17,1.34l-1.52,5.15-3-.29,1.5-5.16a2.88,2.88,0,0,0,.11-.56.74.74,0,0,0-.06-.38.45.45,0,0,0-.22-.23.91.91,0,0,0-.37-.09,1.71,1.71,0,0,0-.66.08,2.8,2.8,0,0,0-.71.36,4,4,0,0,0-.67.59,3.93,3.93,0,0,0-.57.81l-1.25,4.31Z" transform="translate(-15.67 -16.93)" style="fill:#fff"/>
<path d="M580.44,68.49c-1,3.24-1.49,4.86-2.48,8.09l-3-.3c1-3.24,1.46-4.86,2.45-8.1Zm.93-2.19a1,1,0,0,1-.25.53,1.74,1.74,0,0,1-.48.41,2.25,2.25,0,0,1-.64.25,2.05,2.05,0,0,1-.7,0,1.75,1.75,0,0,1-.64-.18,2.18,2.18,0,0,1-.52-.36,1.47,1.47,0,0,1-.32-.5,1.07,1.07,0,0,1-.06-.56,1,1,0,0,1,.23-.54,1.47,1.47,0,0,1,.47-.42,2.14,2.14,0,0,1,.62-.26,1.94,1.94,0,0,1,.68,0,2,2,0,0,1,1.21.55,1.81,1.81,0,0,1,.33.5A1.05,1.05,0,0,1,581.37,66.3Z" transform="translate(-15.67 -16.93)" style="fill:#fff"/>
<path d="M579.15,79.36c1.32-4.27,2-6.4,3.32-10.66l1.58.17a1.33,1.33,0,0,1,.72.26.65.65,0,0,1,.17.61l-.12.75a5.92,5.92,0,0,1,1.75-1,4.29,4.29,0,0,1,1.91-.23,3.54,3.54,0,0,1,1.13.31,2.19,2.19,0,0,1,.81.66,2.38,2.38,0,0,1,.42,1,4.07,4.07,0,0,1,0,1.43,5.72,5.72,0,0,1-.76,2,6.36,6.36,0,0,1-1.38,1.58,5.74,5.74,0,0,1-1.77,1,4.46,4.46,0,0,1-1.94.22,3.46,3.46,0,0,1-1.11-.29,3.37,3.37,0,0,1-.81-.54c-.38,1.22-.58,1.82-1,3ZM587,71a1.27,1.27,0,0,0-.69.12,3,3,0,0,0-.75.45,5.59,5.59,0,0,0-.73.73,5.21,5.21,0,0,0-.62.91l-.63,2a2,2,0,0,0,.59.33,2.75,2.75,0,0,0,.65.15,1.82,1.82,0,0,0,1-.18,2.83,2.83,0,0,0,.89-.66,3.75,3.75,0,0,0,.68-1,4.26,4.26,0,0,0,.39-1.19,1.84,1.84,0,0,0-.1-1.17A.85.85,0,0,0,587,71Z" transform="translate(-15.67 -16.93)" style="fill:#fff"/>
<path d="M598.78,72.34a1.33,1.33,0,0,1-.29.17.7.7,0,0,1-.33,0,1,1,0,0,1-.37-.11l-.39-.22a3,3,0,0,0-.47-.22,2.65,2.65,0,0,0-.63-.15,1.88,1.88,0,0,0-1,.09.71.71,0,0,0-.39.51.47.47,0,0,0,.1.38,1.37,1.37,0,0,0,.38.32,3.77,3.77,0,0,0,.57.29l.65.31c.22.11.43.23.64.36a2.41,2.41,0,0,1,.53.46,1.77,1.77,0,0,1,.33.6,1.64,1.64,0,0,1,0,.77,2.59,2.59,0,0,1-.52,1.13,3.24,3.24,0,0,1-1,.85,4.66,4.66,0,0,1-1.49.48,6.3,6.3,0,0,1-1.85,0,7,7,0,0,1-.93-.19,6,6,0,0,1-.85-.32,4.29,4.29,0,0,1-.7-.41,2.44,2.44,0,0,1-.49-.46l.9-.82a1,1,0,0,1,.36-.21,1,1,0,0,1,.46,0,1,1,0,0,1,.41.14l.34.25a4.45,4.45,0,0,0,.45.27,2.67,2.67,0,0,0,.73.18,1.69,1.69,0,0,0,1-.12.73.73,0,0,0,.41-.51.51.51,0,0,0-.09-.42,1.26,1.26,0,0,0-.38-.33,4.19,4.19,0,0,0-.56-.27l-.65-.29a5.62,5.62,0,0,1-.64-.34,2.22,2.22,0,0,1-.53-.43,1.62,1.62,0,0,1-.34-.6,1.63,1.63,0,0,1,0-.8,2.55,2.55,0,0,1,.45-1.08,3.12,3.12,0,0,1,.94-.86,4.44,4.44,0,0,1,1.41-.52,5.89,5.89,0,0,1,1.84,0,5.16,5.16,0,0,1,1.78.51,4.39,4.39,0,0,1,1.2.85Z" transform="translate(-15.67 -16.93)" style="fill:#fff"/>
<path d="M300.11,47.68,299,46.38A4.05,4.05,0,0,0,296.75,45c-1.42-.29-2.23-.83-2.44-1.62-.45-1.74,2.77-3.24,9.69-4.39a36.49,36.49,0,0,1,8.05-.64,3.64,3.64,0,0,1,1.64.48,1.59,1.59,0,0,1,.81,1,1,1,0,0,1-.08.82A10.79,10.79,0,0,1,313.25,42a1.08,1.08,0,0,0-.46,1,6.34,6.34,0,0,0,1.57,2.22c.85.9,1.27,1.36,2.11,2.26a17.05,17.05,0,0,0,2,1.93,1.42,1.42,0,0,0,1.1.31,1.21,1.21,0,0,0,.93-.69,10,10,0,0,0,.66-2.27l.65-3.06a5.33,5.33,0,0,0,.13-1.93c-.12-.55-.58-.85-1.38-.92q-2.39-.21-2.7-1.62c-.19-.83.26-1.5,1.36-2a21.34,21.34,0,0,1,5.68-1.39,15,15,0,0,1,4.2-.13c1.43.22,2.25.78,2.44,1.69a1.46,1.46,0,0,1-.16,1.07,6.23,6.23,0,0,1-1.23,1.36,3.83,3.83,0,0,0-.9,1.17,14.54,14.54,0,0,0-.74,2.37c-1.06,4.09-1.58,6.14-2.6,10.23-1.33,4.79-2.11,7.65-2.39,8.57a18.45,18.45,0,0,1-.94,2.5,3,3,0,0,1-1,1.23,4.68,4.68,0,0,1-1.8.59,5.33,5.33,0,0,1-2.63-.14,4.7,4.7,0,0,1-2-1.5c-3-3.52-4.49-5.27-7.53-8.77a5.08,5.08,0,0,0-.88-.89A.83.83,0,0,0,306,55a1.08,1.08,0,0,0-.82.67,20,20,0,0,0-.84,2.89c-.74,3-1.1,4.51-1.8,7.52a6.33,6.33,0,0,1-1.24,2.8A4.67,4.67,0,0,1,298.78,70a5.06,5.06,0,0,1-2.73-.15A6.22,6.22,0,0,1,293.74,68c-5.9-7-8.91-10.42-15-17.31a8.15,8.15,0,0,0-1.24-1.22,6.17,6.17,0,0,0-1.63-.43A2.14,2.14,0,0,1,274,47.5c-.56-1.91,2.3-3.5,8.58-4.68a32.78,32.78,0,0,1,7.11-.77c1.47.08,2.35.64,2.61,1.64a1.64,1.64,0,0,1,.08.71,6.58,6.58,0,0,1-.53,1.08,1.41,1.41,0,0,0-.07,1c.18.68,1.16,2,2.91,3.92l1.61,1.76a12.05,12.05,0,0,0,1.3,1.32.86.86,0,0,0,.71.14c.69-.12,1.2-1,1.54-2.63l.5-2.52a.9.9,0,0,0,0-.41A1.1,1.1,0,0,0,300.11,47.68Z" transform="translate(-15.67 -16.93)" style="fill:#fff"/>
<path d="M347.08,34.26c.49,3.47.74,5.21,1.23,8.68.16,1,.66,1.5,1.52,1.4A1.62,1.62,0,0,0,351,43.5a8.33,8.33,0,0,1,6.45-3.73A11,11,0,0,1,364.56,41,5.33,5.33,0,0,1,366.49,43a11.26,11.26,0,0,1,1.07,3.45c.57,3,.85,4.46,1.41,7.44a2.88,2.88,0,0,0,.55,1.39,5.33,5.33,0,0,0,1.59,1,1.47,1.47,0,0,1,.94,1.06c.22,1.49-2.51,2.52-8.19,3.16-5.05.56-7.7.18-7.95-1.21a.91.91,0,0,1,0-.56,11.64,11.64,0,0,1,.74-1.1q.9-1.26.12-5.81a9.59,9.59,0,0,0-1.36-3.92A3.46,3.46,0,0,0,352,46.5a2.81,2.81,0,0,0-2.24,1.2,3.91,3.91,0,0,0-.1,2.55l.73,4a21.15,21.15,0,0,0,.86,3,5.67,5.67,0,0,0,1.45,1.15,1.42,1.42,0,0,1,.68,1c.28,1.55-2.14,2.63-7.25,3.3-6,.78-9.13.4-9.46-1.2a1.15,1.15,0,0,1,.11-.9A6.79,6.79,0,0,1,338,59.37c.58-.45.84-1.52.77-3.18a61,61,0,0,0-1.24-8.13A40.72,40.72,0,0,0,336,42a2,2,0,0,0-.58-.89,3.61,3.61,0,0,0-1.19-.46q-1.8-.42-2-1.29a1.78,1.78,0,0,1,.93-1.84,21.81,21.81,0,0,1,4.6-2,38.6,38.6,0,0,1,7.6-2C346.42,33.28,347,33.56,347.08,34.26Z" transform="translate(-15.67 -16.93)" style="fill:#fff"/>
<path d="M386.18,36.85A16.25,16.25,0,0,1,394.37,38a6.3,6.3,0,0,1,2.67,2,7.5,7.5,0,0,1,1.07,3.41l.3,3.1a9.68,9.68,0,0,0,1,4.13,1.67,1.67,0,0,0,.62.54,4.67,4.67,0,0,0,1.14.15.85.85,0,0,1,.94.81,3,3,0,0,1-.79,2.15,7.83,7.83,0,0,1-2.42,2,9.45,9.45,0,0,1-4,1.24,6.4,6.4,0,0,1-4.54-1.13,1.6,1.6,0,0,0-1.1-.45,2.79,2.79,0,0,0-1.32.64,11.56,11.56,0,0,1-5.75,2.05,12,12,0,0,1-5.72-.63A6.63,6.63,0,0,1,374,56.29a4.91,4.91,0,0,1-1.2-2.49,4.51,4.51,0,0,1,1.65-4c2.06-2,5.43-3.19,10.06-3.61a4.71,4.71,0,0,0,1.92-.42c.25-.18.33-.56.26-1.14a6.77,6.77,0,0,0-1-3.13,2.2,2.2,0,0,0-2.07-.82,2.69,2.69,0,0,0-1.39.51,7.64,7.64,0,0,0-1.38,1.51,6.48,6.48,0,0,1-4.61,3.1,3.62,3.62,0,0,1-2.22-.39A2,2,0,0,1,373,43.88a2.71,2.71,0,0,1,.74-2.09,8.47,8.47,0,0,1,2.55-2A25.53,25.53,0,0,1,386.18,36.85ZM385.94,49A2.86,2.86,0,0,0,384,50a2.2,2.2,0,0,0-.62,1.86,2.31,2.31,0,0,0,.83,1.55,2.25,2.25,0,0,0,1.69.47c1.4-.13,2-1.12,1.75-3a2.8,2.8,0,0,0-.51-1.51A1.51,1.51,0,0,0,385.94,49Z" transform="translate(-15.67 -16.93)" style="fill:#fff"/>
<path d="M417.57,34.63a18.43,18.43,0,0,1,8.64,1.4c2.41,1.07,3.67,2.49,3.78,4.24a3.37,3.37,0,0,1-1.41,3,6,6,0,0,1-3.53,1.23,4.38,4.38,0,0,1-3.44-1.07,9.4,9.4,0,0,1-1.17-2,2.81,2.81,0,0,0-2.91-1.59,3.28,3.28,0,0,0-2.4,1.14,3.22,3.22,0,0,0-.79,2.52A5.94,5.94,0,0,0,417,47.83a7.23,7.23,0,0,0,4.8,1.3,11.22,11.22,0,0,0,2.22-.29,16.34,16.34,0,0,0,2.31-.84,2.09,2.09,0,0,1,.81-.18,2.27,2.27,0,0,1,1.64.59,2.15,2.15,0,0,1,.8,1.53,2.93,2.93,0,0,1-.84,2,8.81,8.81,0,0,1-2.43,1.93A18.32,18.32,0,0,1,418.38,56a17.22,17.22,0,0,1-9.46-1.92c-3.46-1.89-5.41-4.45-5.76-7.71s.95-5.83,3.85-8.09A18.45,18.45,0,0,1,417.57,34.63Z" transform="translate(-15.67 -16.93)" style="fill:#fff"/>
<path d="M446.41,26.72c0,2.61,0,3.92,0,6.53q0,1,.09,2.88a20.69,20.69,0,0,0,.19,2.48,1,1,0,0,0,1.17.82,6.38,6.38,0,0,0,2.44-.87c1.09-.56,1.64-1,1.63-1.24s-.21-.42-.62-.82a1.26,1.26,0,0,1-.47-.82c-.05-1.5,2.33-2.32,7.14-2.41a23.43,23.43,0,0,1,5.92.5,3.09,3.09,0,0,1,1.45.78,1.68,1.68,0,0,1,.59,1.2c0,.63-.37,1.07-1.14,1.33-.16.05-.68.15-1.56.29a10,10,0,0,0-3,1.18c-1.24.66-1.86,1.14-1.85,1.44a15,15,0,0,0,2.33,2.7c1.55,1.61,3,3,4.29,4.21a18.26,18.26,0,0,0,2,1.65,12.39,12.39,0,0,0,2,1c1.28.53,1.92,1.15,1.93,1.84a1.91,1.91,0,0,1-1.19,1.74,7.14,7.14,0,0,1-3.27.65c-3.42,0-5.12.06-8.54.12a3.43,3.43,0,0,1-2.53-.89c-1.8-1.74-2.71-2.6-4.54-4.34-1.21-1.13-2-1.81-2.22-2a1.12,1.12,0,0,0-.67-.31c-.21,0-.35.13-.41.39a6.21,6.21,0,0,0,0,1.42,2.66,2.66,0,0,0,.32,1.36,4,4,0,0,0,1.26,1,1.46,1.46,0,0,1,.74,1.28c0,1-.59,1.69-1.87,2.16a23.09,23.09,0,0,1-6.39.85,41,41,0,0,1-6.86-.1,3.11,3.11,0,0,1-1.58-.78,1.92,1.92,0,0,1-.72-1.32c0-.52.31-1,1-1.42a5.74,5.74,0,0,0,1.17-.78,1.61,1.61,0,0,0,.38-.81,47,47,0,0,0,.05-9c-.11-1.83-.16-2.74-.27-4.57a8.94,8.94,0,0,0-.49-3,1.78,1.78,0,0,0-1.58-.71c-1.5-.09-2.27-.53-2.32-1.32a1.71,1.71,0,0,1,.88-1.47,12.32,12.32,0,0,1,3.15-1.4,41.54,41.54,0,0,1,10.52-2.39C445.9,25.71,446.41,26,446.41,26.72Z" transform="translate(-15.67 -16.93)" style="fill:#fff"/>
<path d="M474.71,38.85a14.19,14.19,0,0,1,1.42.06c2.17.18,3.83.27,5,.28a24.79,24.79,0,0,0,2.53-.09c.6-.07,1-.1,1.21-.1.56,0,.83.33.82,1a6.85,6.85,0,0,1-.53,2.29,13.81,13.81,0,0,1-1.34,2.66,6,6,0,0,1-1.1,1.33,1.6,1.6,0,0,1-1,.35,10.57,10.57,0,0,1-1.31-.11,40.14,40.14,0,0,0-5.46-.32c-.87,0-1.67,0-2.39.09s-1,.07-1.33.07c-.73,0-1.1-.33-1.1-1a7,7,0,0,1,.6-2.25,12.13,12.13,0,0,1,1.2-2.45,5.15,5.15,0,0,1,1.3-1.38A2.85,2.85,0,0,1,474.71,38.85Z" transform="translate(-15.67 -16.93)" style="fill:#fff"/>
<path d="M521.25,40.29c1.81,3.46,2.71,5.19,4.48,8.66a5.83,5.83,0,0,0,1.08,1.59,2.94,2.94,0,0,0,1.42.56c1.25.22,1.85.76,1.79,1.62s-.91,1.7-2.49,2.07a31.93,31.93,0,0,1-7.62.31,76.08,76.08,0,0,1-8.79-.73,4.48,4.48,0,0,1-2.06-.83,1.65,1.65,0,0,1-.71-1.41,1.23,1.23,0,0,1,.45-1,4.53,4.53,0,0,1,1.55-.59c.84-.19,1.28-.55,1.3-1.08.05-.93-.64-1.51-2.07-1.72a61.28,61.28,0,0,0-6.5-.44,14.35,14.35,0,0,0-4.24.24,1.88,1.88,0,0,0-.76.73,2,2,0,0,0-.35,1,.67.67,0,0,0,.2.6,8.2,8.2,0,0,0,1.46.48c1.05.28,1.59.79,1.56,1.54-.06,1.65-2.59,2.41-7.59,2.33a31.1,31.1,0,0,1-6.26-.55c-1.22-.29-1.83-.94-1.82-1.93a1.27,1.27,0,0,1,.43-1,4,4,0,0,1,1.47-.63,6.1,6.1,0,0,0,2.64-1.32,20.74,20.74,0,0,0,2.62-3.66c1.56-2.56,2.35-3.84,3.94-6.38a48.86,48.86,0,0,0,3-5.26,9.37,9.37,0,0,0,.86-3.43,8.61,8.61,0,0,1,.37-2.49,3.29,3.29,0,0,1,1.21-1.34A7.76,7.76,0,0,1,506.68,25a9.41,9.41,0,0,1,5.22,1.81C514.15,28.37,517.34,32.86,521.25,40.29Zm-18.8,2,5.24.14q1.46,0,1.47-.45c0-.46-.59-1.61-1.86-3.44A10.89,10.89,0,0,0,506,36.84a1.52,1.52,0,0,0-1-.45c-.65,0-1.21.44-1.67,1.36-.08.12-.36.61-.84,1.46a10.23,10.23,0,0,0-1.22,2.52C501.22,42.07,501.62,42.26,502.45,42.28Z" transform="translate(-15.67 -16.93)" style="fill:#fff"/>
<path d="M536,40.54a12.49,12.49,0,0,1,1.42.15c2.15.3,3.8.5,4.94.57a24.5,24.5,0,0,0,2.54.06,11.65,11.65,0,0,1,1.22,0c.55,0,.79.38.73,1a7.35,7.35,0,0,1-.74,2.25,13.5,13.5,0,0,1-1.57,2.57,5.89,5.89,0,0,1-1.2,1.26,1.6,1.6,0,0,1-1.06.29,10.81,10.81,0,0,1-1.29-.18,40,40,0,0,0-5.42-.64c-.87,0-1.67-.07-2.4,0s-1,0-1.33,0c-.73,0-1.07-.4-1-1.06a7.73,7.73,0,0,1,.81-2.22A12.59,12.59,0,0,1,533,42.15a5.5,5.5,0,0,1,1.41-1.3A2.85,2.85,0,0,1,536,40.54Z" transform="translate(-15.67 -16.93)" style="fill:#fff"/>
<path d="M573.66,49.69c-1.59,2.11-2.38,3.16-3.95,5.28a10.47,10.47,0,0,1-1.57,1.78,1.66,1.66,0,0,1-1.17.39,1.47,1.47,0,0,1-1-.49,12.68,12.68,0,0,1-1.09-1.94c-.56-1.11-1-2.1-1.37-3-1.09-2.59-1.64-3.88-2.75-6.46-.37-.9-.83-1.37-1.37-1.41s-.92.3-1.06,1c-.32,1.62-.56,3.12-.72,4.51a10,10,0,0,0-.08,3,1.34,1.34,0,0,0,.41.7,11,11,0,0,0,1.56.88,1.21,1.21,0,0,1,.72,1.3c-.19,1.55-2.79,2.11-7.81,1.73-4.24-.32-6.28-1.21-6.12-2.72a1,1,0,0,1,.41-.82,8.27,8.27,0,0,1,1.78-.66,2.17,2.17,0,0,0,1.27-.77,7.24,7.24,0,0,0,.74-2.06q.4-1.65,1-5.42c.41-2.52.72-4.68.91-6.48a10.54,10.54,0,0,0-.18-4.64,2,2,0,0,0-.49-.67,6.9,6.9,0,0,0-1.13-.62c-1.24-.56-1.82-1.22-1.74-2a1.8,1.8,0,0,1,.86-1.28,4.6,4.6,0,0,1,2-.71,29.61,29.61,0,0,1,3.27-.24q2,0,3.42.06a19.07,19.07,0,0,1,4.9.84,2.66,2.66,0,0,1,1.05.65,7.81,7.81,0,0,1,1,1.55c1.87,3.37,2.79,5.06,4.6,8.44a11.19,11.19,0,0,0,1.05,1.71,1.48,1.48,0,0,0,.93.38,1.6,1.6,0,0,0,1-.23,5.35,5.35,0,0,0,1.14-1.06c1.83-2.14,2.76-3.21,4.62-5.34l1.13-1.34a8.32,8.32,0,0,1,3-2.49c1.2-.47,3.27-.57,6.19-.26,5.15.55,7.57,1.75,7.27,3.52a1.58,1.58,0,0,1-.46.93,5.33,5.33,0,0,1-1.37.74,3.43,3.43,0,0,0-1.92,1.91,33.86,33.86,0,0,0-1.76,6.88,60.48,60.48,0,0,0-.88,9.31,2.56,2.56,0,0,0,.27,1.38,7,7,0,0,0,1.52,1.24,1.42,1.42,0,0,1,.72,1.43c-.16,1-1.09,1.56-2.78,1.77a15.09,15.09,0,0,1-2.71.15c-.94,0-2.37-.16-4.28-.36a32.42,32.42,0,0,1-6.53-1.17c-1.55-.53-2.26-1.24-2.14-2.14a1.19,1.19,0,0,1,.44-.79,13.19,13.19,0,0,1,1.8-1,2.6,2.6,0,0,0,1.18-1.58,25.08,25.08,0,0,0,.87-4.2,7.63,7.63,0,0,0,.12-2.2.76.76,0,0,0-.76-.6,2.05,2.05,0,0,0-1.56.66A24.09,24.09,0,0,0,573.66,49.69Z" transform="translate(-15.67 -16.93)" style="fill:#fff"/>
<path d="M614.07,42a17.08,17.08,0,0,1,8.21,3.13,10.9,10.9,0,0,1,3.47,4.25,8.07,8.07,0,0,1,.59,5.13c-.65,3-3,5.24-6.86,6.83a23.21,23.21,0,0,1-12,1.43q-6.22-.81-9.59-4.07a8.06,8.06,0,0,1-2.56-7.55c.56-3.25,2.59-5.73,6.09-7.41A21.87,21.87,0,0,1,614.07,42ZM611,46.49a2.73,2.73,0,0,0-2,.42,2.54,2.54,0,0,0-1,1.69,13.6,13.6,0,0,0,0,3.45,21.51,21.51,0,0,0,.69,4,2.59,2.59,0,0,0,2.33,2,2.24,2.24,0,0,0,2.8-2,15.47,15.47,0,0,0,.19-4,13.09,13.09,0,0,0-.74-3.78A2.63,2.63,0,0,0,611,46.49Z" transform="translate(-15.67 -16.93)" style="fill:#fff"/>
<path d="M644.82,50.9l-1.6,6.57a40.8,40.8,0,0,0-1.06,5.1q0,.75,1,1.32a3.84,3.84,0,0,1,1.14.83,1,1,0,0,1,.12.87,1.85,1.85,0,0,1-.92,1.13,3.85,3.85,0,0,1-1.81.5,31.58,31.58,0,0,1-6.42-.57,28.67,28.67,0,0,1-6.9-1.69A3.25,3.25,0,0,1,627,63.9a1.55,1.55,0,0,1-.34-1.27,1,1,0,0,1,.49-.71,5.36,5.36,0,0,1,1.57-.42c.73-.13,1.29-.71,1.69-1.72a56,56,0,0,0,2.13-7.53,34.11,34.11,0,0,0,1.09-6.49,3,3,0,0,0-1.4-2.42,4.55,4.55,0,0,1-1.34-1.17,1.48,1.48,0,0,1-.18-1.14,2.35,2.35,0,0,1,1.66-1.56,16,16,0,0,1,4.36-.77c1.31-.09,3-.12,5-.06a37.6,37.6,0,0,1,4.42.3c1.42.24,2,1,1.65,2.36-.11.44-.47,1.43-1,3C646,46.63,645.35,48.88,644.82,50.9Z" transform="translate(-15.67 -16.93)" style="fill:#fff"/>
<path d="M672,63.15c-4.92-1-7.38-1.42-12.31-2.32-.54-.1-.86,0-1,.4-.24.89.15,1.83,1.17,2.84a6.88,6.88,0,0,0,3.63,1.9,12.45,12.45,0,0,0,2.88.14,11.48,11.48,0,0,0,2.77-.44,3.48,3.48,0,0,1,1.55-.22,1.74,1.74,0,0,1,1.14.91,1.79,1.79,0,0,1,.26,1.47c-.28,1-1.33,1.76-3.15,2.36a20,20,0,0,1-10.16.63,15.29,15.29,0,0,1-8.47-4.11,10.19,10.19,0,0,1-2.21-3.48,8.41,8.41,0,0,1-.32-5.12,9.56,9.56,0,0,1,4.25-5.71,16,16,0,0,1,6.87-2.49,19.48,19.48,0,0,1,6.12.19,14.76,14.76,0,0,1,8,3.82,8.7,8.7,0,0,1,2.11,3.15,5.47,5.47,0,0,1,.27,3.57,3.61,3.61,0,0,1-1.34,2A2.54,2.54,0,0,1,672,63.15Zm-10.6-6,2.66.49c1.13.21,1.8-.09,2-.89a2.14,2.14,0,0,0-.33-1.94,3,3,0,0,0-2-1.09,3.34,3.34,0,0,0-2.57.47A2.81,2.81,0,0,0,660,55.74a.89.89,0,0,0,.15.92A2.57,2.57,0,0,0,661.39,57.15Z" transform="translate(-15.67 -16.93)" style="fill:#fff"/>
<rect x="308.7" y="89.78" width="280.26" height="54.59" style="fill:#fff"/>
<path d="M602.63,108.7v50.6H326.37V108.7H602.63m4-4H322.37v58.6H606.63V104.7Z" transform="translate(-15.67 -16.93)"/>
<path d="M391.64,129.69c-2.37,0-3.72,1.2-3.72,2.75,0,1.82,1,2.59,5.42,3.64,4.85,1.16,7.36,2.91,7.36,6.74,0,4.34-3.37,6.9-8.17,6.9A14.15,14.15,0,0,1,383,146l2.4-2.87a10.57,10.57,0,0,0,7.25,3c2.48,0,4.07-1.16,4.07-2.9s-.93-2.56-5.2-3.53c-4.88-1.16-7.63-2.63-7.63-6.89,0-4,3.29-6.67,7.83-6.67A12.81,12.81,0,0,1,400,129l-2.17,3.06a10.11,10.11,0,0,0-6.2-2.4Z" transform="translate(-15.67 -16.93)" style="fill:#00718f"/>
<polygon points="409.1 132.44 409.1 116.01 401.89 126.82 401.74 126.82 394.57 116.09 394.57 132.44 390.62 132.44 390.62 109.54 394.92 109.54 401.89 120.35 408.87 109.54 413.13 109.54 413.13 132.44 409.1 132.44" style="fill:#00718f"/>
<path d="M447.35,126.32h-3.71l-10.08,23.09h4.11l2.36-5.54h10.85l2.33,5.54h4.26Zm-5.85,14,3.92-9.19,3.95,9.19Z" transform="translate(-15.67 -16.93)" style="fill:#00718f"/>
<path d="M475.45,140.69a6.86,6.86,0,0,0,5.46-7c0-4.5-3.26-7.29-8.53-7.29H462.19v22.94h4v-8h5l5.66,8h4.73Zm-9.23-2.87v-7.71h5.85c3,0,4.77,1.32,4.77,3.84,0,2.36-1.82,3.87-4.73,3.87Z" transform="translate(-15.67 -16.93)" style="fill:#00718f"/>
<polygon points="480.62 113.26 480.62 132.44 476.56 132.44 476.56 113.26 469.27 113.26 469.27 109.54 487.87 109.54 487.87 113.26 480.62 113.26" style="fill:#00718f"/>
<path d="M517.49,126.47h-8.57v22.94h2.6v-8.1h5.58c4.88,0,9-2.56,9-7.52,0-4.57-3.41-7.32-8.6-7.32ZM517.18,139h-5.66V128.87h5.81c3.72,0,6.16,1.71,6.16,5,0,3-2.52,5.08-6.31,5.08Z" transform="translate(-15.67 -16.93)" style="fill:#00718f"/>
<path d="M540.23,126.32h-2.4L527.4,149.41h2.68l2.71-6h12.44l2.71,6h2.79ZM533.76,141l5.27-11.7,5.19,11.7Z" transform="translate(-15.67 -16.93)" style="fill:#00718f"/>
<polygon points="546.07 111.91 546.07 132.44 543.43 132.44 543.43 111.91 535.76 111.91 535.76 109.54 553.78 109.54 553.78 111.91 546.07 111.91" style="fill:#00718f"/>
<polygon points="575.24 132.44 575.24 122.14 562.03 122.14 562.03 132.44 559.43 132.44 559.43 109.54 562.03 109.54 562.03 119.73 575.24 119.73 575.24 109.54 577.84 109.54 577.84 132.44 575.24 132.44" style="fill:#00718f"/>
<path d="M347.12,134.22h8.45s-9.15.78-11.36,3.6c-2,2.6,20.23,5.23,20.31,5s-3.68-.89-6.67-1.63c-4.18-1-8.17-2.36-6.16-4.3,1.71-1.62,6.16-1.82,6.16-1.82h4.42s-6.12,1-6.32,2.21c0,.39.2.78,1.24,1.12,3.14,1,10.27,1.75,12.87,2a17.38,17.38,0,1,0-34.56-3.22c2.32-2.4,11.62-3,11.62-3Z" transform="translate(-15.67 -16.93)" style="fill:#00718f"/>
<path d="M350.06,144.84c-7.44-1.36-12.78-3.45-14.53-5.23a17.37,17.37,0,0,0,28,11.93c-.08-3.18-6.86-5.54-13.45-6.7Z" transform="translate(-15.67 -16.93)" style="fill:#00718f"/>
<path d="M396.32,117.48l-.36,3H394l1.06-8.74H398a4,4,0,0,1,1.33.19,2.44,2.44,0,0,1,.91.52,2,2,0,0,1,.53.78,2.88,2.88,0,0,1,.17,1,4,4,0,0,1-.22,1.32,2.74,2.74,0,0,1-.67,1,3.1,3.1,0,0,1-1.14.7,4.73,4.73,0,0,1-1.63.25Zm.54-4.34-.35,2.87h.94a1.79,1.79,0,0,0,.7-.12,1.09,1.09,0,0,0,.46-.35,1.36,1.36,0,0,0,.26-.54,2.82,2.82,0,0,0,.08-.68,1.72,1.72,0,0,0-.07-.47,1.17,1.17,0,0,0-.21-.38,1.08,1.08,0,0,0-.37-.24,1.35,1.35,0,0,0-.52-.09Z" transform="translate(-15.67 -16.93)" style="fill:#00718f"/>
<path d="M403.54,117.16l-.4,3.27H401.2l1.07-8.74h2.65a4.62,4.62,0,0,1,1.37.17,2.54,2.54,0,0,1,.93.47,1.79,1.79,0,0,1,.52.71,2.35,2.35,0,0,1,.17.89,3.46,3.46,0,0,1-.13.92,2.75,2.75,0,0,1-.38.79,2.64,2.64,0,0,1-.6.65,3.52,3.52,0,0,1-.81.45,2,2,0,0,1,.33.25,1.36,1.36,0,0,1,.25.36l1.28,3.08h-1.77a.76.76,0,0,1-.41-.1.62.62,0,0,1-.24-.27l-.94-2.59a.49.49,0,0,0-.18-.23.59.59,0,0,0-.33-.08Zm.5-4-.33,2.67h.72a1.88,1.88,0,0,0,.71-.12,1.36,1.36,0,0,0,.48-.35,1.26,1.26,0,0,0,.26-.5,2.09,2.09,0,0,0,.08-.61,1.33,1.33,0,0,0-.07-.45,1,1,0,0,0-.22-.34,1.13,1.13,0,0,0-.39-.22,1.71,1.71,0,0,0-.54-.08Z" transform="translate(-15.67 -16.93)" style="fill:#00718f"/>
<path d="M417,115.5a5.43,5.43,0,0,1-.17,1.35,4.91,4.91,0,0,1-.47,1.21,4.56,4.56,0,0,1-.73,1,4,4,0,0,1-1,.78,5,5,0,0,1-1.16.5,4.66,4.66,0,0,1-1.31.17,3.79,3.79,0,0,1-1.55-.3,3.41,3.41,0,0,1-1.17-.83,3.64,3.64,0,0,1-.74-1.23,4.56,4.56,0,0,1-.25-1.54,5.43,5.43,0,0,1,.16-1.35,5.16,5.16,0,0,1,.47-1.21,4.68,4.68,0,0,1,1.7-1.79,4.8,4.8,0,0,1,2.48-.68,3.86,3.86,0,0,1,1.55.3,3.61,3.61,0,0,1,1.16.83,3.71,3.71,0,0,1,.73,1.25A4.47,4.47,0,0,1,417,115.5Zm-2,0a3.37,3.37,0,0,0-.13-1,2.19,2.19,0,0,0-.37-.75,1.81,1.81,0,0,0-.61-.49,1.94,1.94,0,0,0-.82-.17,2.2,2.2,0,0,0-1.07.25,2.36,2.36,0,0,0-.81.7,3.38,3.38,0,0,0-.51,1.08,5.11,5.11,0,0,0-.18,1.4,3.69,3.69,0,0,0,.13,1,2.19,2.19,0,0,0,.37.75,1.56,1.56,0,0,0,.6.48,1.83,1.83,0,0,0,.82.17,2.23,2.23,0,0,0,1.89-.94,3.38,3.38,0,0,0,.51-1.08A5.05,5.05,0,0,0,415,115.54Z" transform="translate(-15.67 -16.93)" style="fill:#00718f"/>
<path d="M421.12,118.89a1.46,1.46,0,0,0,.67-.14,1.58,1.58,0,0,0,.53-.4,2.08,2.08,0,0,0,.38-.63,3.45,3.45,0,0,0,.2-.84l.64-5.19h1.95l-.63,5.19a4.73,4.73,0,0,1-.43,1.47,3.71,3.71,0,0,1-2,1.9,4,4,0,0,1-1.49.27,3.49,3.49,0,0,1-1.42-.27,2.65,2.65,0,0,1-1-.75,2.86,2.86,0,0,1-.55-1.15,4.19,4.19,0,0,1-.06-1.47l.63-5.19h1.95l-.63,5.19a3,3,0,0,0,0,.84,1.68,1.68,0,0,0,.23.63,1.1,1.1,0,0,0,.43.4A1.27,1.27,0,0,0,421.12,118.89Z" transform="translate(-15.67 -16.93)" style="fill:#00718f"/>
<path d="M433.85,115.5a5.43,5.43,0,0,1-.16,1.35,5.16,5.16,0,0,1-.46,1.19,5.06,5.06,0,0,1-.73,1,5,5,0,0,1-1,.75,4.58,4.58,0,0,1-1.16.48,5.19,5.19,0,0,1-1.32.17h-3.14l1.08-8.74h3.14a3.86,3.86,0,0,1,1.55.29,3.39,3.39,0,0,1,1.16.8,3.51,3.51,0,0,1,.74,1.2A4.41,4.41,0,0,1,433.85,115.5Zm-2,0a3.59,3.59,0,0,0-.13-1,2.18,2.18,0,0,0-.36-.75,1.72,1.72,0,0,0-.6-.47,1.92,1.92,0,0,0-.81-.17h-1.18l-.69,5.73h1.17a2.52,2.52,0,0,0,1.08-.23,2.34,2.34,0,0,0,.82-.68,3.28,3.28,0,0,0,.52-1.06A5.13,5.13,0,0,0,431.85,115.54Z" transform="translate(-15.67 -16.93)" style="fill:#00718f"/>
<path d="M436.57,118.87h2.94l-.19,1.56h-4.89l1.08-8.74h1.95Z" transform="translate(-15.67 -16.93)" style="fill:#00718f"/>
<path d="M443.59,117.08l-.42,3.35h-1.95l.41-3.33-2.25-5.41h1.74a.62.62,0,0,1,.39.11.62.62,0,0,1,.21.31l.84,2.65a7.18,7.18,0,0,1,.27,1c.08-.15.16-.31.25-.46l.3-.51,1.49-2.65a1,1,0,0,1,.27-.29.63.63,0,0,1,.41-.13h1.62Z" transform="translate(-15.67 -16.93)" style="fill:#00718f"/>
<path d="M454.2,113.44a2.06,2.06,0,0,1-.21.21.51.51,0,0,1-.25.06.54.54,0,0,1-.28-.09l-.31-.19a1.78,1.78,0,0,0-.39-.2,1.38,1.38,0,0,0-.52-.09,1.18,1.18,0,0,0-.48.08.87.87,0,0,0-.56.54,1.29,1.29,0,0,0-.06.4.63.63,0,0,0,.13.41,1.32,1.32,0,0,0,.36.28,4.08,4.08,0,0,0,.51.23c.19.06.38.14.58.22s.39.17.58.27a2.46,2.46,0,0,1,.51.39,1.85,1.85,0,0,1,.36.57,2.08,2.08,0,0,1,.13.79,3.41,3.41,0,0,1-.22,1.24,3,3,0,0,1-.66,1,3.11,3.11,0,0,1-1,.69,3.56,3.56,0,0,1-1.37.25,3.22,3.22,0,0,1-.76-.08,3.76,3.76,0,0,1-.74-.24,3.72,3.72,0,0,1-.65-.36,2.57,2.57,0,0,1-.51-.47l.7-.91a.71.71,0,0,1,.21-.17.54.54,0,0,1,.25-.06.56.56,0,0,1,.32.11l.35.26a2.42,2.42,0,0,0,.45.26,1.48,1.48,0,0,0,.63.12,1.14,1.14,0,0,0,.84-.3,1.19,1.19,0,0,0,.3-.88.68.68,0,0,0-.14-.44,1.14,1.14,0,0,0-.35-.3,3.26,3.26,0,0,0-.5-.21l-.58-.2a4.17,4.17,0,0,1-.57-.26,1.7,1.7,0,0,1-.51-.38,2,2,0,0,1-.35-.58,2.37,2.37,0,0,1-.13-.85,3.05,3.05,0,0,1,.21-1.12,2.92,2.92,0,0,1,.63-.95,2.87,2.87,0,0,1,1-.66,3.26,3.26,0,0,1,1.31-.25,3.38,3.38,0,0,1,.72.08,2.69,2.69,0,0,1,.66.22,3.39,3.39,0,0,1,.56.32,2.34,2.34,0,0,1,.42.41Z" transform="translate(-15.67 -16.93)" style="fill:#00718f"/>
<path d="M457.39,117.48l-.36,3h-1.94l1.07-8.74h2.89a4,4,0,0,1,1.33.19,2.49,2.49,0,0,1,.92.52,2.06,2.06,0,0,1,.52.78,2.88,2.88,0,0,1,.17,1,3.77,3.77,0,0,1-.22,1.32,2.74,2.74,0,0,1-.67,1,3.1,3.1,0,0,1-1.14.7,4.69,4.69,0,0,1-1.63.25Zm.54-4.34-.35,2.87h.94a1.85,1.85,0,0,0,.71-.12,1.15,1.15,0,0,0,.46-.35,1.35,1.35,0,0,0,.25-.54,2.4,2.4,0,0,0,.08-.68,1.41,1.41,0,0,0-.07-.47.89.89,0,0,0-.21-.38,1.13,1.13,0,0,0-.36-.24,1.38,1.38,0,0,0-.52-.09Z" transform="translate(-15.67 -16.93)" style="fill:#00718f"/>
<path d="M470.83,115.5a5.43,5.43,0,0,1-.17,1.35,4.91,4.91,0,0,1-.47,1.21,4.56,4.56,0,0,1-.73,1,4.21,4.21,0,0,1-1,.78,5,5,0,0,1-1.16.5,4.71,4.71,0,0,1-1.31.17,3.79,3.79,0,0,1-1.55-.3,3.41,3.41,0,0,1-1.17-.83,3.64,3.64,0,0,1-.74-1.23,4.56,4.56,0,0,1-.25-1.54,5.43,5.43,0,0,1,.16-1.35,5.16,5.16,0,0,1,.47-1.21,4.67,4.67,0,0,1,.74-1,4.45,4.45,0,0,1,1-.77,4.62,4.62,0,0,1,1.16-.5,4.78,4.78,0,0,1,1.32-.18,3.86,3.86,0,0,1,1.55.3,3.61,3.61,0,0,1,1.16.83,3.71,3.71,0,0,1,.73,1.25A4.47,4.47,0,0,1,470.83,115.5Zm-2,0a3.37,3.37,0,0,0-.13-1,2.19,2.19,0,0,0-.37-.75,1.81,1.81,0,0,0-.61-.49,1.94,1.94,0,0,0-.82-.17,2.2,2.2,0,0,0-1.07.25,2.36,2.36,0,0,0-.81.7,3.38,3.38,0,0,0-.51,1.08,5.11,5.11,0,0,0-.18,1.4,3.69,3.69,0,0,0,.13,1,2.19,2.19,0,0,0,.37.75,1.56,1.56,0,0,0,.6.48,1.8,1.8,0,0,0,.82.17,2.23,2.23,0,0,0,1.89-.94,3.38,3.38,0,0,0,.51-1.08A5.05,5.05,0,0,0,468.82,115.54Z" transform="translate(-15.67 -16.93)" style="fill:#00718f"/>
<path d="M473.72,111.7a.37.37,0,0,1,.15,0,.47.47,0,0,1,.12.09.74.74,0,0,1,.11.16l3.07,5.4,0-.41c0-.12,0-.24.05-.36l.58-4.93h1.73l-1.08,8.74h-1a.81.81,0,0,1-.37-.08.76.76,0,0,1-.26-.25l-3.06-5.39c0,.11,0,.22,0,.32s0,.21,0,.3l-.6,5.1h-1.73l1.08-8.74h1.25Z" transform="translate(-15.67 -16.93)" style="fill:#00718f"/>
<path d="M485.46,113.44a1,1,0,0,1-.21.21.49.49,0,0,1-.52,0l-.31-.19a2,2,0,0,0-.39-.2,1.4,1.4,0,0,0-.53-.09,1.21,1.21,0,0,0-.48.08.89.89,0,0,0-.34.21.81.81,0,0,0-.21.33,1.05,1.05,0,0,0-.07.4.64.64,0,0,0,.14.41,1.32,1.32,0,0,0,.36.28,3.91,3.91,0,0,0,.5.23c.19.06.38.14.58.22a6.11,6.11,0,0,1,.58.27,2.46,2.46,0,0,1,.51.39,1.85,1.85,0,0,1,.36.57,2.07,2.07,0,0,1,.14.79,3.41,3.41,0,0,1-.23,1.24,3,3,0,0,1-.65,1,3.15,3.15,0,0,1-1,.69,3.49,3.49,0,0,1-1.37.25,3.33,3.33,0,0,1-.76-.08,3.67,3.67,0,0,1-.73-.24,3.72,3.72,0,0,1-.65-.36,2.57,2.57,0,0,1-.51-.47l.7-.91a.67.67,0,0,1,.2-.17.57.57,0,0,1,.25-.06.62.62,0,0,1,.33.11l.35.26a2.42,2.42,0,0,0,.45.26,1.46,1.46,0,0,0,.62.12,1.14,1.14,0,0,0,.85-.3,1.23,1.23,0,0,0,.29-.88.68.68,0,0,0-.13-.44,1.07,1.07,0,0,0-.36-.3,2.59,2.59,0,0,0-.5-.21l-.57-.2a4.29,4.29,0,0,1-.58-.26,1.66,1.66,0,0,1-.5-.38,1.76,1.76,0,0,1-.35-.58,2.36,2.36,0,0,1-.14-.85,2.87,2.87,0,0,1,.22-1.12,2.92,2.92,0,0,1,.63-.95,2.87,2.87,0,0,1,1-.66,3.19,3.19,0,0,1,1.31-.25,3.53,3.53,0,0,1,.72.08,3,3,0,0,1,.66.22,2.94,2.94,0,0,1,.55.32,2.82,2.82,0,0,1,.43.41Z" transform="translate(-15.67 -16.93)" style="fill:#00718f"/>
<path d="M494.91,115.5a5.43,5.43,0,0,1-.16,1.35,5.34,5.34,0,0,1-.47,1.21,4.91,4.91,0,0,1-.73,1,4.26,4.26,0,0,1-1,.78,4.84,4.84,0,0,1-1.16.5,4.66,4.66,0,0,1-1.31.17,3.86,3.86,0,0,1-1.55-.3,3.41,3.41,0,0,1-1.17-.83,3.62,3.62,0,0,1-.73-1.23,4.57,4.57,0,0,1-.26-1.54,5.43,5.43,0,0,1,.17-1.35,4.76,4.76,0,0,1,.47-1.21,4.62,4.62,0,0,1,.73-1,4.51,4.51,0,0,1,1-.77,4.55,4.55,0,0,1,1.15-.5,4.78,4.78,0,0,1,1.32-.18,3.83,3.83,0,0,1,1.55.3,3.41,3.41,0,0,1,1.16.83,3.73,3.73,0,0,1,.74,1.25A4.47,4.47,0,0,1,494.91,115.5Zm-2,0a3.75,3.75,0,0,0-.13-1,2.21,2.21,0,0,0-.38-.75,1.81,1.81,0,0,0-.61-.49,1.94,1.94,0,0,0-.82-.17,2.25,2.25,0,0,0-1.07.25,2.46,2.46,0,0,0-.81.7,3.38,3.38,0,0,0-.51,1.08,5.54,5.54,0,0,0-.17,1.4,3.7,3.7,0,0,0,.12,1,2.39,2.39,0,0,0,.37.75,1.56,1.56,0,0,0,.6.48,1.87,1.87,0,0,0,.83.17,2.31,2.31,0,0,0,1.07-.24,2.36,2.36,0,0,0,.81-.7,3.19,3.19,0,0,0,.52-1.08A5.05,5.05,0,0,0,492.91,115.54Z" transform="translate(-15.67 -16.93)" style="fill:#00718f"/>
<path d="M497.82,117.16l-.4,3.27h-1.95l1.07-8.74h2.66a4.62,4.62,0,0,1,1.37.17,2.57,2.57,0,0,1,.92.47,1.82,1.82,0,0,1,.53.71,2.35,2.35,0,0,1,.16.89,3.1,3.1,0,0,1-.13.92,2.73,2.73,0,0,1-.37.79,3.09,3.09,0,0,1-.6.65,3.39,3.39,0,0,1-.82.45,2,2,0,0,1,.33.25,1.38,1.38,0,0,1,.26.36l1.27,3.08h-1.76a.76.76,0,0,1-.41-.1.62.62,0,0,1-.24-.27l-.95-2.59a.43.43,0,0,0-.18-.23.56.56,0,0,0-.32-.08Zm.5-4-.33,2.67h.71a1.94,1.94,0,0,0,.72-.12,1.41,1.41,0,0,0,.47-.35,1.28,1.28,0,0,0,.27-.5,2.49,2.49,0,0,0,.08-.61,1.63,1.63,0,0,0-.07-.45,1,1,0,0,0-.23-.34,1.09,1.09,0,0,0-.38-.22,1.82,1.82,0,0,0-.55-.08Z" transform="translate(-15.67 -16.93)" style="fill:#00718f"/>
<path d="M508.94,113.19h-3.23l-.27,2.11h2.48l-.19,1.46h-2.47l-.26,2.16h3.25l-.19,1.51h-5.22l1.08-8.74h5.21Z" transform="translate(-15.67 -16.93)" style="fill:#00718f"/>
<path d="M517.2,115.5a5.43,5.43,0,0,1-.16,1.35,5.16,5.16,0,0,1-.46,1.19,5.06,5.06,0,0,1-.73,1,5,5,0,0,1-1,.75,4.58,4.58,0,0,1-1.16.48,5.19,5.19,0,0,1-1.32.17h-3.14l1.08-8.74h3.14A3.83,3.83,0,0,1,515,112a3.43,3.43,0,0,1,1.17.8,3.49,3.49,0,0,1,.73,1.2A4.19,4.19,0,0,1,517.2,115.5Zm-2,0a3.23,3.23,0,0,0-.13-1,2.18,2.18,0,0,0-.36-.75,1.63,1.63,0,0,0-.6-.47,1.89,1.89,0,0,0-.81-.17h-1.17l-.7,5.73h1.18a2.47,2.47,0,0,0,1.07-.23,2.34,2.34,0,0,0,.82-.68A3.28,3.28,0,0,0,515,117,5.13,5.13,0,0,0,515.2,115.54Z" transform="translate(-15.67 -16.93)" style="fill:#00718f"/>
<path d="M520.24,120.43l1.08-8.74h3a4.93,4.93,0,0,1,1.3.14,2.53,2.53,0,0,1,.89.41,1.54,1.54,0,0,1,.5.64,2,2,0,0,1,.16.83,2.69,2.69,0,0,1-.09.7,2,2,0,0,1-.29.61,2.56,2.56,0,0,1-.52.52,3.07,3.07,0,0,1-.77.38,2.06,2.06,0,0,1,1,.6,1.56,1.56,0,0,1,.33,1,2.66,2.66,0,0,1-.23,1.13,2.51,2.51,0,0,1-.67.92,3.14,3.14,0,0,1-1.06.61,4.19,4.19,0,0,1-1.42.23Zm2.41-3.73-.28,2.26h1.29a1.5,1.5,0,0,0,.6-.11.92.92,0,0,0,.4-.29,1.14,1.14,0,0,0,.22-.44,1.93,1.93,0,0,0,.07-.55,1,1,0,0,0-.05-.36.62.62,0,0,0-.17-.28.85.85,0,0,0-.33-.17,1.73,1.73,0,0,0-.49-.06Zm.15-1.3h.94a2.12,2.12,0,0,0,.59-.07,1,1,0,0,0,.46-.22,1.17,1.17,0,0,0,.29-.42,1.83,1.83,0,0,0,.1-.66.81.81,0,0,0-.25-.68,1.24,1.24,0,0,0-.79-.21h-1.06Z" transform="translate(-15.67 -16.93)" style="fill:#00718f"/>
<path d="M531.74,117.08l-.41,3.35h-2l.41-3.33-2.25-5.41h1.74a.62.62,0,0,1,.39.11.69.69,0,0,1,.21.31l.84,2.65a7.18,7.18,0,0,1,.27,1,5.2,5.2,0,0,1,.25-.46l.29-.51,1.49-2.65a1.45,1.45,0,0,1,.27-.29.64.64,0,0,1,.42-.13h1.62Z" transform="translate(-15.67 -16.93)" style="fill:#00718f"/>
</svg>
