<?xml version="1.0" encoding="utf-8"?>
<!-- Generator: Adobe Illustrator 22.1.0, SVG Export Plug-In . SVG Version: 6.00 Build 0)  -->
<svg version="1.1" id="Layer_1" xmlns="http://www.w3.org/2000/svg" xmlns:xlink="http://www.w3.org/1999/xlink" x="0px" y="0px"
	 viewBox="0 0 667 91" style="enable-background:new 0 0 667 91;" xml:space="preserve">
<style type="text/css">
	.st0{fill:#FFFFFF;}
</style>
<desc>Created with Sketch.</desc>
<g id="smartpath-white" transform="translate(-274.000000, 45.000000)">
	<g id="Layer_1_1_">
		<path id="Shape" class="st0" d="M419.5-20.5c-6.1,0-9.6,3.1-9.6,7.1c0,4.7,2.7,6.7,14,9.4c12.5,3,19,7.5,19,17.4
			c0,11.2-8.7,17.8-21.1,17.8c-9.1,0-17.9-3.3-24.7-9.5l6.2-7.4C409,19.2,414.6,22,422,22c6.4,0,10.5-3,10.5-7.5
			c0-4.3-2.4-6.6-13.4-9.1c-12.6-3-19.7-6.8-19.7-17.8c0-10.3,8.5-17.2,20.2-17.2c7.8-0.2,15.4,2.5,21.5,7.4l-5.6,7.9
			C430.2-18.4,424.9-20.5,419.5-20.5L419.5-20.5L419.5-20.5z"/>
		<polygon id="Shape_1_" class="st0" points="505,30.3 505,-12.1 486.4,15.8 486,15.8 467.5,-11.9 467.5,30.3 457.3,30.3 
			457.3,-28.8 468.4,-28.8 486.4,-0.9 504.4,-28.8 515.4,-28.8 515.4,30.3 		"/>
		<path id="Shape_2_" class="st0" d="M563.3-29.2h-9.6l-26,59.6h10.6l6.1-14.3h28l6,14.3h11L563.3-29.2z M548.2,6.8l10.1-23.7
			l10.2,23.7H548.2L548.2,6.8z"/>
		<path id="Shape_3_" class="st0" d="M635.8,7.9c8.3-2.3,14.1-8.2,14.1-18c0-11.6-8.4-18.8-22-18.8h-26.3v59.2H612V9.7h13l14.6,20.6
			h12.2L635.8,7.9z M612,0.5v-19.9h15.1c7.7,0,12.3,3.4,12.3,9.9c0,6.1-4.7,10-12.2,10L612,0.5L612,0.5z"/>
		<polygon id="Shape_4_" class="st0" points="689.6,-19.2 689.6,30.3 679.1,30.3 679.1,-19.2 660.3,-19.2 660.3,-28.8 708.3,-28.8 
			708.3,-19.2 		"/>
		<path id="Shape_5_" class="st0" d="M744.3-28.8h-22.1v59.2h6.7V9.5h14.4c12.6,0,23.2-6.6,23.2-19.4
			C766.5-21.7,757.7-28.8,744.3-28.8L744.3-28.8z M743.5,3.4h-14.6v-26h15c9.6,0,15.9,4.4,15.9,12.9C759.7-1.9,753.3,3.4,743.5,3.4
			L743.5,3.4z"/>
		<path id="Shape_6_" class="st0" d="M803-29.2h-6.2l-26.9,59.6h6.9l7-15.6h32.1l7,15.6h7.2L803-29.2z M786.3,8.8l13.6-30.2
			l13.4,30.2L786.3,8.8L786.3,8.8z"/>
		<polygon id="Shape_7_" class="st0" points="858.5,-22.7 858.5,30.3 851.7,30.3 851.7,-22.7 831.9,-22.7 831.9,-28.8 878.4,-28.8 
			878.4,-22.7 		"/>
		<polygon id="Shape_8_" class="st0" points="933.8,30.3 933.8,3.7 899.7,3.7 899.7,30.3 893,30.3 893,-28.8 899.7,-28.8 
			899.7,-2.5 933.8,-2.5 933.8,-28.8 940.5,-28.8 940.5,30.3 		"/>
		<path id="Shape_9_" class="st0" d="M304.6-8.8h21.8c0,0-23.6,2-29.3,9.3c-5.3,6.7,52.2,13.5,52.4,13c0.2-0.5-9.5-2.3-17.2-4.2
			c-10.8-2.6-21.1-6.1-15.9-11.1c4.4-4.2,15.9-4.7,15.9-4.7h11.4c0,0-15.8,2.6-16.3,5.7c-0.1,1,0.5,2,3.2,2.9
			c8.1,2.6,26.5,4.5,33.2,5.1c2.5-16.5-4.3-32.9-17.7-42.8c-13.4-9.9-31.2-11.6-46.1-4.3s-24.8,22.2-25.4,38.8
			C280.6-7.3,304.6-8.8,304.6-8.8L304.6-8.8z"/>
		<path id="Shape_10_" class="st0" d="M312.2,18.6c-19.2-3.5-33-8.9-37.5-13.5c1.6,16.3,12,30.3,27,36.7c15,6.4,32.3,4.2,45.2-5.9
			C346.7,27.7,329.2,21.6,312.2,18.6L312.2,18.6z"/>
	</g>
</g>
</svg>
