<svg xmlns="http://www.w3.org/2000/svg" viewBox="0 0 593.06 98.26"><title>whack-a-mole-logo</title><path d="M127.21,122.68l-4.72.7c-.21-8.43-.31-12.64-.49-21.07l4.81-.7C127,110,127,114.26,127.21,122.68Z" transform="translate(-1.26 -26.76)"/><path d="M139.11,121c-.06-3.81-.08-5.71-.13-9.52a6.65,6.65,0,0,0-.09-1,1.48,1.48,0,0,0-.24-.63.76.76,0,0,0-.41-.3,1.3,1.3,0,0,0-.57,0,2.17,2.17,0,0,0-1,.44,4.32,4.32,0,0,0-.91,1,6.44,6.44,0,0,0-.71,1.44,7.18,7.18,0,0,0-.4,1.8c.07,3,.11,4.46.19,7.44l-4.47.63c-.13-6-.19-9-.29-15l2.33-.32a1.68,1.68,0,0,1,1.14.17,1.24,1.24,0,0,1,.53,1l.17,1.18a7.34,7.34,0,0,1,2.1-2.43,5.82,5.82,0,0,1,2.59-1,4.17,4.17,0,0,1,1.77.14,3.46,3.46,0,0,1,1.44.92,4.33,4.33,0,0,1,1,1.66,7.11,7.11,0,0,1,.36,2.39l.1,9.53Z" transform="translate(-1.26 -26.76)"/><path d="M147,116.73c0-.06,0-.14,0-.24s0-.23,0-.41,0-.41,0-.7,0-.68,0-1.17c0-2.45,0-3.68,0-6.13l-1.2.15a.65.65,0,0,1-.54-.15.73.73,0,0,1-.22-.63c0-.7,0-1,0-1.75l2.23-.75c.32-1.51.49-2.26.82-3.76a1,1,0,0,1,.91-.81l2.46-.31c0,1.76,0,2.63,0,4.39l3.39-.42c0,1.23,0,1.84,0,3.07l-3.38.41c0,2.36,0,3.54,0,5.89v1.45a1.43,1.43,0,0,0,0,.25v.08a1.08,1.08,0,0,0,.28.66.72.72,0,0,0,.65.21,1.39,1.39,0,0,0,.37-.1l.26-.15.2-.14a.52.52,0,0,1,.23-.08.4.4,0,0,1,.3.06,1.12,1.12,0,0,1,.24.27l1.23,2a6.74,6.74,0,0,1-1.8,1.2,7,7,0,0,1-2,.58,5.21,5.21,0,0,1-1.59,0,3.42,3.42,0,0,1-1.28-.54,3.13,3.13,0,0,1-.91-1A3.77,3.77,0,0,1,147,116.73Z" transform="translate(-1.26 -26.76)"/><path d="M168.59,106.1a4.28,4.28,0,0,1-.21,1.9,3.86,3.86,0,0,1-1.25,1.65,10.31,10.31,0,0,1-2.6,1.41,28.17,28.17,0,0,1-4.21,1.2,3.27,3.27,0,0,0,.94,2.13,2.44,2.44,0,0,0,2,.48,4.35,4.35,0,0,0,1-.21,3.81,3.81,0,0,0,.73-.35,6.55,6.55,0,0,0,.55-.39l.46-.39a3.46,3.46,0,0,1,.47-.31,1.7,1.7,0,0,1,.59-.16.81.81,0,0,1,.43.06,1.29,1.29,0,0,1,.39.23l1.31,1.2a16.2,16.2,0,0,1-1.41,1.51,8.73,8.73,0,0,1-1.46,1.1,7.58,7.58,0,0,1-1.64.73,10.85,10.85,0,0,1-2,.39,6.47,6.47,0,0,1-2.5-.16,5.65,5.65,0,0,1-2.06-1,5.82,5.82,0,0,1-1.48-1.83,7,7,0,0,1-.75-2.51,9.65,9.65,0,0,1,0-2.34,9.5,9.5,0,0,1,.52-2.21,8.53,8.53,0,0,1,1-2,8.16,8.16,0,0,1,1.47-1.63,7.8,7.8,0,0,1,1.9-1.16,7.66,7.66,0,0,1,2.28-.6,6.29,6.29,0,0,1,2.19.09,5.11,5.11,0,0,1,1.69.72,4,4,0,0,1,1.11,1.13A3.13,3.13,0,0,1,168.59,106.1Zm-5.41-.26a2.65,2.65,0,0,0-1.87,1.1,5.57,5.57,0,0,0-1,2.55,23.26,23.26,0,0,0,2.23-.71,6.28,6.28,0,0,0,1.29-.67,1.58,1.58,0,0,0,.58-.67,1.47,1.47,0,0,0,.09-.72,1.06,1.06,0,0,0-.37-.66A1.18,1.18,0,0,0,163.18,105.84Z" transform="translate(-1.26 -26.76)"/><path d="M170.86,117.14c.09-6,.13-9,.24-15l2.34-.25a1.68,1.68,0,0,1,1.13.21,1.25,1.25,0,0,1,.5,1l.18,1.69a9.24,9.24,0,0,1,1-1.77,5.36,5.36,0,0,1,1.19-1.19,3.2,3.2,0,0,1,1.32-.57,2.8,2.8,0,0,1,1.42.13c-.17,1.67-.25,2.51-.41,4.18a3.75,3.75,0,0,0-1.59-.16,2.38,2.38,0,0,0-1.27.62,4.17,4.17,0,0,0-1,1.48,10.2,10.2,0,0,0-.59,2.42c-.05,2.69-.07,4-.12,6.74Z" transform="translate(-1.26 -26.76)"/><path d="M190.14,115.21c.11-3.81.16-5.71.27-9.52a5.27,5.27,0,0,0,0-1,1.65,1.65,0,0,0-.21-.65.76.76,0,0,0-.4-.31,1.26,1.26,0,0,0-.56-.06,2.08,2.08,0,0,0-1,.4,3.84,3.84,0,0,0-.95.94,6.38,6.38,0,0,0-.77,1.4,7.17,7.17,0,0,0-.48,1.78c-.05,3-.08,4.47-.13,7.44l-4.48.44c.13-6,.2-9,.34-15l2.34-.23a1.72,1.72,0,0,1,1.13.22,1.28,1.28,0,0,1,.5,1l.11,1.19a7.43,7.43,0,0,1,2.2-2.34,5.78,5.78,0,0,1,2.63-.92,4,4,0,0,1,1.76.21,3.5,3.5,0,0,1,1.4,1,4.64,4.64,0,0,1,.89,1.7,7.18,7.18,0,0,1,.25,2.4l-.3,9.53Z" transform="translate(-1.26 -26.76)"/><path d="M209.86,113.56l-2.41.18a2,2,0,0,1-.71,0,1.13,1.13,0,0,1-.47-.26A1.09,1.09,0,0,1,206,113a2.42,2.42,0,0,1-.1-.56l-.09-1.06a7.65,7.65,0,0,1-1.9,2.14,4.5,4.5,0,0,1-2.43.92,4.09,4.09,0,0,1-1.59-.19,3.82,3.82,0,0,1-1.42-.86,4.91,4.91,0,0,1-1.06-1.58,7.37,7.37,0,0,1-.56-2.35,10.14,10.14,0,0,1,.42-3.89,9.7,9.7,0,0,1,1.84-3.35,10,10,0,0,1,3-2.42,10.19,10.19,0,0,1,4-1.13,18.05,18.05,0,0,1,2.21,0,10.05,10.05,0,0,1,2.23.35C210.3,104.83,210.15,107.74,209.86,113.56ZM203,110.8a1.61,1.61,0,0,0,.93-.44,4.45,4.45,0,0,0,.8-1.07,8.38,8.38,0,0,0,.64-1.53,14.29,14.29,0,0,0,.46-1.85l.2-4.15-.26,0a4.23,4.23,0,0,0-2,.65,4.81,4.81,0,0,0-1.46,1.45,6.09,6.09,0,0,0-.85,2,7.61,7.61,0,0,0-.17,2.4,5.25,5.25,0,0,0,.22,1.21,2.36,2.36,0,0,0,.38.78,1.2,1.2,0,0,0,.5.41A1.23,1.23,0,0,0,203,110.8Z" transform="translate(-1.26 -26.76)"/><path d="M213.78,110c0-.06,0-.14,0-.24s0-.23,0-.41,0-.41,0-.71,0-.68.05-1.16c.14-2.47.2-3.71.34-6.18l-1.13.08a.73.73,0,0,1-.56-.18.75.75,0,0,1-.2-.63l.1-1.68,2.19-.6,1.05-3.76a.94.94,0,0,1,1-.75l2.47-.17c-.11,1.77-.16,2.65-.27,4.42,4-.27,6-.4,10.05-.64-.39,6-.59,8.94-1,14.9l-4.33.27c.29-4.77.43-7.16.73-11.94l-5.64.37-.35,5.94c0,.39,0,.7-.05.93s0,.4,0,.52,0,.2,0,.24v.08a1.18,1.18,0,0,0,.24.68.7.7,0,0,0,.64.24,1.33,1.33,0,0,0,.64-.21l.21-.13a.44.44,0,0,1,.23-.06.41.41,0,0,1,.31.07,1,1,0,0,1,.21.28l1.13,2a7.24,7.24,0,0,1-1.87,1.1,7,7,0,0,1-2.05.46,4.74,4.74,0,0,1-1.58-.13,3.26,3.26,0,0,1-1.24-.6,3.18,3.18,0,0,1-.86-1A3.64,3.64,0,0,1,213.78,110Zm16-16.82a2.16,2.16,0,0,1-.18,1,2.76,2.76,0,0,1-.57.85,3.05,3.05,0,0,1-.84.62,2.69,2.69,0,0,1-1,.26,2.58,2.58,0,0,1-1-.14,2.76,2.76,0,0,1-.86-.51,2.84,2.84,0,0,1-.64-.78,2.36,2.36,0,0,1-.28-1,2.31,2.31,0,0,1,.16-1,2.63,2.63,0,0,1,.55-.87A2.91,2.91,0,0,1,226,91a2.51,2.51,0,0,1,1-.27,2.74,2.74,0,0,1,1,.14,2.79,2.79,0,0,1,1.55,1.31A2.28,2.28,0,0,1,229.81,93.22Z" transform="translate(-1.26 -26.76)"/><path d="M236.92,112.05a6.69,6.69,0,0,1-2.38-.29,5.69,5.69,0,0,1-2-1.1,5.83,5.83,0,0,1-1.37-1.9,7.13,7.13,0,0,1-.61-2.66,9.58,9.58,0,0,1,.45-3.67,9.05,9.05,0,0,1,1.63-3,8.17,8.17,0,0,1,2.51-2,7.58,7.58,0,0,1,3.1-.84,6.77,6.77,0,0,1,2.4.3,5.35,5.35,0,0,1,2,1.12,5.62,5.62,0,0,1,1.38,1.9,7.49,7.49,0,0,1,.59,2.67,9.68,9.68,0,0,1-.5,3.64,9.52,9.52,0,0,1-1.64,3,8.4,8.4,0,0,1-2.5,2A7.44,7.44,0,0,1,236.92,112.05Zm.23-3.32a2.2,2.2,0,0,0,1.33-.52,3.67,3.67,0,0,0,1-1.29,7.19,7.19,0,0,0,.55-1.85,10.73,10.73,0,0,0,.11-2.22,4.46,4.46,0,0,0-.56-2.3,1.61,1.61,0,0,0-1.49-.62,2.25,2.25,0,0,0-1.34.52,3.82,3.82,0,0,0-.95,1.28,6.79,6.79,0,0,0-.54,1.86,10.17,10.17,0,0,0-.11,2.23,4.58,4.58,0,0,0,.57,2.28A1.55,1.55,0,0,0,237.15,108.73Z" transform="translate(-1.26 -26.76)"/><path d="M254.93,111c.31-3.8.47-5.7.78-9.49a6.11,6.11,0,0,0,0-1,1.74,1.74,0,0,0-.18-.65.83.83,0,0,0-.38-.34,1.41,1.41,0,0,0-.56-.08,2.06,2.06,0,0,0-1,.34,4.06,4.06,0,0,0-1,.88,6.4,6.4,0,0,0-.84,1.37,7.2,7.2,0,0,0-.58,1.75c-.21,3-.31,4.45-.52,7.42-1.8.08-2.7.11-4.5.2.45-6,.68-9,1.15-15l2.35-.1a1.7,1.7,0,0,1,1.11.28,1.27,1.27,0,0,1,.44,1l.05,1.19a7.31,7.31,0,0,1,2.32-2.21,5.72,5.72,0,0,1,2.68-.78,3.91,3.91,0,0,1,1.74.31,3.41,3.41,0,0,1,1.34,1,4.64,4.64,0,0,1,.8,1.75,7.25,7.25,0,0,1,.12,2.42c-.33,3.79-.49,5.69-.81,9.49Z" transform="translate(-1.26 -26.76)"/><path d="M274.69,110.41l-2.41.06a2.41,2.41,0,0,1-.71-.09,1,1,0,0,1-.45-.29,1,1,0,0,1-.25-.44,3,3,0,0,1-.08-.55l0-1.07a7.81,7.81,0,0,1-2,2,4.55,4.55,0,0,1-2.48.78,3.77,3.77,0,0,1-2.94-1.21,4.82,4.82,0,0,1-1-1.63,7.22,7.22,0,0,1-.43-2.38,9.92,9.92,0,0,1,2.64-7.11,10.16,10.16,0,0,1,7.24-3.16,16.54,16.54,0,0,1,2.21.09,11.46,11.46,0,0,1,2.21.47C275.6,101.72,275.3,104.62,274.69,110.41ZM268,107.29a1.55,1.55,0,0,0,.95-.39,4.45,4.45,0,0,0,.86-1,8.73,8.73,0,0,0,.73-1.5,13.82,13.82,0,0,0,.55-1.82c.17-1.66.26-2.48.43-4.13h-.26a4.25,4.25,0,0,0-2,.54,4.91,4.91,0,0,0-1.54,1.37,6.29,6.29,0,0,0-1,2,7.44,7.44,0,0,0-.29,2.38,5.14,5.14,0,0,0,.15,1.22,2.6,2.6,0,0,0,.33.8,1.32,1.32,0,0,0,.48.44A1.31,1.31,0,0,0,268,107.29Z" transform="translate(-1.26 -26.76)"/><path d="M277.52,110.36c.89-8.62,1.34-12.92,2.27-21.54l4.52-.06c-1,8.6-1.43,12.91-2.35,21.52Z" transform="translate(-1.26 -26.76)"/><path d="M300.47,106.52a7,7,0,0,0,1.39-.12,5.38,5.38,0,0,0,1-.31,3.16,3.16,0,0,0,.71-.41l.53-.4a3.24,3.24,0,0,1,.43-.31.88.88,0,0,1,.44-.12.87.87,0,0,1,.39.08.58.58,0,0,1,.22.18l1.65,2a9.08,9.08,0,0,1-3.29,2.45,10.64,10.64,0,0,1-4.3.84,8.65,8.65,0,0,1-3.55-.69,7.62,7.62,0,0,1-2.62-1.91,8.29,8.29,0,0,1-1.62-2.88,11.32,11.32,0,0,1-.58-3.6,13.45,13.45,0,0,1,.39-3.41,12.11,12.11,0,0,1,1.14-3,11.54,11.54,0,0,1,1.78-2.46,11.21,11.21,0,0,1,2.33-1.86A11.28,11.28,0,0,1,302.78,89a10.61,10.61,0,0,1,2.2.23,7.62,7.62,0,0,1,1.8.63,6.24,6.24,0,0,1,1.43,1,6.62,6.62,0,0,1,1.1,1.21l-1.69,1.88a2,2,0,0,1-.41.36,1.08,1.08,0,0,1-.62.15,1,1,0,0,1-.46-.11,4.29,4.29,0,0,1-.41-.28l-.48-.37a3.17,3.17,0,0,0-.63-.37,4.34,4.34,0,0,0-.88-.28,5.29,5.29,0,0,0-1.2-.12,5.67,5.67,0,0,0-2.52.56,5.91,5.91,0,0,0-2,1.6,7.52,7.52,0,0,0-1.33,2.53,10.8,10.8,0,0,0-.48,3.33,8.23,8.23,0,0,0,.34,2.38,5.46,5.46,0,0,0,.9,1.77,3.78,3.78,0,0,0,1.36,1.1A3.89,3.89,0,0,0,300.47,106.52Z" transform="translate(-1.26 -26.76)"/><path d="M308.66,110.16c1.11-8.58,1.68-12.88,2.83-21.46,1.83,0,2.75,0,4.58,0-.47,3.41-.71,5.12-1.18,8.54a7,7,0,0,1,2.22-1.63,5.76,5.76,0,0,1,2.4-.49,4,4,0,0,1,1.74.4,3.45,3.45,0,0,1,1.29,1.11,4.38,4.38,0,0,1,.72,1.79,7.53,7.53,0,0,1,0,2.42c-.53,3.77-.79,5.66-1.31,9.44l-4.5-.08c.51-3.77.76-5.66,1.28-9.44a5.4,5.4,0,0,0,0-1,1.58,1.58,0,0,0-.15-.67.69.69,0,0,0-.36-.37,1.2,1.2,0,0,0-.57-.12,2.08,2.08,0,0,0-.95.25,3.85,3.85,0,0,0-1,.74,6.5,6.5,0,0,0-.88,1.17,7.62,7.62,0,0,0-.68,1.53c-.43,3.15-.64,4.73-1.06,7.88Z" transform="translate(-1.26 -26.76)"/><path d="M337.23,110.7l-2.41-.08a2,2,0,0,1-.7-.12,1.06,1.06,0,0,1-.44-.31,1,1,0,0,1-.22-.45,2,2,0,0,1,0-.56l0-1.06a7.72,7.72,0,0,1-2.11,1.92,4.59,4.59,0,0,1-2.51.66,4,4,0,0,1-1.56-.36,3.76,3.76,0,0,1-1.32-1,4.78,4.78,0,0,1-.89-1.68,7.3,7.3,0,0,1-.3-2.4,9.9,9.9,0,0,1,3-7,10.13,10.13,0,0,1,7.39-2.79,16.53,16.53,0,0,1,2.2.21,10.77,10.77,0,0,1,2.19.59C338.59,102.06,338.13,104.94,337.23,110.7Zm-6.54-3.47a1.56,1.56,0,0,0,1-.35,4.08,4.08,0,0,0,.91-1,8,8,0,0,0,.8-1.46,13,13,0,0,0,.65-1.79c.26-1.64.39-2.46.64-4.1h-.26a4.23,4.23,0,0,0-2,.43,4.89,4.89,0,0,0-1.61,1.29,6.1,6.1,0,0,0-1.06,1.93,7.54,7.54,0,0,0-.42,2.36,5.61,5.61,0,0,0,.09,1.23,2.71,2.71,0,0,0,.29.81,1.3,1.3,0,0,0,.46.47A1.26,1.26,0,0,0,330.69,107.23Z" transform="translate(-1.26 -26.76)"/><path d="M340.05,110.79c.93-5.93,1.4-8.89,2.34-14.82l2.35.08a1.68,1.68,0,0,1,1.09.37,1.26,1.26,0,0,1,.36,1.07l0,.87a6.86,6.86,0,0,1,2.11-1.79,4.45,4.45,0,0,1,2.27-.52,3,3,0,0,1,2.11.9,4,4,0,0,1,1,2.43A7.3,7.3,0,0,1,356,97.06a4.88,4.88,0,0,1,2.75-.65,3.77,3.77,0,0,1,1.7.46A3.18,3.18,0,0,1,361.61,98a4.4,4.4,0,0,1,.6,1.8,7.49,7.49,0,0,1-.1,2.42c-.64,3.76-1,5.63-1.61,9.39l-4.43-.21c.62-3.76.94-5.64,1.57-9.4a6,6,0,0,0,.1-1,1.78,1.78,0,0,0-.1-.67.66.66,0,0,0-.3-.37,1.13,1.13,0,0,0-.48-.13,1.86,1.86,0,0,0-.88.2,3,3,0,0,0-.82.65,6,6,0,0,0-.73,1.06,10.3,10.3,0,0,0-.6,1.41c-.54,3.24-.8,4.86-1.33,8.1l-4.44-.19c.6-3.76.91-5.64,1.51-9.4a6,6,0,0,0,.1-1,1.92,1.92,0,0,0-.11-.66.66.66,0,0,0-.3-.37,1,1,0,0,0-.48-.12,1.6,1.6,0,0,0-.89.21,2.92,2.92,0,0,0-.82.67,5.34,5.34,0,0,0-.72,1.08,10.76,10.76,0,0,0-.6,1.44c-.52,3.21-.77,4.82-1.29,8C342.7,110.87,341.82,110.84,340.05,110.79Z" transform="translate(-1.26 -26.76)"/><path d="M362.39,116.46c1.36-7.79,2.05-11.68,3.45-19.46l2.35.13a1.71,1.71,0,0,1,1.08.39,1.27,1.27,0,0,1,.33,1.07c0,.54,0,.81-.07,1.35a8.36,8.36,0,0,1,2.44-2,5,5,0,0,1,2.77-.63,4.39,4.39,0,0,1,1.7.43,3.37,3.37,0,0,1,1.28,1.1,4.93,4.93,0,0,1,.77,1.81,9.33,9.33,0,0,1,.15,2.56,11.39,11.39,0,0,1-.85,3.66,11.09,11.09,0,0,1-1.81,3,8.4,8.4,0,0,1-2.48,2,5.42,5.42,0,0,1-2.82.61A4.27,4.27,0,0,1,369,112a4.49,4.49,0,0,1-1.26-.87c-.41,2.22-.61,3.33-1,5.55Zm10.33-15.92a1.77,1.77,0,0,0-1,.29,4.74,4.74,0,0,0-1,.91,8.45,8.45,0,0,0-1,1.37,10.31,10.31,0,0,0-.8,1.71l-.65,3.56a2.66,2.66,0,0,0,.91.52,3.23,3.23,0,0,0,1,.2,2.29,2.29,0,0,0,1.48-.43,4.68,4.68,0,0,0,1.22-1.28,7.68,7.68,0,0,0,.87-1.87,8.92,8.92,0,0,0,.4-2.18,3.83,3.83,0,0,0-.3-2.09A1.32,1.32,0,0,0,372.72,100.54Z" transform="translate(-1.26 -26.76)"/><path d="M386.52,98.29c-1.15,5.89-1.71,8.83-2.84,14.72l-4.44-.3c1.11-5.89,1.67-8.84,2.79-14.73Zm1.14-4a2.08,2.08,0,0,1-.3,1,3,3,0,0,1-1.59,1.27,2.57,2.57,0,0,1-1,.14,2.36,2.36,0,0,1-1-.28,2.8,2.8,0,0,1-1.32-1.47,2.15,2.15,0,0,1-.15-1,2.23,2.23,0,0,1,.29-1,2.63,2.63,0,0,1,.65-.8,2.86,2.86,0,0,1,.88-.5,2.32,2.32,0,0,1,1-.14,2.48,2.48,0,0,1,1,.27,2.88,2.88,0,0,1,1.37,1.49A2.25,2.25,0,0,1,387.66,94.28Z" transform="translate(-1.26 -26.76)"/><path d="M392.67,113.9a6.83,6.83,0,0,1-2.33-.59,5.43,5.43,0,0,1-1.8-1.36,5.51,5.51,0,0,1-1.13-2,7.59,7.59,0,0,1-.26-2.72,9.47,9.47,0,0,1,.93-3.58,8.9,8.9,0,0,1,2-2.72,8,8,0,0,1,2.76-1.68,7.47,7.47,0,0,1,3.18-.43,6.62,6.62,0,0,1,2.34.6,5.36,5.36,0,0,1,1.81,1.37,5.62,5.62,0,0,1,1.12,2.06,7.2,7.2,0,0,1,.25,2.72,9.48,9.48,0,0,1-1,3.54,9.25,9.25,0,0,1-2,2.72,8.18,8.18,0,0,1-2.74,1.68A7.31,7.31,0,0,1,392.67,113.9Zm.65-3.26a2.18,2.18,0,0,0,1.39-.35,3.71,3.71,0,0,0,1.11-1.15,7.22,7.22,0,0,0,.78-1.77,9.9,9.9,0,0,0,.4-2.19,4.4,4.4,0,0,0-.26-2.34,1.59,1.59,0,0,0-1.4-.81,2.19,2.19,0,0,0-1.39.34,3.5,3.5,0,0,0-1.11,1.15,6.57,6.57,0,0,0-.78,1.77,10.1,10.1,0,0,0-.4,2.2,4.51,4.51,0,0,0,.27,2.33A1.6,1.6,0,0,0,393.32,110.64Z" transform="translate(-1.26 -26.76)"/><path d="M410.67,115.19c.8-3.73,1.2-5.59,2-9.32a6.35,6.35,0,0,0,.14-1,1.62,1.62,0,0,0-.09-.67.77.77,0,0,0-.33-.38,1.31,1.31,0,0,0-.55-.16,2.21,2.21,0,0,0-1.06.2,4.18,4.18,0,0,0-1.11.75,6.58,6.58,0,0,0-1,1.25,8,8,0,0,0-.79,1.66c-.59,2.92-.89,4.37-1.48,7.29l-4.49-.39c1.22-5.87,1.84-8.8,3.07-14.67l2.35.2a1.69,1.69,0,0,1,1.07.42,1.3,1.3,0,0,1,.3,1.08l-.11,1.19a7.31,7.31,0,0,1,2.59-1.89,5.77,5.77,0,0,1,2.76-.43,4.09,4.09,0,0,1,1.69.53,3.37,3.37,0,0,1,1.19,1.21,4.58,4.58,0,0,1,.57,1.84,7.11,7.11,0,0,1-.19,2.41c-.81,3.72-1.22,5.58-2,9.31Z" transform="translate(-1.26 -26.76)"/><path d="M429.38,105.23a1.43,1.43,0,0,1-.42.33.77.77,0,0,1-.47.07,1.48,1.48,0,0,1-.57-.19l-.58-.36a4.7,4.7,0,0,0-.71-.37,3.24,3.24,0,0,0-.94-.23,2.19,2.19,0,0,0-1.48.23,1.26,1.26,0,0,0-.53.94,1,1,0,0,0,.17.68,2.43,2.43,0,0,0,.59.55,5.6,5.6,0,0,0,.85.48l1,.51a11.18,11.18,0,0,1,1,.61,3.89,3.89,0,0,1,.82.8,3.24,3.24,0,0,1,.53,1,3.43,3.43,0,0,1,.09,1.38,5.06,5.06,0,0,1-2.14,3.65,6.46,6.46,0,0,1-2.16,1,7.79,7.79,0,0,1-2.72.16,7.29,7.29,0,0,1-1.39-.28,9.11,9.11,0,0,1-1.27-.52A5.69,5.69,0,0,1,418,115a3.77,3.77,0,0,1-.76-.8l1.26-1.52a1.81,1.81,0,0,1,.52-.41,1.21,1.21,0,0,1,.67-.09,1.1,1.1,0,0,1,.61.23l.53.43a4.33,4.33,0,0,0,.69.44,2.87,2.87,0,0,0,1.08.28,2,2,0,0,0,1.46-.27,1.32,1.32,0,0,0,.57-1,1.11,1.11,0,0,0-.17-.75,2.08,2.08,0,0,0-.58-.56,6,6,0,0,0-.84-.46c-.32-.14-.65-.3-1-.47a9.52,9.52,0,0,1-1-.56,3.69,3.69,0,0,1-.82-.76,3.09,3.09,0,0,1-.53-1,3.69,3.69,0,0,1-.1-1.44,5.41,5.41,0,0,1,.58-2,4.91,4.91,0,0,1,1.33-1.61,5.61,5.61,0,0,1,2-1,7.17,7.17,0,0,1,2.71-.19,6.86,6.86,0,0,1,2.66.8,6.56,6.56,0,0,1,1.83,1.47C430.18,104.36,429.92,104.65,429.38,105.23Z" transform="translate(-1.26 -26.76)"/><path d="M429.71,117.09c2-8.43,3-12.65,5-21.07l4.55.51-2,8.38a6.82,6.82,0,0,1,2.38-1.39,5.5,5.5,0,0,1,2.44-.25,3.94,3.94,0,0,1,1.69.57,3.51,3.51,0,0,1,1.18,1.24,4.51,4.51,0,0,1,.53,1.85,7.27,7.27,0,0,1-.25,2.41l-2.25,9.25-4.48-.52,2.22-9.27a5.73,5.73,0,0,0,.17-1,1.73,1.73,0,0,0-.09-.68.7.7,0,0,0-.32-.41,1.27,1.27,0,0,0-.55-.17,1.93,1.93,0,0,0-1,.15,3.76,3.76,0,0,0-1,.64,6,6,0,0,0-1,1.07,7.34,7.34,0,0,0-.84,1.46l-1.85,7.73Z" transform="translate(-1.26 -26.76)"/><path d="M453.85,104.94c-1.48,5.81-2.21,8.72-3.67,14.54l-4.41-.55c1.43-5.82,2.15-8.73,3.61-14.55Zm1.36-3.94a2.33,2.33,0,0,1-.36,1,2.94,2.94,0,0,1-.72.73,3.14,3.14,0,0,1-.94.45,2.57,2.57,0,0,1-1,.08,2.3,2.3,0,0,1-1-.33,2.68,2.68,0,0,1-.76-.66,2.78,2.78,0,0,1-.48-.88,2.2,2.2,0,0,1-.09-1,2.26,2.26,0,0,1,.34-1,2.9,2.9,0,0,1,.69-.75,2.94,2.94,0,0,1,.92-.46,2.3,2.3,0,0,1,1-.08,2.68,2.68,0,0,1,1,.32,2.8,2.8,0,0,1,.78.67,2.84,2.84,0,0,1,.5.9A2.27,2.27,0,0,1,455.21,101Z" transform="translate(-1.26 -26.76)"/><path d="M451.94,124.46c1.94-7.66,2.92-11.49,4.9-19.14l2.34.3a1.77,1.77,0,0,1,1.05.47,1.28,1.28,0,0,1,.25,1.1l-.17,1.33a8.78,8.78,0,0,1,2.58-1.84,5.2,5.2,0,0,1,2.82-.41,4.63,4.63,0,0,1,1.67.55,3.56,3.56,0,0,1,1.19,1.19,5,5,0,0,1,.63,1.87,8.88,8.88,0,0,1,0,2.56A11.07,11.07,0,0,1,468,116a11,11,0,0,1-2,2.84,8.29,8.29,0,0,1-2.62,1.78,5.42,5.42,0,0,1-2.87.4,4.47,4.47,0,0,1-1.63-.52,4.72,4.72,0,0,1-1.19-1c-.57,2.18-.86,3.28-1.42,5.46Zm11.51-15.09a1.73,1.73,0,0,0-1,.21,4.45,4.45,0,0,0-1.11.83,8.33,8.33,0,0,0-1.07,1.29,9.74,9.74,0,0,0-.92,1.65c-.37,1.4-.56,2.1-.92,3.5a2.73,2.73,0,0,0,.87.59,3.66,3.66,0,0,0,1,.27,2.3,2.3,0,0,0,1.5-.32,4.47,4.47,0,0,0,1.32-1.19,7.38,7.38,0,0,0,1-1.8,8.67,8.67,0,0,0,.57-2.14,3.86,3.86,0,0,0-.14-2.1A1.29,1.29,0,0,0,463.45,109.37Z" transform="translate(-1.26 -26.76)"/><path d="M480.92,111.84a2,2,0,0,1-.43.32.83.83,0,0,1-.48,0,1.47,1.47,0,0,1-.56-.21l-.57-.38a4.17,4.17,0,0,0-.7-.41,3.3,3.3,0,0,0-.93-.26,2.19,2.19,0,0,0-1.49.16,1.28,1.28,0,0,0-.57.91,1,1,0,0,0,.15.69,2.18,2.18,0,0,0,.56.58,7,7,0,0,0,.83.52c.32.17.64.35,1,.55a11.43,11.43,0,0,1,.95.65,4.09,4.09,0,0,1,.78.83,3.38,3.38,0,0,1,.49,1.07,3.56,3.56,0,0,1,0,1.39,5,5,0,0,1-2.3,3.55,6.28,6.28,0,0,1-2.19.87,8.06,8.06,0,0,1-2.74,0,7,7,0,0,1-1.37-.34,7.53,7.53,0,0,1-1.25-.57,6.25,6.25,0,0,1-1-.74,3.89,3.89,0,0,1-.72-.83l1.33-1.46a1.61,1.61,0,0,1,.53-.39,1.35,1.35,0,0,1,.68-.07,1.27,1.27,0,0,1,.6.26l.51.45a3.74,3.74,0,0,0,.67.48,3.15,3.15,0,0,0,1.07.33,2,2,0,0,0,1.47-.22,1.28,1.28,0,0,0,.61-.92,1.14,1.14,0,0,0-.13-.76,2.18,2.18,0,0,0-.56-.58,7,7,0,0,0-.83-.5c-.31-.15-.63-.32-1-.5a10.09,10.09,0,0,1-.94-.61,3.48,3.48,0,0,1-.79-.79,2.84,2.84,0,0,1-.49-1.07,3.59,3.59,0,0,1,0-1.44,5.45,5.45,0,0,1,.66-1.94,5,5,0,0,1,1.4-1.54,5.61,5.61,0,0,1,2.07-.93,7.19,7.19,0,0,1,2.72-.07,6.84,6.84,0,0,1,2.63.92,6.42,6.42,0,0,1,1.77,1.54Z" transform="translate(-1.26 -26.76)"/><path d="M40,67.54l-1.68-2.33A6,6,0,0,0,35,62.8c-2.1-.53-3.3-1.49-3.61-2.91-.67-3.13,4.09-5.82,14.31-7.88a44.38,44.38,0,0,1,11.88-1.16,4.82,4.82,0,0,1,2.43.87,2.91,2.91,0,0,1,1.19,1.8A2.31,2.31,0,0,1,61.08,55a18.68,18.68,0,0,1-1.73,2.27,2.18,2.18,0,0,0-.68,1.81,11.92,11.92,0,0,0,2.33,4c1.24,1.62,1.87,2.43,3.11,4.06A30.85,30.85,0,0,0,67,70.59a1.77,1.77,0,0,0,3-.69,20.76,20.76,0,0,0,1-4.07c.37-2.2.57-3.31.95-5.51a11.32,11.32,0,0,0,.19-3.46,2,2,0,0,0-2-1.65q-3.53-.39-4-2.92-.41-2.22,2-3.65t8.4-2.51a17.88,17.88,0,0,1,6.19-.24c2.12.4,3.33,1.41,3.6,3a3.19,3.19,0,0,1-.22,1.93,11.42,11.42,0,0,1-1.82,2.44,6.8,6.8,0,0,0-1.34,2.1,31.31,31.31,0,0,0-1.08,4.26C80.28,67,79.51,70.69,78,78c-2,8.61-3.12,13.74-3.53,15.39a35.12,35.12,0,0,1-1.4,4.49,5,5,0,0,1-1.53,2.22,6.26,6.26,0,0,1-2.66,1A6.5,6.5,0,0,1,65,101a7.37,7.37,0,0,1-3-2.7c-4.41-6.32-6.63-9.47-11.11-15.75a9.42,9.42,0,0,0-1.3-1.61,1.09,1.09,0,0,0-.94-.19,1.69,1.69,0,0,0-1.21,1.2,44,44,0,0,0-1.24,5.2c-1.09,5.4-1.62,8.1-2.66,13.5a12.56,12.56,0,0,1-1.82,5,6.41,6.41,0,0,1-3.77,2,6.12,6.12,0,0,1-4-.27,9.73,9.73,0,0,1-3.4-3.31Q19.63,88.34,8.37,72.91A13.49,13.49,0,0,0,6.54,70.7,8.36,8.36,0,0,0,4.14,70a3.42,3.42,0,0,1-2.78-2.73C.53,63.79,4.75,60.94,14,58.82c4.75-1.08,8.27-1.54,10.51-1.39s3.46,1.15,3.85,3a3.59,3.59,0,0,1,.11,1.26,11.64,11.64,0,0,1-.78,2,3.1,3.1,0,0,0-.1,1.83c.27,1.22,1.71,3.56,4.3,7l2.37,3.17A22.74,22.74,0,0,0,36.2,78a1.14,1.14,0,0,0,1.06.25c1-.22,1.77-1.79,2.27-4.73.29-1.81.44-2.72.74-4.52a2.26,2.26,0,0,0,0-.74A2.11,2.11,0,0,0,40,67.54Z" transform="translate(-1.26 -26.76)"/><path d="M109.3,43.43c.73,6.24,1.09,9.36,1.82,15.61.23,1.86,1,2.69,2.24,2.5A2.48,2.48,0,0,0,115,60a12.16,12.16,0,0,1,9.52-6.71c4.22-.59,7.74.17,10.54,2.24A8.82,8.82,0,0,1,138,59.06a23.45,23.45,0,0,1,1.58,6.18c.83,5.35,1.25,8,2.08,13.37a6,6,0,0,0,.82,2.51,7.92,7.92,0,0,0,2.34,1.78,2.52,2.52,0,0,1,1.38,1.9c.34,2.68-3.7,4.52-12.09,5.66-7.46,1-11.37.33-11.73-2.17a2.06,2.06,0,0,1,0-1c.1-.24.47-.9,1.1-2q1.33-2.26.17-10.43a19.75,19.75,0,0,0-2-7.06,4.74,4.74,0,0,0-5.09-2.41,4.06,4.06,0,0,0-3.3,2.16c-.43.88-.48,2.4-.16,4.58l1.08,7.15a46.11,46.11,0,0,0,1.28,5.3,9,9,0,0,0,2.13,2.07,2.59,2.59,0,0,1,1,1.71c.42,2.79-3.16,4.73-10.71,5.92-8.83,1.4-13.48.73-14-2.15a2.5,2.5,0,0,1,.17-1.61,11,11,0,0,1,1.81-2c.87-.82,1.25-2.73,1.15-5.71a132.47,132.47,0,0,0-1.83-14.61,85.88,85.88,0,0,0-2.3-11,3.66,3.66,0,0,0-.85-1.58,4.51,4.51,0,0,0-1.75-.83c-1.78-.52-2.76-1.29-2.93-2.32a3.44,3.44,0,0,1,1.37-3.31,29.33,29.33,0,0,1,6.79-3.67,48.37,48.37,0,0,1,11.22-3.65C108.32,41.68,109.17,42.18,109.3,43.43Z" transform="translate(-1.26 -26.76)"/><path d="M167,48.09a20.18,20.18,0,0,1,12.09,2.1,9.85,9.85,0,0,1,3.94,3.67A15.73,15.73,0,0,1,184.65,60c.17,2.23.26,3.34.43,5.57q.54,5.79,1.56,7.42a2.52,2.52,0,0,0,.91,1,5.46,5.46,0,0,0,1.68.27,1.38,1.38,0,0,1,1.39,1.45,6.15,6.15,0,0,1-1.17,3.87,12.69,12.69,0,0,1-3.56,3.6A12.45,12.45,0,0,1,180,85.35a8.22,8.22,0,0,1-6.7-2,2.18,2.18,0,0,0-1.62-.81,3.85,3.85,0,0,0-2,1.15,15.2,15.2,0,0,1-8.49,3.68,14.86,14.86,0,0,1-8.45-1.12,10.22,10.22,0,0,1-3.69-3.2,9.67,9.67,0,0,1-1.78-4.48,9.05,9.05,0,0,1,2.44-7.25c3-3.54,8-5.74,14.86-6.5a6,6,0,0,0,2.83-.74c.36-.33.49-1,.38-2a13.81,13.81,0,0,0-1.48-5.63,3,3,0,0,0-3.05-1.47,3.57,3.57,0,0,0-2.05.91,12.62,12.62,0,0,0-2,2.72q-3,5.11-6.8,5.57a4.59,4.59,0,0,1-3.28-.7,3.59,3.59,0,0,1-1.57-2.68A5.47,5.47,0,0,1,148.6,57a13.25,13.25,0,0,1,3.77-3.62A32.78,32.78,0,0,1,167,48.09ZM166.68,70a4,4,0,0,0-2.85,1.67,4.51,4.51,0,0,0-.92,3.35,4.4,4.4,0,0,0,1.22,2.78,2.91,2.91,0,0,0,2.49.84q3.12-.33,2.59-5.36a5.77,5.77,0,0,0-.75-2.71A2,2,0,0,0,166.68,70Z" transform="translate(-1.26 -26.76)"/><path d="M213.38,44.09a23.19,23.19,0,0,1,12.76,2.53c3.55,1.91,5.4,4.46,5.58,7.61a6.65,6.65,0,0,1-2.09,5.41,8,8,0,0,1-5.21,2.22,5.79,5.79,0,0,1-5.08-1.94,18,18,0,0,1-1.74-3.53,4.06,4.06,0,0,0-4.29-2.86,4.55,4.55,0,0,0-3.54,2,6.67,6.67,0,0,0-1.17,4.52,11.19,11.19,0,0,0,4,7.72,9.35,9.35,0,0,0,7.09,2.34,14.67,14.67,0,0,0,3.27-.53,21.54,21.54,0,0,0,3.42-1.5,2.75,2.75,0,0,1,1.2-.34A3,3,0,0,1,230,68.86a4.21,4.21,0,0,1,1.18,2.74,5.89,5.89,0,0,1-1.25,3.62,13.51,13.51,0,0,1-3.59,3.46,23.41,23.41,0,0,1-11.73,3.77,21.75,21.75,0,0,1-14-3.46c-5.11-3.4-8-8-8.49-13.84a17.15,17.15,0,0,1,5.67-14.55A24.39,24.39,0,0,1,213.38,44.09Z" transform="translate(-1.26 -26.76)"/><path d="M256,29.88,256,41.62c0,1.18.06,2.9.14,5.17.09,2.53.18,4,.27,4.46a1.61,1.61,0,0,0,1.73,1.48,8.56,8.56,0,0,0,3.6-1.57c1.62-1,2.42-1.75,2.41-2.22a3.44,3.44,0,0,0-.92-1.48,2.46,2.46,0,0,1-.69-1.48c-.08-2.69,3.43-4.16,10.54-4.32a28.56,28.56,0,0,1,8.74.89A4.51,4.51,0,0,1,284,44a3.35,3.35,0,0,1,.87,2.16,2.41,2.41,0,0,1-1.68,2.39,19.17,19.17,0,0,1-2.31.52,13.6,13.6,0,0,0-4.5,2.12q-2.74,1.8-2.73,2.58c0,.35,1.17,2,3.45,4.86s4.39,5.42,6.33,7.57a28.17,28.17,0,0,0,2.92,3,17,17,0,0,0,2.9,1.81c1.88,1,2.83,2.06,2.84,3.31a3.52,3.52,0,0,1-1.75,3.13,9.22,9.22,0,0,1-4.84,1.17c-5,.06-7.56.1-12.6.22a4.57,4.57,0,0,1-3.73-1.6c-2.67-3.13-4-4.69-6.71-7.8-1.79-2-2.89-3.26-3.28-3.64a1.52,1.52,0,0,0-1-.57c-.32,0-.52.24-.61.69a13.69,13.69,0,0,0-.07,2.56,5.74,5.74,0,0,0,.48,2.44,6.49,6.49,0,0,0,1.86,1.79,2.74,2.74,0,0,1,1.09,2.29q.09,2.63-2.75,3.88c-1.9.84-5,1.34-9.44,1.52-5.18.22-8.57.18-10.13-.17a4.47,4.47,0,0,1-2.34-1.4,3.82,3.82,0,0,1-1.06-2.36,3,3,0,0,1,1.51-2.56,9,9,0,0,0,1.73-1.4A3.42,3.42,0,0,0,239,71a103,103,0,0,0,.07-16.21l-.4-8.2a19,19,0,0,0-.72-5.33A2.52,2.52,0,0,0,235.6,40c-2.2-.16-3.35-1-3.42-2.38a3.26,3.26,0,0,1,1.31-2.64,16.44,16.44,0,0,1,4.64-2.5c6.93-2.77,12.13-4.18,15.53-4.3C255.2,28.07,256,28.66,256,29.88Z" transform="translate(-1.26 -26.76)"/><path d="M297.73,51.68a17.36,17.36,0,0,1,2.11.11q4.8.48,7.35.5a27.83,27.83,0,0,0,3.73-.16,13.88,13.88,0,0,1,1.79-.17c.82,0,1.23.59,1.21,1.74a14.91,14.91,0,0,1-.79,4.11,26.86,26.86,0,0,1-2,4.78A10.83,10.83,0,0,1,309.54,65a2.08,2.08,0,0,1-1.52.62,13.36,13.36,0,0,1-1.92-.19,49.36,49.36,0,0,0-8.06-.58c-1.29,0-2.47.06-3.54.17-.86.08-1.52.12-2,.12-1.07,0-1.61-.59-1.62-1.79a15,15,0,0,1,.9-4,23.27,23.27,0,0,1,1.77-4.4,8.85,8.85,0,0,1,1.91-2.48A3.55,3.55,0,0,1,297.73,51.68Z" transform="translate(-1.26 -26.76)"/><path d="M366.45,54.26c2.68,6.22,4,9.34,6.61,15.57a10.58,10.58,0,0,0,1.6,2.85,3.9,3.9,0,0,0,2.09,1c1.85.4,2.74,1.37,2.64,2.91-.11,1.82-1.34,3.06-3.67,3.72s-6.07.83-11.25.56a90.64,90.64,0,0,1-13-1.32,6.05,6.05,0,0,1-3-1.49,3.2,3.2,0,0,1-1.05-2.53,2.4,2.4,0,0,1,.67-1.72,5.56,5.56,0,0,1,2.29-1q1.86-.52,1.92-2c.07-1.67-.95-2.72-3-3.09a71.63,71.63,0,0,0-9.6-.79c-3.48-.11-5.57,0-6.26.42a3,3,0,0,0-1.13,1.32,4.27,4.27,0,0,0-.52,1.87,1.33,1.33,0,0,0,.3,1.07,10.07,10.07,0,0,0,2.15.86c1.56.51,2.35,1.42,2.31,2.77-.09,3-3.82,4.33-11.21,4.19a38.6,38.6,0,0,1-9.23-1A3.34,3.34,0,0,1,313.35,75a2.51,2.51,0,0,1,.62-1.79,5.49,5.49,0,0,1,2.18-1.14A8.5,8.5,0,0,0,320,69.69a36.81,36.81,0,0,0,3.87-6.59c2.31-4.59,3.47-6.88,5.82-11.46a91.73,91.73,0,0,0,4.4-9.44A20.4,20.4,0,0,0,335.4,36a18.49,18.49,0,0,1,.55-4.46,5.64,5.64,0,0,1,1.78-2.41,10,10,0,0,1,7.21-2.39A11.67,11.67,0,0,1,352.65,30C358.9,36.14,362.85,45.72,366.45,54.26Zm-27.76,3.58c3.1.09,4.65.15,7.75.26,1.42,0,2.14-.22,2.17-.82,0-.82-.88-2.89-2.75-6.18a20.09,20.09,0,0,0-2-3,2.09,2.09,0,0,0-1.49-.8c-1,0-1.78.78-2.47,2.43-.12.22-.53,1.1-1.24,2.63a20.74,20.74,0,0,0-1.8,4.52C336.88,57.47,337.47,57.8,338.69,57.84Z" transform="translate(-1.26 -26.76)"/><path d="M388.16,54.72a18.61,18.61,0,0,1,2.09.26c3.18.55,5.61.9,7.3,1a29.61,29.61,0,0,0,3.74.11,16,16,0,0,1,1.8,0c.82.07,1.18.68,1.08,1.82a14.6,14.6,0,0,1-1.09,4,26.67,26.67,0,0,1-2.31,4.63A10.73,10.73,0,0,1,399,68.83a2.13,2.13,0,0,1-1.56.52,12.57,12.57,0,0,1-1.91-.34,50.46,50.46,0,0,0-8-1.15c-1.28-.08-2.47-.11-3.54-.09-.87,0-1.53,0-2,0-1.08-.07-1.57-.71-1.5-1.9a15.29,15.29,0,0,1,1.19-4,23.49,23.49,0,0,1,2.08-4.26,8.81,8.81,0,0,1,2.09-2.34A3.63,3.63,0,0,1,388.16,54.72Z" transform="translate(-1.26 -26.76)"/><path d="M443.82,71.16c-2.34,3.79-3.51,5.68-5.82,9.48a17.82,17.82,0,0,1-2.32,3.2,2.14,2.14,0,0,1-1.72.7,2.07,2.07,0,0,1-1.44-.88,25.16,25.16,0,0,1-1.61-3.49c-.82-2-1.5-3.76-2-5.29-1.61-4.65-2.42-7-4.06-11.61-.56-1.61-1.23-2.45-2-2.53s-1.37.53-1.57,1.84q-.71,4.38-1.06,8.11a22.07,22.07,0,0,0-.12,5.3,2.45,2.45,0,0,0,.61,1.26,15.17,15.17,0,0,0,2.3,1.58A2.26,2.26,0,0,1,424,81.16c-.28,2.79-4.12,3.79-11.53,3.12-6.25-.57-9.27-2.18-9-4.89a2.06,2.06,0,0,1,.61-1.48,11.24,11.24,0,0,1,2.63-1.18,3.24,3.24,0,0,0,1.87-1.38,14.21,14.21,0,0,0,1.09-3.71c.41-2,.92-5.22,1.54-9.74s1.06-8.4,1.35-11.64q.54-6.09-.28-8.34a3,3,0,0,0-.72-1.19,8.88,8.88,0,0,0-1.66-1.12q-2.75-1.52-2.58-3.53a3.39,3.39,0,0,1,1.27-2.3,6,6,0,0,1,3-1.29,35.17,35.17,0,0,1,4.82-.42,41.61,41.61,0,0,1,5.06.11,23.32,23.32,0,0,1,7.23,1.49,4.08,4.08,0,0,1,1.55,1.18,15.32,15.32,0,0,1,1.47,2.78c2.76,6.06,4.12,9.09,6.8,15.16A19.49,19.49,0,0,0,440,55.87a2,2,0,0,0,1.37.68,2.07,2.07,0,0,0,1.47-.4,9,9,0,0,0,1.69-1.92c2.71-3.84,4.07-5.76,6.81-9.59l1.67-2.4a13.12,13.12,0,0,1,4.5-4.48c1.76-.85,4.82-1,9.14-.46,7.6,1,11.17,3.13,10.73,6.32a3.05,3.05,0,0,1-.68,1.66,7.16,7.16,0,0,1-2,1.33,5.71,5.71,0,0,0-2.83,3.44,70.29,70.29,0,0,0-2.6,12.36A131.23,131.23,0,0,0,468,79.14a5.33,5.33,0,0,0,.4,2.47,11.41,11.41,0,0,0,2.24,2.24,2.73,2.73,0,0,1,1.07,2.57q-.36,2.6-4.1,3.18a18.29,18.29,0,0,1-4,.25q-2.07-.09-6.32-.63a41,41,0,0,1-9.63-2.1c-2.29-1-3.35-2.24-3.16-3.85a2.27,2.27,0,0,1,.64-1.42A17.75,17.75,0,0,1,447.77,80a4.74,4.74,0,0,0,1.74-2.85,52.82,52.82,0,0,0,1.29-7.55A16.28,16.28,0,0,0,451,65.7a1.2,1.2,0,0,0-1.13-1.08,2.77,2.77,0,0,0-2.3,1.18A43.94,43.94,0,0,0,443.82,71.16Z" transform="translate(-1.26 -26.76)"/><path d="M503.49,57.36A23,23,0,0,1,515.62,63a19.21,19.21,0,0,1,5.12,7.63,17.43,17.43,0,0,1,.86,9.22c-1,5.33-4.35,9.4-10.11,12.26a28.63,28.63,0,0,1-17.66,2.58c-6.14-1-10.85-3.4-14.18-7.31a16.46,16.46,0,0,1-3.76-13.57,17.57,17.57,0,0,1,9-13.32A27.16,27.16,0,0,1,503.49,57.36Zm-4.53,8a3.48,3.48,0,0,0-3,.77,4.71,4.71,0,0,0-1.54,3,28.33,28.33,0,0,0-.07,6.19,47,47,0,0,0,1,7.12c.49,2.14,1.62,3.37,3.43,3.66,2.3.38,3.68-.83,4.14-3.61a33,33,0,0,0,.28-7.21,27.19,27.19,0,0,0-1.09-6.79A4.17,4.17,0,0,0,499,65.4Z" transform="translate(-1.26 -26.76)"/><path d="M548.9,73.34l-2.37,11.8A85.53,85.53,0,0,0,545,94.3a2.87,2.87,0,0,0,1.51,2.37,6,6,0,0,1,1.68,1.49,2.12,2.12,0,0,1,.18,1.57,3.27,3.27,0,0,1-1.35,2,5,5,0,0,1-2.68.91,39.29,39.29,0,0,1-9.47-1c-4.93-.95-8.33-1.95-10.2-3a5.3,5.3,0,0,1-2-1.91,3.21,3.21,0,0,1-.5-2.28,1.85,1.85,0,0,1,.73-1.28,7.43,7.43,0,0,1,2.31-.76c1.08-.23,1.91-1.27,2.49-3.08a120.24,120.24,0,0,0,3.16-13.52q1.67-9,1.6-11.68a5.55,5.55,0,0,0-2.07-4.34,7.59,7.59,0,0,1-2-2.1,3,3,0,0,1-.27-2,3.91,3.91,0,0,1,2.45-2.82A19.79,19.79,0,0,1,537,51.41a63.61,63.61,0,0,1,7.43-.11,45.81,45.81,0,0,1,6.52.55q3.15.63,2.43,4.23c-.16.79-.68,2.58-1.48,5.32C550.66,65.68,549.68,69.7,548.9,73.34Z" transform="translate(-1.26 -26.76)"/><path d="M589,95.34c-7.26-1.72-10.89-2.55-18.17-4.16-.8-.18-1.27.06-1.42.72-.35,1.59.23,3.28,1.73,5.09a9.65,9.65,0,0,0,5.36,3.41,14.67,14.67,0,0,0,4.25.26,14.42,14.42,0,0,0,4.1-.79,4.19,4.19,0,0,1,2.28-.39,2.69,2.69,0,0,1,1.68,1.63,3.83,3.83,0,0,1,.39,2.64c-.42,1.75-2,3.16-4.65,4.25a24.54,24.54,0,0,1-15,1.13,21.3,21.3,0,0,1-12.49-7.4,18.81,18.81,0,0,1-3.27-6.24,18.27,18.27,0,0,1-.48-9.21A17.44,17.44,0,0,1,559.58,76a21,21,0,0,1,10.15-4.47,23.7,23.7,0,0,1,9,.34,20.62,20.62,0,0,1,11.76,6.85,16.48,16.48,0,0,1,3.12,5.67,12,12,0,0,1,.39,6.42,6.86,6.86,0,0,1-2,3.63A3.28,3.28,0,0,1,589,95.34ZM573.35,84.56l3.94.88c1.66.37,2.65-.16,3-1.6a4.56,4.56,0,0,0-.48-3.49,4.32,4.32,0,0,0-2.89-1.95,4.2,4.2,0,0,0-3.8.84A5,5,0,0,0,571.26,82a1.86,1.86,0,0,0,.23,1.66A3.35,3.35,0,0,0,573.35,84.56Z" transform="translate(-1.26 -26.76)"/></svg>